<svg id="圖層_1" data-name="圖層 1" xmlns="http://www.w3.org/2000/svg" viewBox="0 0 1281.82 674.52"><defs><style>.cls-1{fill:#d71819;}.cls-2{fill:#231f20;}.cls-3{fill:#fff;}</style></defs><path class="cls-1" d="M1263.7,325.8c-.2-1.5.2-2.4-.4-4.1-1.2-3.3-3.6-6.2-5.9-9.1a27.55,27.55,0,0,0-5.2-5,16.18,16.18,0,0,1-1.9-1.8c-2.4-2.7-5.9-4.4-10.3-5.2a11.57,11.57,0,0,1-5.5-2.4,7.75,7.75,0,0,0-5.5-1.4,7,7,0,0,1-6.2-2.2,6.07,6.07,0,0,1-.7-1,14.34,14.34,0,0,0-7-6.2c-1.5-.7-2-1.6-1.8-2.9.3-2.4-1.7-4.1-3.7-5.9-.6-.5-1.4-1-2-1.6-1.2-1-1.9-2.1-1.6-3.5.1-.5.2-1.2-.3-1.6-2.4-2.5-2.9-5.7-5.3-8.2a1.23,1.23,0,0,1,.1-1.9c.4-.4.7-.8,1-1.1.6-.7,1.2-1.4-.2-2-1.6-.8-3.1-.8-4.2.1s-1.2,1-1.8-.2c-.9-1.7-2-2-4.4-1-.4.1-.8.6-1.2.2s0-.7.4-1a10.89,10.89,0,0,1,2.5-1c1.3-.5,1.5-1.2.3-1.9-.5-.3-.4-.5-.2-.9.8-1.4.5-2-1.6-2.4-1.4-.3-1.8-.6-.8-1.5a1.36,1.36,0,0,0,.4-1.9c-.6-1-.1-1.8.9-2.5a1.87,1.87,0,0,0,.8-2c-.4-1.7,1.2-3.8,3.4-4.7a7.54,7.54,0,0,1,1.3-.6c.9-.3.5-.5.1-.8a3.36,3.36,0,0,0-1.4-.5c-.4-.1-.8-.2-.5-.5,1.2-1.4.5-2.8-.2-4a26.4,26.4,0,0,1-1.5-4.5c-1-3.5-2.3-6.9-3.1-10.4a4.83,4.83,0,0,1,1.4-4.9,7.39,7.39,0,0,0,2.2-5.1c.1-2,1.8-3.7,3.3-5.3a41.9,41.9,0,0,0,7.9-11.6,3.18,3.18,0,0,0,.3-.9c.9-3.9-.2-7.1,3.3-10.2.5-.4,1.1-.9,1.1-1.5.2-2.4,2-4.5,3.6-6.6a41.09,41.09,0,0,0,5.1-9.7c1.7-4.1.3-12,3.7-15.6a22.65,22.65,0,0,0,5.6-9.6,3.23,3.23,0,0,1,2.4-2.4,5.63,5.63,0,0,0,3.4-2.7c.7-1.2,2-1.9,4-2a4.48,4.48,0,0,0,2-.4c.7-.2,1.1-.5.9-1.1-.6-1.5.3-2.8,1.8-3.7,3.1-1.8,7.8-4.2,8.1-6.6.2-2.2,1.7-4.2,2.3-6.4,3.2-1.5,2.1-4.1,3.5-6.1,2.4-3.3,9.4-6,14.3-7.6a32.13,32.13,0,0,0,8-3.4c1.9-1.3,4.4-1.7,6.9-2.1,3.9-.6,7.4,2.3,10.6.7,2.2-1.1,3.4-1.1,5.4.1.4.2.8.5,1.2.7a1.65,1.65,0,0,0,2,.1c.7-.4.5-1,.1-1.4a10.25,10.25,0,0,0-3.7-2.6c-1.1-.4-1.2-.8-.7-1.5a18.76,18.76,0,0,1,4.4-4.5c2.6-1.9,5.8-2.1,9-2.4a6.11,6.11,0,0,1,5,1.6c.8.9,1.6,1.8,2.4,2.8s1.2,1.9,3.2,1.9a1.27,1.27,0,0,1,.7.4c3.2,2.2,7.1,3.2,11.6,3.4,3.1.1,6.2.3,9.2.4a1.73,1.73,0,0,1,1.9,1.1,17.91,17.91,0,0,0,2.7,4.6,3.31,3.31,0,0,0,2.9.9c1.1,0,2.3,0,3.4-.1.3,0,.6,0,.7.2s-.1.4-.4.5c-1.1.5-2.1,1.1-3.2,1.6a14.29,14.29,0,0,0-6.6,5.3,19.94,19.94,0,0,1-2.7,3.2,7.84,7.84,0,0,0-1.8,8.8,27.35,27.35,0,0,1,2,7.3c.2,1.7,1,3.1,3.6,3.6.3.1.8.1.6.5-.6,1.1.3,1.8,1.1,2.5,1.3,1.2,1.3,1.5-.4,2.5a10.38,10.38,0,0,0-1.7,1.2c-.6.6.1,1.1.6,1.4.8.6.7,1-.2,1.3-3.6,1.4-4.3,3.6-3.8,6.1a2.69,2.69,0,0,1-.4,2.1,4.05,4.05,0,0,0,.1,4.8c.3.4.7.9,0,1.2-2.5,1.5-3.6,3.6-5.6,5.4-2.7,2.3-4.7,4.9-4.8,7.9,0,.5-.5.8-1,1.1a5.07,5.07,0,0,0-2.4,2.4c-.8,1.9-.1,3.2,2.2,4.5.6.3,1.6.5,1,1.2a8.18,8.18,0,0,0-1.8,6.9c.2,2.5-1.1,4.9-1.7,7.4-1,3.9-.9,7.8-2.3,11.6-.8,2.3-.5,4.7-.8,7a24.45,24.45,0,0,0-.4,6.6c.1,1-1.3,2.1-1.3,3.2a42.59,42.59,0,0,1-1.6,9.9c-.6,2.3-2.2,4.4-3,6.6a6.43,6.43,0,0,0,.4,4.7c.7,2.1.1,4.2-2.2,5.8s-4.1,3.2-4,5.5a6.1,6.1,0,0,1-1.1,2.8,42.85,42.85,0,0,0-3.1,5.5,8.33,8.33,0,0,1-3.9,4c-2.2,1.2-3.7,2.7-3.6,4.8a10.27,10.27,0,0,1-.5,2.4c-.5,2.1-1.8,3.8-5,4.6a5.25,5.25,0,0,0-2.9,2,13.71,13.71,0,0,1-3.1,3.3,8.34,8.34,0,0,0-3,4.4,3.44,3.44,0,0,1-2.2,2.4,3.32,3.32,0,0,0-2,2.5c-.7,2.4-1.3,4.9-1.8,7.3a26.34,26.34,0,0,1-2.8,6.2,18.94,18.94,0,0,0-1.7,8.8c.2,3.3-.6-1.7.2,2.7,0,.1-.3,2.8.6,3.4.5-.7.3,7.5-.1,7.7s-4.6,3.3-4.9,3.1c-2.1-1.2-4.8,2.3-7.4,2.3C1264.3,328.5,1263.9,328.7,1263.7,325.8Z" transform="translate(-75.84 -76.27)"/><path class="cls-2" d="M1055.3,258.2q4.5-5.7,6-7.2c1-.9,2-2.9,3-5.8a10.88,10.88,0,0,0,1.5-4.3,437.86,437.86,0,0,1,43.7-5.8,75.65,75.65,0,0,1,19.6,2.9h3c9.1,1,15.1-3.4,18.1-13,4-8.6,3-17.3-3-25.9-10.1-15.3-22.6-26.9-37.7-34.6-5-1.9-9.1-2.4-12.1-1.4-2,1.9-6,2.9-12.1,2.9s-21.6,1.9-46.7,5.8a49,49,0,0,0,6-4.3c9.1-4.8,19.6-10.1,31.7-15.8q3-1.35,1.5,0c8-3.8,12.1-8.1,12.1-13-1-9.6-5.5-16.8-13.6-21.6-5-2.9-14.6-4.8-28.7-5.8a20.57,20.57,0,0,0-12.1,4.3c0,1-.5,1.4-1.5,1.4l-9,2.9q4.5-5.7,1.5-14.4c-13.1-11.5-23.1-18.7-30.2-21.6-2-1.9-6-1.9-12.1,0a10.94,10.94,0,0,1-4.5,1.4,32,32,0,0,0-18.1,15.8q-4.5,4.35-1.5,7.2c1,1.9,1,2.4,0,1.4,2,3.8,2,5.8,0,5.8s-3,.5-3,1.4a4.55,4.55,0,0,0,3,4.3c3,1.9,5,5.8,6,11.5v13a17.5,17.5,0,0,1-4.5,2.9q-6,4.35-7.5,7.2c-2,1.9-5,.5-9-4.3-1-1.9-2-2.9-3-2.9-1-1.9-7-4.8-18.1-8.6-3-.9-6,0-9,2.9,0,1-1,2.4-3,4.3-3,3.9-4.5,6.2-4.5,7.2a10.4,10.4,0,0,1-1.5,4.3,120.06,120.06,0,0,0-1.5,17.3c1,8.6,6.5,17.3,16.6,25.9h1.5c-14.1,5.8-23.1,9.6-27.1,11.5-3,2.9-5,2.4-6-1.4v-7.2c0-2.9-1-4.3-3-4.3-7-1.9-14.6,2.4-22.6,13-6,6.7-9.6,13.9-10.5,21.6V238a182.18,182.18,0,0,1-1.5,18.7v13c2,6.7,7,13.9,15.1,21.6s16.6,11,25.6,10.1c11-2.9,15.6-9.6,13.6-20.1a84,84,0,0,0-1.5-13,36,36,0,0,0-1.5-11.5c0-4.8,2.5-9.1,7.5-13,2-.9,5-2.4,9-4.3a65.45,65.45,0,0,0,12.1-5.8c-1,3.9-4,9.6-9,17.3-1,2.9-2,4.8-3,5.8-4,6.7-3.5,14.4,1.5,23,13,23,20.6,35.5,22.6,37.4,2,1,2.5,2.9,1.5,5.8l-3,2.9c-3,4.8-5.5,8.2-7.5,10.1a30.92,30.92,0,0,1-2.5,3.1c-2.3,1-4.6,2-7,3-5.6,2.2-8.7,5.6-9.6,10.9-.1.6,0,1.2-.1,1.8a33.08,33.08,0,0,0-.5,9.3c.8,7.6,6,11.7,15.3,12.3a49.31,49.31,0,0,0,11.1-1c3.9-.7,7.7-1.5,11.6-2.2a51.48,51.48,0,0,0,5.6.2c3-.9,4,0,3.1,2.7l-.6.1a13.06,13.06,0,0,1-2.1.8c-8.6,2.6-17.5,4.5-25.8,6.3-9.5,2-19.7,4-32.2,6.1a18.46,18.46,0,0,1-6.6-.5c-1.6-.3-3.2-.8-4.9-1.2a46,46,0,0,0-5-1.3,9,9,0,0,0-9.1,3,13.31,13.31,0,0,0-3,2.3c-3.4,4.1-1.8,13.4,1.9,16.9,8.6,8.2,19.3,12,29.7,15.6l3.9,1.4a31.18,31.18,0,0,0,10.2,1.7c4.8,0,9.8-1,16-3.1,9.8-3.4,19.7-6.1,31.7-9.2a137,137,0,0,1,38.1-4.4c14.7.5,29.5,1.1,44.2,1.7,15,.6,29.9,1.3,44.9,1.8,3.2.1,6.6.5,9.8.9,6.8.8,14.2,1.4,20.4.2,7.4-1.4,15.8-3.1,19.7-11.7a24.75,24.75,0,0,0-2.6-25.9c-5.1-6.9-12.7-11.9-22.7-14.7-2.2-.6-4.5-1.1-6.8-1.6-1.6-.3-3.3-.7-4.9-1a23.11,23.11,0,0,0-9.8-.3l-4-.9c-5.2-1.4-10.6-.6-15.9,2.3-2.6,1.4-5.2,3-7.8,4.5-2.3,1.4-4.6,2.7-7,4a11.64,11.64,0,0,1-4.5,1.6c-13,1-26.2,2-37.9,2.8,1.7-4,3-8.2,4.3-12.2l.6-2c.2-.5.3-.6.7-.7l15.5-2.4,11.6-1.8c6.8-1,14.4-2.2,21-6.6,6.2-4.1,9.1-10.2,7.9-16.1-1.1-5.7-5.8-10.3-12.8-12.6a72.39,72.39,0,0,0-11.2-2.5l-3.2-.5a33.08,33.08,0,0,0-10.7-.4c-.4-.1-.7-.3-1.1-.4a77.17,77.17,0,0,0-15.1-1.4c-1,0-1.5-.5-1.5-1.4a4.31,4.31,0,0,1,1.5-2.9,5.62,5.62,0,0,0,1.5-4.3c1-1,2-1.9,3-2.9s3.5-1.4,7.5-1.4a12.78,12.78,0,0,1,4.5-1.4c6-1.9,9.1-5.3,9.1-10.1v-1.4c1-4.8.5-7.7-1.5-8.6-5-2.9-6.6-5.8-4.5-8.6A120.4,120.4,0,0,0,1055.3,258.2Zm-34.2-126.6v-4.3h6a6.55,6.55,0,0,1,4.5,1.4,12.53,12.53,0,0,1-1.5,5.8,103.36,103.36,0,0,0-7.5,10.1c-1,2.9-2,4.8-3,5.8C1019.6,138.8,1020.1,132.5,1021.1,131.6Zm-54.3,23v15.8c0,3.9-1,4.8-3,2.9-3,0-5-.5-6-1.4h-3l2.7-3.9c2.4-3.5,4.9-7,7.3-10.4C965.5,156.5,966.2,155.6,966.8,154.6Zm-16.3,16.8,1.6-1.5v1.5c2.1,2,4.7,6,7.8,11.9.8,1.3,1.6,2.8,2.5,4.4a4.17,4.17,0,0,1-3,1.4,4.17,4.17,0,0,1-3,1.4v-2.9a2.93,2.93,0,0,0-.6-1.7,4.2,4.2,0,0,1-2.1.6v-3a4.1,4.1,0,0,0-1.6-3C949.9,176.5,949.4,173.4,950.5,171.4ZM946.9,334c-.2.2-.4.5-.6.7s-.2.2-.2.3l-.2.2h0c-1.6,1.8-3.8,4.1-6.6,6.7-3.2,2-4.3,1.5-3.2-1.5l1.6-1.5c.6-.5,1.1-1.1,1.7-1.6a7.89,7.89,0,0,1,.3-1.3l1.5-1.4q6-5.7,7.5-7.2,3-2.85,3,0a25.47,25.47,0,0,1-2.9,3.8h0c-.1.1-.1.2-.2.4s-.1.1-.1.2-.1.1-.1.2-.1.2-.2.3l-.1.1c-.1.1-.2.3-.3.4a.1.1,0,0,1-.1.1c-.1.1-.2.3-.4.5h0a2.09,2.09,0,0,1-.4.6Zm13.9-2.3-1.5,1.4c-.5.5-1.1,1-1.7,1.6a10.47,10.47,0,0,1,.8,1.1l-1.6,1.5c-1.1,1-2.1,2-3.2,3h-6.4c.7-2.5,1.7-4.3,3.2-5.2.1-.4.3-.8.4-1.1s.2-.3.2-.5l.1-.1c.1-.1.1-.2.2-.3s.1-.1.1-.2a.22.22,0,0,1,.2-.2c0-.1.1-.1.1-.2l.2-.2.1-.1.2-.2.1-.1.2-.2.1-.1.3-.3h0a.52.52,0,0,1,.4-.2.1.1,0,0,0,.1-.1c.1,0,.2-.1.3-.1a.31.31,0,0,0,.2-.1.35.35,0,0,0,.2-.1c.1,0,.1,0,.2-.1a.37.37,0,0,0,.3-.1h.2a.37.37,0,0,0,.3-.1h1.2c2-1.1,3.5-.7,4.5,1.3Zm8.9-2.1h0c-.4.1-.8.2-1.1.3l.1-.1,7.9-6c.3,1.2.5,2.4.8,3.6C974.8,328.2,972.3,328.9,969.7,329.6Zm33.3-67a10.88,10.88,0,0,0-1.5,4.3c-2,2.9-5,6.7-9,11.5-2,1.9-6,4.3-12.1,7.2a10.1,10.1,0,0,1-7.5-2.9,4.31,4.31,0,0,0-1.5-2.9c-2-2.9-3-4.8-3-5.8q0-5.7,4.5-7.2c12.1-6.7,20.6-11,25.6-13,4,0,6,1.4,6,4.3A11,11,0,0,1,1003,262.6Zm42.2-44.7a66.43,66.43,0,0,0-7.5-4.3c-5-1.9-12.1-1.4-21.1,1.4-2,1-4,1.9-6,2.9A363.2,363.2,0,0,0,956.3,238c-4,1.9-6,1.4-6-1.4a96.94,96.94,0,0,1,3-11.5c11-3.8,20.1-6.7,27.1-8.6a28,28,0,0,1,6-1.4c8,3.9,15.1,2.9,21.1-2.9,2,0,3-.9,3-2.9,23.1-3.8,43.2-5.8,60.3-5.8,3,0,4.5.5,4.5,1.4s-1.5,2.9-4.5,5.8l-3,2.9a129.17,129.17,0,0,1-10.6,11.5Q1049.85,219.4,1045.2,217.9Z" transform="translate(-75.84 -76.27)"/><path class="cls-2" d="M500.8,291.5c-12.6,3.2-22.1.5-28.4-8-9.5-8.5-12.6-19.7-9.5-33.6,1-8.5,3.7-15.5,7.9-20.8,2.1-5.3,5.2-6.4,9.5-3.2,5.2,4.3,10,4.8,14.2,1.6q3.15-1.65,25.2-14.4c21-11.7,32.5-18.7,34.7-20.8a21,21,0,0,0,9.5-9.6c4.2-5.3,9.5-5.9,15.8-1.6,5.2,5.4,10.5,11.2,15.8,17.6,2.1,2.1,3.7,3.8,4.7,4.8,4.2,8.6,3.7,15-1.6,19.2a49.7,49.7,0,0,1-7.9,6.4,60.35,60.35,0,0,0-11,8c-6.3,5.4-9.5,10.7-9.5,16v8c5.2-3.2,8.4-5.9,9.5-8a17.28,17.28,0,0,1,4.7-3.2,163.81,163.81,0,0,0,14.2-12.8c3.2-2.1,5.2-2.1,6.3,0s0,5.9-3.2,11.2q-8,16.05-33.1,57.6c-1.1,10.7-1.6,25.1-1.6,43.2,0,20.3.5,32,1.6,35.2,4.2,7.5,4.7,16,1.6,25.6-3.2,13.9-5.8,22.4-7.9,25.6-6.3,5.3-13.2,6.4-20.5,3.2q-15.75-11.25-18.9-19.2c-2.1-2.1-2.6-14.9-1.6-38.4V368.3c-6.3,9.6-11.6,16-15.8,19.2-8.4,8.6-16.3,9.6-23.6,3.2a57.12,57.12,0,0,1-17.3-27.2c-3.1-7.5-2.6-14.9,1.6-22.4,3.1-7.5,15.2-22.9,36.2-46.4,2.1-2.1,2.1-3.2,0-3.2Zm280.5,22.4c2.1,4.3,1,8.6-3.2,12.8l-1.6,1.6c-3.2,4.3-4.7,8-4.7,11.2-7.4,27.8-14.2,48-20.5,60.8-7.4,11.7-16.3,20.8-26.8,27.2-5.3,2.1-11.6,1.6-18.9-1.6H704c-2.1-1.1-4.7-4.8-7.9-11.2a18,18,0,0,0-3.2-4.8c-6.3-5.3-11.6-7.5-15.8-6.4a105.69,105.69,0,0,0-11,1.6c-12.6,2.1-20,3.2-22.1,3.2-3.2,0-4.7,1.6-4.7,4.8-1.1,3.2-2.1,5.3-3.2,6.4q-9.45,8-25.2,0c-10.5-6.4-17.3-13.9-20.5-22.4A285.42,285.42,0,0,1,574.6,325c0-12.8,2.6-20.8,7.9-24q3.15-1.5,12.6-4.8c3.2-1,5.2-1.6,6.3-1.6,2.1-1,6.8-3.7,14.2-8a35.92,35.92,0,0,1,7.9-6.4,14.78,14.78,0,0,1-7.9-6.4c-1.1-3.2-2.1-13.3-3.2-30.4a160.42,160.42,0,0,1-1.6-17.6c-1.1-7.4,2.6-17.1,11-28.8,2.1-3.2,3.2-5.3,3.2-6.4a4.48,4.48,0,0,1,1.6-3.2c3.2-3.2,4.2-5.3,3.2-6.4s-4.2-2.1-9.5-3.2a11.57,11.57,0,0,0-4.7-1.6c-3.2-2.1-8.4-8-15.8-17.6-1.1,0-1.6-1.1-1.6-3.2a14.23,14.23,0,0,1-9.5,8c-1.1,0-4.2,1.1-9.5,3.2-12.6,3.2-19.5,5.4-20.5,6.4-6.3,3.2-17.3,9.1-33.1,17.6-5.3,2.1-8.9,3.8-11,4.8-3.1,1.1-5.3,1.1-6.3,0s-1.1-2.6,0-4.8c5.2-5.3,11-12.8,17.3-22.4,2.1-3.2,2.6-5.9,1.6-8L526,157c-4.2-4.2-7.9-8-11-11.2-6.3-6.4-7.4-17.6-3.1-33.6,2.1-5.3,5.8-7.5,11-6.4a14.7,14.7,0,0,1,6.3,1.6h4.7c2.1,0,8.4-1.1,18.9-3.2a23.94,23.94,0,0,1,6.3-1.6c9.5-1.1,16.3,1.1,20.5,6.4,8.4,10.7,14.2,21.4,17.3,32v-1.6a15.06,15.06,0,0,1,12.6-6.4,40,40,0,0,0,22.1-3.2c8.4-4.2,23.6-11.2,45.7-20.8,12.6-6.4,20.5-10.1,23.6-11.2,4.2-3.2,10.5-2.7,18.9,1.6,1,1.1,2.1,2.2,3.2,3.2,8.4,6.4,17.3,15,26.8,25.6,5.2,7.5,4.2,16-3.2,25.6-8.4,6.4-15.2,8.6-20.5,6.4-7.4-4.2-13.2-5.9-17.3-4.8-1.1,0-2.6.6-4.7,1.6a190.69,190.69,0,0,0-26.8,8c-9.5,3.2-16.3,8-20.5,14.4-2.1,5.4-.5,8.6,4.7,9.6a188,188,0,0,0,23.6-17.6c3.2-3.2,7.3-3.2,12.6,0a75.16,75.16,0,0,1,29.9,16c3.2,5.4,2.6,10.7-1.6,16-7.4,5.4-12.6,10.2-15.8,14.4-2.1,2.1-1.6,4.3,1.6,6.4l1.6,1.6,1.6,1.6c6.3,5.4,9.5,10.7,9.5,16-1.1,11.8-6.3,18.2-15.8,19.2-2.1,0-5.8,1.1-11,3.2a13.4,13.4,0,0,1-6.3,1.6c-3.2,1.1-10.5,3.8-22.1,8-6.3,3.2-10,4.8-11,4.8q-22,9.6-50.4,22.4c-4.2,3.2-4.7,5.9-1.6,8,6.3,3.2,8.9,7,7.9,11.2v22.4a41.54,41.54,0,0,0,1.6,9.6c2.1,12.8,3.7,20.3,4.7,22.4,1,4.3,2.6,5.9,4.7,4.8,5.2-2.1,8.9-3.2,11-3.2,3.2-2.1,3.7-5.3,1.6-9.6-1.1-1-4.2-3.7-9.5-8-4.2-2.1-6.8-3.7-7.9-4.8-5.3-5.3-5.8-9.6-1.6-12.8,6.3-5.3,12.1-8.5,17.3-9.6,2.1-2.1,1.6-4.2-1.6-6.4a18.52,18.52,0,0,1-11-3.2c-3.2-2.1-4.7-5.3-4.7-9.6v-1.6c2.1-7.5,15.2-14.9,39.4-22.4,10.5-3.2,23.1-6.9,37.8-11.2s23.6-7.5,26.8-9.6c7.3-3.2,12.6-2.6,15.8,1.6,3.2,1.1,8.4,4.3,15.8,9.6,4.2,4.3,7.3,7,9.5,8C772.4,295.8,778.2,304.3,781.3,313.9ZM645.8,264.3v1.6a1.39,1.39,0,0,0-1.6,1.6c12.6-7.5,20-11.7,22.1-12.8q4.8-4.8,0-9.6c-6.3-4.2-8.4-9.1-6.3-14.4,0-1.1,1.6-3.2,4.7-6.4,3.2-5.3,5.8-9.6,7.9-12.8,2.1-2.1,3.2-3.7,3.2-4.8s-1.6-1.6-4.7-1.6l-3.2,3.2c-3.2,2.1-6.3,4.3-9.5,6.4a45.94,45.94,0,0,0-4.7,6.4c-5.3,6.4-7.9,10.2-7.9,11.2Zm23.7-148.9c-2.1,3.2-1.6,4.3,1.6,3.2,1,0,3.7-1.1,7.9-3.2q10.95-4.8,12.6-4.8c3.2-3.2,2.6-4.2-1.6-3.2A188.8,188.8,0,0,1,669.5,115.4Zm45.7,227.3c3.2-12.8,5.8-24.5,7.9-35.2,0-3.2-2.6-3.7-7.9-1.6a70.94,70.94,0,0,0-9.5,1.6c-7.4,2.1-13.2,3.8-17.3,4.8H675.8c-1.1-1-1.6-.5-1.6,1.6a4.48,4.48,0,0,0,1.6,3.2h7.9a20.54,20.54,0,0,1,12.6,8c5.2,4.3,8.4,8.5,9.5,12.8,0,7.5-2.1,11.8-6.3,12.8-4.2,2.1-11.6,4.3-22.1,6.4v11.2a20.43,20.43,0,0,1,11,0,14.86,14.86,0,0,1,11,4.8c3.2,2.1,5.8,1.1,7.9-3.2C709.4,366.7,712,357.7,715.2,342.7Zm52-9.6a6.48,6.48,0,0,0-1.6-4.8c-1.1,0-2.1,1.1-3.2,3.2a4.48,4.48,0,0,1-1.6,3.2c-3.2,16-5.8,26.2-7.9,30.4,0,2.1.5,3.8,1.6,4.8,1,0,2.1-1,3.2-3.2C760.9,355,764,343.8,767.2,333.1Z" transform="translate(-75.84 -76.27)"/><path class="cls-2" d="M94,223.1c14.5,1.1,26.8-.5,36.8-4.8,13.4-4.3,44-11.8,92-22.6V184.4q-8.4,1.65-20.1,4.8a4.67,4.67,0,0,1-3.3,1.6c-4.5,3.2-9.5,3.2-15.1,0-7.8-5.4-14.5-10.2-20.1-14.5-3.4-3.2-3.9-8.1-1.7-14.5v-1.6c2.2-6.5,6.7-10.7,13.4-12.9,5.6-1.1,21.2-4.8,46.8-11.3V124.7q0-8.1-3.3-12.9l-1.7-1.6a25.63,25.63,0,0,1,0-12.9,71.26,71.26,0,0,1,18.4-17.8c6.7-4.3,13.9-4.3,21.7,0a141.12,141.12,0,0,1,21.7,17.8q5,6.45,3.3,12.9a14.33,14.33,0,0,1-1.7,6.5,67.23,67.23,0,0,1-3.3,8.1c12.2-3.2,19.5-4.8,21.7-4.8,7.8-3.2,13.9-1.6,18.4,4.8,6.7,5.4,11.1,11.3,13.4,17.8,2.2,5.4,2.2,9.1,0,11.3-2.2,4.3-5,9.1-8.4,14.5a33.64,33.64,0,0,1-15,3.2c-3.4-2.1-8.9-2.7-16.7-1.6h-1.7a72,72,0,0,1-13.4,1.6v12.9Q304.6,178,353,170c7.8-2.1,12.3-3.2,13.4-3.2a40.13,40.13,0,0,1,21.7,6.4c6.7,7.5,12.8,17.2,18.4,29.1,3.4,6.4,1.1,13.5-6.7,21-7.8,5.4-15,6.5-21.7,3.2-8.9-6.4-20.1-8.6-33.5-6.4-3.4,0-10,.6-20.1,1.6a45.89,45.89,0,0,1-10,1.6c4.4,5.4,4.4,10.8,0,16.1l-1.7,1.6a72.79,72.79,0,0,1-13.4,12.9h5.1c8.9-1.1,15.6.6,20.1,4.8,5.6,4.3,8.9,7.5,10,9.7,2.2,3.2,2.2,8.6,0,16.1-4.5,7.5-9.5,12.4-15,14.5-2.2,0-7.8,1.6-16.7,4.8-6.7,2.2-10.6,3.2-11.7,3.2-2.2,1.1-3.9,1.1-5,0-1.1,0-1.1-.5,0-1.6a4.64,4.64,0,0,0,1.7-3.2c-1.1-1.1-2.8-1.6-5-1.6a7.3,7.3,0,0,0-5,1.6,40.65,40.65,0,0,1,1.7,12.9l-1.7,8.1q6.6-1.65,20.1-4.8a80.55,80.55,0,0,1,10-1.6c3.3,0,6.7-1.6,10-4.8q10-3.15,15,0a95.4,95.4,0,0,1,25.1,17.8c4.4,6.5,5.6,11.9,3.4,16.1-1.1,1.1-2.2,4.3-3.4,9.7a26.47,26.47,0,0,0-1.7,6.5c-3.4,4.3-6.7,6.5-10,6.5a40.34,40.34,0,0,0-11.7,1.6c-5.6,1.1-10,0-13.4-3.2-5.6-5.4-20.6-4.3-45.2,3.2v35.5a85.78,85.78,0,0,1-3.3,24.2,237.79,237.79,0,0,1-10,29,10.59,10.59,0,0,1-5,4.8c-2.2,0-3.3-1.1-3.3-3.2a34.89,34.89,0,0,1-1.7-11.3q-1.65-4.8-3.3,0v12.9c-1.1,6.5-4.5,8.1-10,4.8-4.5-3.2-7.3-7-8.4-11.3V437.8c-1.1-2.2-2.2-2.2-3.4,0-1.1,3.2-2.2,2.1-3.3-3.2v-3.2c-1.1-18.3-1.7-36-1.7-53.3a204.23,204.23,0,0,0-23.4,6.5l-8.4,1.6a27.62,27.62,0,0,1-13.4,0,75.27,75.27,0,0,0-8.4-4.8c-5.6,0-8.9-1.1-10-3.2a4.64,4.64,0,0,0-1.7-3.2,112.85,112.85,0,0,1-8.4-16.1c-2.2-5.4,0-10.2,6.7-14.5a5.06,5.06,0,0,0,3.4-1.6,150.57,150.57,0,0,1,28.4-21,12.54,12.54,0,0,1-5-1.6H181c-2.2-2.1-5.6-5.4-10-9.7l-1.7-1.6c-3.4-3.2-3.4-8.1,0-14.5,1.1-6.5,5-10.7,11.7-12.9a26.49,26.49,0,0,0,6.7-1.6c5.6-2.1,9.5-3.2,11.7-3.2-1.1-2.1-3.4-3.8-6.7-4.8-2.2-3.2-3.3-8.1-3.3-14.5v-3.2a12.49,12.49,0,0,0,1.7-4.8c-7.8,2.2-19.5,5.9-35.1,11.3-14.5,5.4-24.5,9.2-30.1,11.3-8.9,4.3-17.3,2.7-25.1-4.8-1.1-1.1-2.2-2.1-3.3-3.2-12.3-8.6-19-14.5-20.1-17.8C72.8,230.6,78.4,223.1,94,223.1ZM201,324.7c-1.1,2.2-.6,2.7,1.7,1.6,5.6-4.3,8.9-7,10-8.1h-3.4A68.73,68.73,0,0,0,201,324.7Zm6.7,11.3a27.47,27.47,0,0,0,6.7-1.6,14.67,14.67,0,0,1,6.7-1.6v-8.1c0-2.1-.6-3.2-1.7-3.2-1.1-1.1-2.8-.5-5,1.6-1.1,0-2.2,1.1-3.4,3.2-2.2,1.1-4.5,2.2-6.7,3.2a6.52,6.52,0,0,0-1.7,4.8A6.86,6.86,0,0,0,207.7,336Zm40.2-95.2c-1.1,1.1-2.2,5.4-3.4,12.9-2.2,5.4-3.9,9.7-5,12.9a14.67,14.67,0,0,1,6.7-1.6,5.06,5.06,0,0,0,3.4-1.6c2.2-5.4,6.7-14,13.4-25.8l1.7-3.2v-3.2a52,52,0,0,0-10,1.6c-5.6,0-9.5.6-11.7,1.6-2.2,0-5,1.1-8.4,3.2a132.19,132.19,0,0,0-15.1,3.2c3.3,3.2,7.2,3.8,11.7,1.6a41.5,41.5,0,0,1,10-4.8c1.1-1.1,2.8-1.6,5-1.6C248.4,237,249,238.6,247.9,240.8Z" transform="translate(-75.84 -76.27)"/><rect class="cls-2" x="189.74" y="426.16" width="15.7" height="206.7" transform="translate(-408.15 649.78) rotate(-89.89)"/><rect class="cls-2" x="1235.69" y="426.19" width="15.7" height="206.7" transform="translate(635.68 1695.75) rotate(-89.89)"/><path class="cls-2" d="M378.9,509.5v58.6H355.5V509.5H338.8V491h56.9v18.5Z" transform="translate(-75.84 -76.27)"/><path class="cls-2" d="M453.3,568.1l-4.4-15.2H428.2l-4.6,15.2H404.4L428.2,491h25l24.2,77.1Zm-21-32h12.5l-6.2-22.4Z" transform="translate(-75.84 -76.27)"/><path class="cls-2" d="M516.8,491v77.1H493.1V491Z" transform="translate(-75.84 -76.27)"/><path class="cls-2" d="M634.7,491l-20.5,77.1H594.3l-10.8-42.5-10.2,42.5H552.6L532.2,491h22.3l10.8,44.4L575.8,491h18.6l11.5,44.5L616.7,491Z" transform="translate(-75.84 -76.27)"/><path class="cls-2" d="M674.3,568.1l-4.4-15.2H649.2l-4.6,15.2H625.4L649.2,491h25l24.2,77.1Zm-21-32h12.5l-6.2-22.4Z" transform="translate(-75.84 -76.27)"/><path class="cls-2" d="M773.5,568.1H754.2L733.1,534a128.88,128.88,0,0,1-8.2-15.9,56.62,56.62,0,0,1,1.9,12.7v37.3H707.6V491H730l18,28.2a98.76,98.76,0,0,1,8.1,14.8,112.42,112.42,0,0,1-1.8-20.2V491h19.3l-.1,77.1Z" transform="translate(-75.84 -76.27)"/><path class="cls-2" d="M897.5,568.1H878.2L857.1,534a144.37,144.37,0,0,1-8.2-15.9,56.62,56.62,0,0,1,1.9,12.7v37.3H831.6V491H854l18,28.2a98.76,98.76,0,0,1,8.1,14.8,112.42,112.42,0,0,1-1.8-20.2V491h19.3l-.1,77.1Z" transform="translate(-75.84 -76.27)"/><path class="cls-2" d="M950.5,569.3c-10.8,0-19.7-3.6-26.5-10.8s-10.3-16.8-10.3-28.9c0-11.5,3.3-21,9.8-28.6s15.6-11.3,27.2-11.3c10.7,0,19.5,3.5,26.2,10.6S987,516.8,987,528.7q0,18.3-10.2,29.4C970.1,565.6,961.3,569.3,950.5,569.3Zm-.1-17.5c4,0,6.9-1.7,8.6-5.2s2.6-9.9,2.6-19.1q0-20.1-10.8-20.1c-7.8,0-11.6,7.7-11.6,22.9C939.2,544.6,942.9,551.8,950.4,551.8Z" transform="translate(-75.84 -76.27)"/><path class="cls-2" d="M1023.2,547.5v20.6h-21.5V547.5Z" transform="translate(-75.84 -76.27)"/><path class="cls-2" d="M1084.1,551h18.2v17.2H1043V551h19V514.3c-7.2,3.2-12.9,5.1-16.9,5.7V502.6c11-2.4,18.4-6.6,22.3-12.8h16.7V551Z" transform="translate(-75.84 -76.27)"/><path class="cls-2" d="M133.1,747.9h-41l40.7-60.3L93.3,627.5h42l20.4,34.9,21.2-34.9h41.4l-39.9,59,41,61.5H177.2l-22-36.8Z" transform="translate(-75.84 -76.27)"/><path class="cls-2" d="M232.8,747.9V627.5h37.9V747.9Z" transform="translate(-75.84 -76.27)"/><path class="cls-2" d="M376.8,627.5H412V749H371.7l-43.3-69.3v68.2H293.2V627.5H334l42.8,68.4V627.5Z" transform="translate(-75.84 -76.27)"/><path class="cls-2" d="M524.8,747.8a120.62,120.62,0,0,1-27.7,3,85.76,85.76,0,0,1-27.5-4.2,61,61,0,0,1-21.2-12,54.39,54.39,0,0,1-13.6-19.5c-3.2-7.8-4.8-16.7-4.8-26.9a73.32,73.32,0,0,1,4.6-26.9A52.27,52.27,0,0,1,448,641.4,59,59,0,0,1,469.3,629a85.45,85.45,0,0,1,28.1-4.3q6.15,0,12.6.6a109.7,109.7,0,0,1,12.8,1.9,106.82,106.82,0,0,1,12.1,3.3,58.31,58.31,0,0,1,10.4,4.6l-11.8,31.2a79.2,79.2,0,0,0-17.8-7.5,64.93,64.93,0,0,0-16.9-2.3,36,36,0,0,0-13.1,2.3,27.79,27.79,0,0,0-9.8,6.4,27.34,27.34,0,0,0-6.2,9.7,36.21,36.21,0,0,0-2.1,12.6c0,10.7,2.4,18.8,7.2,24.5s12.5,8.5,23.2,8.5a62.34,62.34,0,0,0,8.3-.6,34.33,34.33,0,0,0,7.3-1.7V706.1H486.1V677h61.3v63A114.88,114.88,0,0,1,524.8,747.8Z" transform="translate(-75.84 -76.27)"/><path class="cls-2" d="M594.1,627.5h92.1v30.4H631.5v17.3h42.8v30.1H631.5v42.6H594.1V627.5Z" transform="translate(-75.84 -76.27)"/><path class="cls-2" d="M809.6,721.4A44.75,44.75,0,0,1,798,738.1a46.08,46.08,0,0,1-17.7,9.6,77.19,77.19,0,0,1-22.6,3.1,86.57,86.57,0,0,1-22.2-2.7,46.47,46.47,0,0,1-17.8-8.8,41.4,41.4,0,0,1-11.8-15.6c-2.8-6.4-4.2-14.1-4.2-23.2v-73h38v68.4c0,8.1,1.5,14.1,4.4,17.9s7.7,5.8,14.2,5.8c6.3,0,10.8-1.7,13.6-5s4.2-9.2,4.2-17.7V627.6h37.8v69.9C813.8,706.7,812.4,714.7,809.6,721.4Z" transform="translate(-75.84 -76.27)"/><path class="cls-2" d="M923.7,658.5v89.4h-38V658.5H849.3v-31H960.1v31Z" transform="translate(-75.84 -76.27)"/><path class="cls-2" d="M1080.9,747.9h-37.6l-7.5-22.5H995l-7.1,22.5H950.5l41.4-120.4h48.4Zm-65.1-93.3-13.5,42.2h26.2Z" transform="translate(-75.84 -76.27)"/><path class="cls-2" d="M1175.9,627.5h35.2V749h-40.3l-43.3-69.3v68.2h-35.3V627.5H1133l42.8,68.4V627.5Z" transform="translate(-75.84 -76.27)"/><path class="cls-2" d="M1323.8,747.8a120.62,120.62,0,0,1-27.7,3,84.7,84.7,0,0,1-27.4-4.2,61,61,0,0,1-21.2-12,54.39,54.39,0,0,1-13.6-19.5c-3.2-7.8-4.8-16.7-4.8-26.9a73.32,73.32,0,0,1,4.6-26.9,52.27,52.27,0,0,1,13.4-19.9,59,59,0,0,1,21.3-12.4,85,85,0,0,1,28.1-4.3q6.15,0,12.6.6a109.7,109.7,0,0,1,12.8,1.9,106.82,106.82,0,0,1,12.1,3.3,58.31,58.31,0,0,1,10.4,4.6l-11.8,31.2a79.2,79.2,0,0,0-17.8-7.5,64.93,64.93,0,0,0-16.9-2.3,36,36,0,0,0-13.1,2.3,28.72,28.72,0,0,0-9.8,6.4,27.34,27.34,0,0,0-6.2,9.7,36.21,36.21,0,0,0-2.1,12.6c0,10.7,2.4,18.8,7.2,24.5s12.6,8.5,23.2,8.5a62.34,62.34,0,0,0,8.3-.6,35.89,35.89,0,0,0,7.3-1.7V706.1h-27.6V677h61.3v63A112.65,112.65,0,0,1,1323.8,747.8Z" transform="translate(-75.84 -76.27)"/><path class="cls-1" d="M1267.6,406.2c-2.1-.3-4.2-.1-6.3-.3-2.9-.2-2.9-2.2-3.1-4.2-.2-2.5,1.6-2,3.1-2.1a11,11,0,0,0,2.6-.2c2.1-.5,5.8.5,5.7-2.2-.1-2.3-3.8-2-6-2.1-6.9-.1-13.9-.2-20.9,0-2.7.1-3.3-.8-3.2-3.1.1-2.1.1-3.3,3-3.2,7.3.2,14.7.1,22-.2,1.8-.1,4.8,0,4.8-2.2-.1-2.4-3-2.3-5-2.3-7.3-.2-14.7-.4-22-.3-2.5,0-2.8-.8-2.8-2.8s.3-2.8,2.8-2.8c6.1.1,12.2.5,18.2-.3,4.9-.6,7.5-3,8.3-7.4a32.41,32.41,0,0,0,.1-11.2c-.9-5-3.9-7.9-9.4-8q-22.35-.3-44.7,0c-5.5.1-8.6,3-9.5,7.9a29.92,29.92,0,0,0-.2,9.9c.9,6.1,3.4,8.5,10,8.9,5.4.4,10.9.3,16.4.2,2.6-.1,3,.8,3.1,2.9s-.8,2.6-3,2.6c-7,0-13.9.1-20.9.3a18.65,18.65,0,0,0-4,.7,1.59,1.59,0,0,0-1.4,1.8,1.81,1.81,0,0,0,1.5,1.4,24,24,0,0,0,6.6,1c6.2,0,12.4.1,18.6-.1,2.9-.1,2.5,1.4,2.4,3s.7,3.4-2.5,3.3c-6.4-.2-12.9,0-19.4,0a20.32,20.32,0,0,0-5.5.8c-.7.2-1.4.5-1.6,1.3-.2,1,.8,1.5,1.6,1.6,1.8.4,3.6.6,5.5.9,1.6.2,3.6-.3,3.3,2.3-.3,2.2-.5,4.1-3.7,4.1-1.7,0-3.5-.3-5.1.5-1,.4-1.7,1-1.6,2s.8,1.3,1.6,1.7c6.1,2.6,12.4-.5,13.4-6.4a12.59,12.59,0,0,0,.4-2.7c.1-1.1.5-1.6,1.8-1.6h10.2c-1.9,1.9-3.5,3.1-4.6,4.5s-4,3.3-2.1,5.1c1.7,1.6,3.8-.6,5.4-1.7,5.6-3.8,5.6-3.9,10.6.2l1.2.9c1.2.9,2.7,1.6,4,.5,1.6-1.2.8-2.8-.2-4-1.5-1.7-3.2-3.3-5.3-5.4,3.7,0,6.7.1,9.7,0,1.8,0,1.5.9,1.7,2,.9,7.9,5.9,11.8,14.5,9.5a3.2,3.2,0,0,0,2.6-2.9C1270.2,406.7,1268.8,406.3,1267.6,406.2Zm-55.8-48.9a7.06,7.06,0,0,1,2.4-.6c6.1-.1,12.1-.1,18.2-.2,2.5,0,1.9,1.5,1.9,2.8s.4,2.8-2,2.8c-3.5-.1-6.9,0-10.4,0H1213c-1.1,0-2.7.6-2.9-1.2C1209.9,359.3,1210.2,358,1211.8,357.3Zm20.7,16.2c-6.1,0-12.2.4-18.2-.3a5.79,5.79,0,0,1-2.8-.9,3.74,3.74,0,0,1-1.4-4.3c.4-1.6,2-.9,3.1-.9,3.1-.1,6.2,0,9.3,0s6.5.1,9.7,0c2.4-.1,2.4,1.3,2.1,2.6S1235.8,373.5,1232.5,373.5Zm10.1-17.1c5.6.2,11.2.2,16.8.2a6.28,6.28,0,0,1,3.8,1.1,3,3,0,0,1,1,3.4c-.3,1.3-1.6.8-2.5.8H1252c-3.1,0-6.2-.1-9.3,0-2.3.1-3.2-.4-3.2-2.8C1239.6,357,1240.2,356.3,1242.6,356.4Zm-3,13.7c-.1-1.5-.7-3.3,2.3-3.1,3.3.2,6.7,0,10.1,0,3,0,6-.1,8.9,0,1.1.1,3-.9,3.3,1a3.76,3.76,0,0,1-1.9,4.4,11,11,0,0,1-5.1.9c-5.1.1-10.2-.1-15.3.1C1238.6,373.7,1239.7,371.6,1239.6,370.1Z" transform="translate(-75.84 -76.27)"/><path class="cls-1" d="M1314.8,367c4.8.1,9.6,0,14.4,0a26.23,26.23,0,0,0,7.9-.8,6.77,6.77,0,0,0,5.2-7c0-3.4-3.8-6.7-7.3-7.1-6.6-.8-8.7-.2-15.4-.2a23.36,23.36,0,0,0-2.6.4,2.63,2.63,0,0,0-1.7,2.4c0,1.1,1.1,1.4,1.9,1.7a24.87,24.87,0,0,0,4.7.4c4.4.2,6.9-.1,11.3-.1,1.6,0,3.7-.5,3.9,2.1.2,2.9-2.4,2.4-3.8,2.4-6.4.2-12.9.1-19.4.3-1.9,0-2-1-2.2-2.3-.4-3-1.1-7-4.5-6.9-9.4.2-17.8-.2-27.7.1a1.08,1.08,0,0,0-.7.3c-1.4,1-1.5,2.6.1,3.3,1,.5,2.2.3,3.4.4,5,.1,10.4.4,15.6.5a44.9,44.9,0,0,1,6.4.4,2.62,2.62,0,0,1,2.4,2.9c-.2,2-1.9,1.6-3,1.6-3.4.1-6.5-.2-9.8-.2v.1c-3.3,0-6.6-.1-9.9,0-2.3.1-5.9-.2-6,2.5-.1,3.2,3.7,2.7,6,2.8,6.3.2,12.7.1,19,.2,1.5,0,3.6-1,3.7,2.2s-1.9,2.4-3.5,2.4c-4.9,0-9.9-.1-14.8,0a51.58,51.58,0,0,0-7.9.8c-1.1.2-2.7.5-2.7,2.2s1.5,1.9,2.7,2.2a36.16,36.16,0,0,0,8.7.8c1.3,0,2.4-.2,2.5,1.8.1,2.2-1.1,2.1-2.6,2.1a30,30,0,0,0-9,.9c-1,.3-2.3.7-2.3,2.2,0,1.3,1.2,1.6,2.1,1.9a10.89,10.89,0,0,0,2.6.5c7.1,1,14.2.3,21.3.5,1.4,0,3-.5,3,2.1s-1.7,1.9-3.1,2c-7.3.2-14.7-.5-22,.6-1.6.2-3.8.3-3.7,2.4s2.2,2,3.8,2.3c4,.8,8.1.6,12.1.6,12.8,0,12.8,0,12.8,2,0,2.3,0,2.3-12.7,2.3-3.9,0-7.9.1-11.8.4-1.7.1-4.1.2-4.3,2.2-.2,2.4,2.3,2.2,3.9,2.5a36.57,36.57,0,0,0,5.7.5c5.6.1,11.2.1,16.7,0,2,0,2.6.5,2.6,2.5,0,2.2-.7,6.6,1.9,6.8,3.1.2,2.8-4.4,2.9-6.4.1-2.7,1.3-2.9,3.5-2.9,6.8,0,13.7,0,20.5-.3,1.9-.1,6,.2,5.8-2.6-.2-2.4-4-2.4-6.1-2.4-7-.2-13.9-.2-20.9-.3-1.7,0-2.5-.3-2.6-2.3s1-2.1,2.6-2.1c5.4,0,10.9.1,16.3,0a70.75,70.75,0,0,0,7.9-.9c.9-.2,2.6-.6,2.7-1.8.1-1.5-1.8-1.8-2.8-2.2a10.87,10.87,0,0,0-2.6-.4c-7.3-1-14.7-.3-22-.5-1.8,0-2.1-.7-2.1-2.2s.6-1.9,2-1.9c4.9.1,9.9.1,14.8,0a85,85,0,0,0,8.7-.7c1.4-.2,3.8-.5,3.8-2.4,0-1.6-2.2-1.9-3.5-2.2a30.2,30.2,0,0,0-7.9-.7c-1.5.1-2.6,0-2.6-2.1s1.3-1.8,2.5-1.8a34.68,34.68,0,0,0,7.9-.7c1.4-.3,3.5-.5,3.6-2.1.1-1.9-2.3-2.1-3.8-2.5-.5-.1-1-.1-1.5-.2-7.1-.9-14.2-.3-21.3-.5-1.6,0-2.9.2-2.8-2.2C1312.1,367.2,1313,367,1314.8,367Zm4.8,10.6c1.3,0,2.4-.2,2.5,1.8.1,2.2-1.2,2-2.6,2h-20c-1.3,0-2.4.2-2.4-1.8,0-1.7.6-2.1,2.2-2.1C1306,377.6,1312.8,377.6,1319.6,377.6Z" transform="translate(-75.84 -76.27)"/><path class="cls-1" d="M1337.7,448.9c.2,1.5.5,3.5,2.1,3.3,1.4-.1,1.8-2.1,1.9-3.5a140.87,140.87,0,0,0,.1-28.3c-.6-6.6-4-9.7-10.2-9.9-4.4-.2-8.8-.1-13.1,0-7.6.2-11.2,4.1-11.3,12.3q-.15,10.95,0,21.9a29,29,0,0,0,.9,5.9c.2.8.7,1.5,1.6,1.4a1.59,1.59,0,0,0,1.3-1.3c.2-1,.6-2.1.7-3.1,1.1-7.9.3-15.9.6-23.9.1-1.7-.1-3.5.6-5.2a2.43,2.43,0,0,1,3-1.7c1.6.2,1,1.6,1,2.5.1,11.1,0,22.1.1,33.2,0,1.7-.1,2.5-2.1,2.7-4.2.4-6.7,3.2-7.4,7.8a25.87,25.87,0,0,0,.1,10c1.1,4.9,2.7,6.6,7.3,7.3,5,.7,10.8.2,15.7-.1,8.5-.6,11.5-3.6,11.2-12.8-.1-1.5.2-2.9,0-4.4-.5-4.4-2.8-7.3-6.9-7.8-2.2-.3-2.3-1.3-2.2-3,.1-5.4,0-10.8,0-16.2s-.1-10.8.1-16.2c0-1.1-1-3,1.2-3.1,1.7-.1,2.3,1.1,2.7,2.7.6,2.4.4,4.8.5,7.2C1337.4,434.1,1336.6,441.5,1337.7,448.9ZM1321,475.3c-2.6,0-5.3.6-7.7-.9a2.29,2.29,0,0,1-1-2.8c1.1-2.3,3.3-.5,5-1.3,1.4,1.1,4.9-2,4.7,2.8C1322,474,1322.4,475.3,1321,475.3Zm-1-10.3c-1-.1-2,0-3.2,0-1.2-1-4.3,1.9-4.3-1.7,0-3.1,3-2.3,5-2.5a22.55,22.55,0,0,1,2.6,0c1.3-.1,2.1.2,2.1,1.9S1321.6,465.1,1320,465Zm2.1-29.6c-.2-1.7-1-4,2.3-4,3.8.1,1.7,2.9,2.4,4.5-.5,1.6,1.2,4.3-2.3,4.3C1320.6,440.3,1322.3,437.2,1322.1,435.4Zm2.4,19.8c-3.8,0-2.2-2.7-2.3-4.4s-.9-4,2.4-3.9c3.6.1,1.7,2.7,2.3,4C1326.4,452.7,1328,455.2,1324.5,455.2Zm-.1-29.7c-3.7,0-2.3-2.8-2.3-4.4s-1.5-4.4,2.3-4.4,1.8,2.8,2.4,4.4C1326.3,422.7,1328.2,425.5,1324.4,425.5Zm9.2,49.7a19,19,0,0,1-3.4.1c-1.4,0-2.9.5-2.9-2.2s1-2.9,2.9-2.7a16.15,16.15,0,0,0,2.2,0,4,4,0,0,1,1.1,0c1.2.6,3.3-1.4,3.5,1.4C1337.3,474.4,1335.3,474.9,1333.6,475.2Zm0-14.3a2.84,2.84,0,0,1,3.5,2.8c.1,1.1-.6,1.3-1.4,1.3H1332c-1.3-1-5.4,2.1-4.4-2.8C1328.3,458.9,1331.6,461.1,1333.6,460.9Z" transform="translate(-75.84 -76.27)"/><path class="cls-1" d="M1302.6,423.8c.1-1.9-1.5-2.3-2.8-2.6-3.9-1-7.9-.8-11.9-.7a62.62,62.62,0,0,0-7.5.2c-1.5.2-3.3.6-3.3,3.1.1,2.2,1.7,2.5,3.1,2.8a12,12,0,0,0,3.8.2c2.5-.3,3.3.6,3.3,3.5-.2,7.2-.1,14.3,0,21.5v1c0,7.7.2,14.7.3,22.4a17.78,17.78,0,0,0,.7,3.9c.2,1.1.7,2.1,1.9,2.1s1.7-1.1,1.9-2.1a23,23,0,0,0,.9-6.4V435.9c0-3-.5-6.2.6-8.7.5-1.2,4.1-.8,6.3-1.2C1301.1,425.8,1302.5,425.4,1302.6,423.8Z" transform="translate(-75.84 -76.27)"/><path class="cls-1" d="M1303.7,435.6c-.3-1.6-.3-3.7-2.1-3.6-1.4,0-1.6,2.1-1.9,3.5-.8,3.9-.6,7.8-.6,11.7.2,10-.7,20,.6,29.9.2,1.6.3,3.7,2.1,3.7,1.4,0,1.6-2,1.9-3.5,1.2-7,.3-14,.7-21C1304,449.3,1304.9,442.4,1303.7,435.6Z" transform="translate(-75.84 -76.27)"/><path class="cls-1" d="M1280,434.2c-.2-1.3-.5-3-2-3s-1.6,1.8-2,3a6.48,6.48,0,0,0-.2,2,328,328,0,0,0,0,38.4c.1,2.1,0,5.2,2.3,5.2s2.2-3.2,2.3-5.3c.1-6.3.1-12.7.1-19C1280.3,448.5,1281.1,441.3,1280,434.2Z" transform="translate(-75.84 -76.27)"/><path class="cls-1" d="M1272.9,411.3c-1.8.2-3.6.9-3.5,2.2s2.1,1.7,3.7,2.1c5.2,1.1,10.7.6,16.2.9,4.9-.3,10.1.2,15.2-.9,1.7-.4,3.7-.7,3.8-2.1s-1.7-2-3.5-2.2A121.67,121.67,0,0,0,1272.9,411.3Z" transform="translate(-75.84 -76.27)"/><path class="cls-1" d="M1272.9,420.8c-1.8.3-3.6,1.1-3.5,2.9s2.1,2.2,3.7,2.7c5.2,1.4,10.7.7,16.2,1.1,4.9-.4,10.1.3,15.2-1.1,1.7-.5,3.7-.9,3.8-2.7s-1.7-2.6-3.5-2.9A100.4,100.4,0,0,0,1272.9,420.8Z" transform="translate(-75.84 -76.27)"/><path class="cls-1" d="M1267.6,419.9c-3.7-.4-7.4-.5-11.1-.7-.8,0-1.9.4-1.9-1.1s1-1.2,1.9-1.2c3.1-.1,6.2-.1,9.3-.3,1.9-.1,4.8-.2,4.9-2.5.1-2.7-3-2.8-4.9-2.8-6.6-.3-13.1-.2-19.7-.2-3.7,0-7.4,0-11.1.3-1.4.1-3.6.4-3.3,2.8.2,1.9,1.9,2.2,3.4,2.4,3.8.7,7.7.4,11.5.5.8,0,2.3-.6,2.2,1.1-.1,1.3-1.3.8-2.1.9-3.6.2-7.2.3-10.7.7-1.5.1-3.6.4-3.6,2.6.1,1.9,2,1.9,3.4,2.2,3.8,1,7.6.5,11.5.6.7,0,1.6-.1,1.5,1.1-.1.9-.8.9-1.4.9h-1.9c-9,.5-12.1,3.8-12.2,13.4s-.1,19,0,28.6a27.22,27.22,0,0,0,1.1,8.5c.3.9.7,1.7,1.8,1.6a1.7,1.7,0,0,0,1.5-1.5,18.63,18.63,0,0,0,.7-3.4c.9-7,.4-14.1.5-21.1.1-5.3,0-5.3,5-5.3s4.9,0,4.9,5v7.4c0,.8.1,1.6-1,1.7-1.3.1-1.3-.8-1.3-1.7-.2-2.7-.4-5.5-.7-8.2-.2-1.2-.4-2.8-2-2.8-1.3,0-1.6,1.4-1.8,2.6a57.25,57.25,0,0,0,0,19.8c1,5.2,4.4,7.5,9.9,7.4,5.3-.1,8.5-2.4,9.5-7.4,1.4-6.6.7-13.2.5-19.9,0-1.1-.8-2.1-1.3-3.2-3.2-.6-3.3,2-3.6,4.1a67.67,67.67,0,0,0-.1,7.8c0,.9-.1,1.5-1.2,1.5s-1.2-.7-1.2-1.5V449.4c0-1.3.7-1.5,1.6-1.4,1.5.1,2.9.1,4.4.1,3.4-.9,5,.2,4.5,4.2a74.78,74.78,0,0,0-.1,8.2c.1,5.1-.4,10.2.4,15.2.2,1.4.1,3.6,2.2,3.5,1.5-.1,1.8-2,1.8-3.5a283.41,283.41,0,0,0,.1-39.1c-.4-5.9-3.4-8.5-8.8-9.2-1.3-.2-2.7-.2-4.1-.3-.8-.1-2,.4-2-1s1.2-.9,1.9-1c3.7-.1,7.4.2,11.1-.7,1.4-.4,3.3-.5,3.2-2.5C1270.7,420.4,1268.9,420,1267.6,419.9Zm-23.7,22.9c-1.6-1.3-4.8,1.4-4.8-1.7,0-2.2,3.1-1.1,4.6-.9s4.7-1.8,4.7,1.3C1248.4,443.7,1245.3,441.7,1243.9,442.8Zm-.2-7.2c-1.6-.9-4.6,1.1-4.6-1.4s3.1-1.8,4.9-1.7c1.6.1,4.5-1.5,4.5,1.2C1248.5,437.2,1245.2,434.4,1243.7,435.6Zm13.2,33.7c-.1,2.1-.1,4.1-2.5,4.5a38.46,38.46,0,0,1-4.8.1c-2.7,0-3-1.9-3.2-4.2-.2-3.1,1.9-1.8,3.2-2a16.15,16.15,0,0,1,2.2,0,16.15,16.15,0,0,1,2.2,0C1255.1,467.8,1256.9,466.6,1256.9,469.3Zm8-28.1c.1,1.5-.9,1.3-1.7,1.3h-4c-1.3-.9-4.4,1.7-4.5-1.4,0-2.3,3-.7,4.6-1.1a15.27,15.27,0,0,1,3.7,0C1263.8,440.1,1264.8,439.8,1264.9,441.2Zm-5.7-8.8h.4c1.9.2,5.2-.4,5.2,2s-3.3.2-4.5,1h-.9c-1.6-.6-4.7,1.5-4.6-1.6C1254.7,430.9,1257.6,433,1259.2,432.4Z" transform="translate(-75.84 -76.27)"/><path class="cls-1" d="M1229.9,434.8c-1.7-.3-3.5-.9-5.1-.7-3.3.4-3.8-1.1-3.7-4.2.2-5.1.1-10.2-.2-15.2-.1-1.8-.2-4.7-2.4-4.7s-2.4,3-2.5,5c-.2,5.5-.4,10.9-.3,16.4,0,2.1-.6,2.8-2.5,2.6a16.75,16.75,0,0,0-6.6.9c-.8.2-1.7.6-1.7,1.8s1,1.5,1.8,1.7a29.94,29.94,0,0,0,6.6.9c2,0,2.5.8,2.4,2.8-.1,5,0,9.9,0,14.9h.1c0,4.2-.1,8.4,0,12.5.1,2.5,0,5,1,7.3.4.9.8,1.7,1.8,1.8s1.5-.9,1.8-1.7a21.05,21.05,0,0,0,1-6.1c0-9.5.1-19,0-28.6,0-1.9.3-2.8,2.4-2.8a31.89,31.89,0,0,0,6.2-.8c.9-.2,2.2-.7,2.2-1.8A2.55,2.55,0,0,0,1229.9,434.8Z" transform="translate(-75.84 -76.27)"/><path class="cls-1" d="M1228.2,442.9c-1.3,0-1.7,1.6-1.9,2.9-1.1,4.9-.5,9.9-.7,14.8.2,4.8-.4,9.6.7,14.4.3,1.4.4,4,2,3.9,1.3-.1,1.8-2.5,1.9-3.9a135.73,135.73,0,0,0,0-29.2C1230,444.5,1229.5,442.9,1228.2,442.9Z" transform="translate(-75.84 -76.27)"/><path class="cls-1" d="M1210.8,459.3c0-4.7.1-9.4-.1-14-.1-1.5-.3-4-2.3-3.8-1.5.1-1.8,2.3-1.9,3.8a149.68,149.68,0,0,0,0,27.6c.2,1.5.4,3.7,1.9,3.8,2.1.1,2.3-2.3,2.4-3.8.2-4.5,0-9.1,0-13.6Z" transform="translate(-75.84 -76.27)"/><path class="cls-1" d="M1226.4,428.9c.2.8.5,1.8,1.6,2,1.3.2,1.7-1,1.9-1.9a40.59,40.59,0,0,0,0-17c-.2-1-.5-3-1.7-2.8-.9.1-1.6,1.9-1.8,2.8a27.71,27.71,0,0,0-.8,8.7A29.26,29.26,0,0,0,1226.4,428.9Z" transform="translate(-75.84 -76.27)"/><path class="cls-1" d="M1208.4,430.2c1.2,0,1.5-1.1,1.8-2.1.9-2.6.4-5.4.7-8.1-.3-2.6-.2-5-.7-7.7-.2-1.2-1-3.6-2.3-3.5-1.1.1-1.6.2-1.8,1.2a52.38,52.38,0,0,0,.4,18.1C1206.8,429.1,1207.1,430.3,1208.4,430.2Z" transform="translate(-75.84 -76.27)"/><path class="cls-1" d="M1204.8,415.5h2.1V362.2a8.63,8.63,0,0,1,2.8-6.4,10.2,10.2,0,0,1,7-2.6h113.9a10.37,10.37,0,0,1,6.9,2.5,8.87,8.87,0,0,1,2.9,6.2h0V468.3a9.38,9.38,0,0,1-1.9,5.8,9.7,9.7,0,0,1-5.1,3.3,12.2,12.2,0,0,1-3.4.4H1216.3a9.74,9.74,0,0,1-6.6-2.6,8.37,8.37,0,0,1-2.7-6V415.6h-4.3v53.6a12.5,12.5,0,0,0,4.1,9.1,13.66,13.66,0,0,0,9.4,3.7h113.7a17.74,17.74,0,0,0,4.5-.5,13.92,13.92,0,0,0,7.4-4.8,13.32,13.32,0,0,0,2.7-8.3V361.8h0a13,13,0,0,0-4.2-9.2,14.16,14.16,0,0,0-9.7-3.6H1216.7a14.1,14.1,0,0,0-9.8,3.8,13,13,0,0,0-4.1,9.4v53.3Z" transform="translate(-75.84 -76.27)"/><path class="cls-3" d="M1294.4,279.5a.32.32,0,0,0-.3-.3,11.5,11.5,0,0,1-2.1-1.3.37.37,0,0,0-.3-.1h-.1l-1.2-.8a2.05,2.05,0,0,1-1.2-.5,11.52,11.52,0,0,0-2.1-.6c-.2-.2-.6-.5-1.2-1a.78.78,0,0,1-.4-.4.1.1,0,0,1,.1-.1l.1-.2c.1-.2,0-.3-.1-.5a.76.76,0,0,0-.4-.2h-.5c-.1-.1-.2-.2-.3-.2l-.5-.1V273a.47.47,0,0,0-.5-.5c-.5,0-.7,0-.8-.1s-.3-.1-.5-.2a2.19,2.19,0,0,0-.5-.3v-.1a.55.55,0,0,0-.3-.5,2.59,2.59,0,0,1-1.1-.7,4.79,4.79,0,0,0-1.1-.8.35.35,0,0,1-.2-.1,9,9,0,0,0-1.9-.8,9.74,9.74,0,0,0-1.1-.5.71.71,0,0,0-.3-.6,7.7,7.7,0,0,1-1.3-.9,6.78,6.78,0,0,0-.9-.6v-.2l-.1-.4a.49.49,0,0,0-.6-.3h-.2l-.1-.3h0V265a.52.52,0,0,0-.2-.4l-.2-.1h.3a.43.43,0,0,0,.4-.4h.1l.1.1a.44.44,0,0,0,.5.1l1.4-.5c.1,0,.2-.1.3-.2v.1l.1.1a.57.57,0,0,0,.7.2l.7-.3.3-.3v-.2h.1l1.1-.3c.2,0,.3-.2.4-.4v-.2c.3-.2.9-.5,1.9-1a11.05,11.05,0,0,1,1.3-.7,3.39,3.39,0,0,0,1.4-1.1l1.5-.7a.55.55,0,0,0,.3-.5c0-.2-.1-.4-.3-.4l.2-1.1c.1-.2-.1-.4-.2-.6a5.19,5.19,0,0,1-.9-.8,3.76,3.76,0,0,0-1.6-.9c-.5-.3-1.5-1-2.9-2a.37.37,0,0,0-.3-.1h-.6a.37.37,0,0,0-.3.1l-.6.4a.37.37,0,0,0-.2.5l-.4.2c0-.1.1-.1.1-.2l.3-1.2c0-.2,0-.4-.2-.5l-.1-.1h0a.6.6,0,0,0-.1-.4h.1a1,1,0,0,0,.3-.1l.2-.2a.52.52,0,0,0,.2-.4v-.2c0-.2-.1-.4-.3-.4l.6-.2c.1,0,.1-.1.2-.1l.4-.5a.6.6,0,0,0,.1-.4,5.68,5.68,0,0,1,.6-2.1,6.23,6.23,0,0,1,1.2-1.9c.1-.1.1-.2.2-.3a1.68,1.68,0,0,0,1.1-.6,9,9,0,0,0,1-.9l1.5-.3c.1,0,.2-.1.3-.2a5.76,5.76,0,0,1,.5-.4,6.53,6.53,0,0,0,.8-.7.6.6,0,0,0,.1-.4v-.4l-.3-1c0-.1-.1-.1-.1-.2a3.77,3.77,0,0,0-2.1-1.5,5.92,5.92,0,0,0-.6-.4c-.3-.2-.7-.4-1-.6a3.15,3.15,0,0,0-1.8-.8,7.26,7.26,0,0,1-2.6-1.3.76.76,0,0,0-.4-.2,6.66,6.66,0,0,0-1.2-.6h-.2l-.7.1h-.3c-.2,0-.4-.1-.6-.1s-.2-.1-.2-.2l.2-.2a.6.6,0,0,0,.1-.4l-.1-.4c0-.1.1-.2.1-.3a1.7,1.7,0,0,0,.1-.7c0-.4-.2-1-1.3-2.4a15.06,15.06,0,0,0-1.8-1.8c0-.1-.1-.2-.2-.3l-1.4-1.3a.44.44,0,0,0-.5-.1l-1-.4h-.4c-.1,0-.2,0-.2.1l-.4.2-.9.2c-.1,0-.2.1-.3.2a6.26,6.26,0,0,1-3.1,1.2h-.1a.47.47,0,0,0-.6.1,3.13,3.13,0,0,1-.7.2,7.08,7.08,0,0,1-1.4.1h-.4c-.1,0-.2-.1-.3,0h-.1l-.5-.2h-.3l-.1-.1a.6.6,0,0,0-.4-.1,7.14,7.14,0,0,0-1.6.4,6,6,0,0,0-1.3,1.2.44.44,0,0,0-.1.5,1.09,1.09,0,0,1,.1.5,1.48,1.48,0,0,1-.1.7v.3l.1.2-.1.2a.75.75,0,0,0,.1.5l.9.9c.1.1.1.1.2.1l1,.3a2.36,2.36,0,0,0,.9.6l-.3.2a9.14,9.14,0,0,1-1.7,1.2.54.54,0,0,0-.3.4v.1a.52.52,0,0,0,.2.4.45.45,0,0,0,.5,0l.8-.4h.4a3.81,3.81,0,0,1,1.6-.3h.1c.1.1.2.2.3.2l.4.1c.1.1.3,0,.4,0a5.66,5.66,0,0,1,2.4-.6,3.75,3.75,0,0,1,1.1.1c.2,0,.2,0,.3-.1h.4l.5.1h.2l.7-.1.4.1h.3l1-.3.2.1a.31.31,0,0,1-.2.1c-.1,0-.2,0-.2.1a4.24,4.24,0,0,1-2.2.8h-.2c-1.2.4-2.7,1-4.7,1.7a15.56,15.56,0,0,1-3.5,1h-.2l-2.5.9h-.1a.9.9,0,0,0-.5.1l-.1.1a8.34,8.34,0,0,0-1.2.4h0a.62.62,0,0,0-1.1.1l-.8.3h-.5l-.1-.1-.9-.4c-.1,0-.1-.1-.2-.1h-.5a.76.76,0,0,0-.4.2,2.06,2.06,0,0,0-.7,1.4v.6l-.1.2a.1.1,0,0,1-.1.1v.1l-.7.9a.76.76,0,0,0-.5.2l-.4.6a.64.64,0,0,0,0,.6l.5.6c0,.1,0,.1.1.2a6.89,6.89,0,0,1,.3.8c.1.3.1.6.2.7a3.73,3.73,0,0,0,.2,1.2v.3l.1.2v.1c-.1.1-.2.2-.2.3l-.2.8-.2.2c-.1.1-.2.3-.1.4l.1,1c0,.1,0,.1.1.2s0,.3.1.4a6.74,6.74,0,0,1,1,1.9v.3l.2,1.3-.1.3v.5a9.89,9.89,0,0,1,.1,1.5,5.9,5.9,0,0,1-.2,1.4v.4c-.1,1.1-.1,2-.1,2.7v.2h0l-.1.3v.2l.1.5a26.55,26.55,0,0,0-.8,2.7v.5c-.2.4-.4.8-.7,1.3,0,.1-.1.2,0,.3a7.56,7.56,0,0,0-.8,2c-.5.8-1.2,1.9-2,3.3s-1.4,2.4-1.8,3.1c-.1,0-.1.1-.2.1l-.4.6a.75.75,0,0,0-.1.5v.3l-.1.2a.6.6,0,0,0,.1.4l.1.1-.1.2a.62.62,0,0,0,.1.7l1.4,1.2c1.3,1.1,2.2,1.9,2.9,2.4l.2.5c.1.1.1.2.3.3s.8.3,1.5.5h.5c.2,0,.4-.1.4-.3h.3a.47.47,0,0,0,.5-.5v-.2l.5-.2c.2-.1.3-.2.3-.4.2-.7.5-.7.6-.7a.47.47,0,0,0,.5-.5l1.6-1.2a9.26,9.26,0,0,1,1.9-1.2.46.46,0,0,0,.3-.5.66.66,0,0,0,.4-.5v-.2a4.06,4.06,0,0,1,.9-1l1.5-1.2a22.58,22.58,0,0,0,1.8-1.5h0c.2.1.5-.1.6-.3l.2-.6a1.39,1.39,0,0,0,1.2-1,1.54,1.54,0,0,0,.7-.7,2.57,2.57,0,0,0,1.7-1l.4.3.1.4v.1a.48.48,0,0,0,.2.6l.6.4v.6a.47.47,0,0,0,.5.5h.2c.1.1.1.2.3.3l.3.1v.2a.52.52,0,0,0,.2.4.37.37,0,0,0,.3.1.1.1,0,0,0,.1.1l.2.2v.2a6.37,6.37,0,0,0,1,1.8c.1.1.2.4.5.8a3.7,3.7,0,0,1,.5,1.1.35.35,0,0,0,.1.2c.7.8.9,1.1,1,1.2.1.6.8,1.1,1.5,1.4a.45.45,0,0,0,.5,0l.1-.1.9.6a.37.37,0,0,0,.3.1h.2a.52.52,0,0,0,.4-.2l.2-.2.3.2a.45.45,0,0,0,.5,0l.9-.4c.2-.1.3-.2.3-.4l.2-.8h1.3a.3.3,0,0,0,.4,0h.4a2.48,2.48,0,0,0,1.7,0,4.33,4.33,0,0,0,.5-.1l.4.1h.2a9.74,9.74,0,0,1,1.6.1h2.6l.3.1h.3l.1.1a.35.35,0,0,1,.2.1,17.36,17.36,0,0,1,1.8.1c1.2.1,1.6.2,1.7.2h1.9a4.27,4.27,0,0,0,.9.2h.1l1.1-.1a.52.52,0,0,0,.4-.2h.2c.2,0,.3,0,.4-.1l.1-.1.2.1h.4l.1-.1c.1,0,.1-.1.2-.1h.3c.2,0,.3,0,.4-.1a.52.52,0,0,0,.2-.4v-.1a.76.76,0,0,0-.2-.5A12.2,12.2,0,0,1,1294.4,279.5ZM1261,269c-.1,0-.1.1-.2.1h0c-.2-.1-.4-.1-.5.1a2.47,2.47,0,0,1-1.6.7.52.52,0,0,0-.4.2c-.1.1-.1.1-.1.2a.1.1,0,0,0-.1.1,5.55,5.55,0,0,1-1.7,1.1,6.87,6.87,0,0,1-1.3.6h-.4l-.2.1a.48.48,0,0,0-.6.2,1.21,1.21,0,0,1-.5.5c-.1.1-.2.2-.3.2h-.2a.62.62,0,0,0-.6.4.1.1,0,0,1-.1.1,3.39,3.39,0,0,1-.8.3c-.1,0-.1,0-.2.1a.31.31,0,0,0-.2-.1l-.1-.1h0c.2,0,.3-.2.4-.4a.22.22,0,0,0,.2-.2l.1-.2a.37.37,0,0,0,.1-.3.56.56,0,0,0,.9,0l.2-.3a.37.37,0,0,0,.1-.3l.1-.1.1-.2a.37.37,0,0,0,.1-.3v-.2h0a.48.48,0,0,0,.2-.6l-.1-.4c0-.1-.1-.1-.1-.2l.1-.3c0-.2,0-.4-.2-.5.2-.1.2-.3.2-.5s-.1-.4-.3-.4h0l.1-.1c.1,0,.1-.1.1-.2s.2-.1.3-.2l.4-.5a.75.75,0,0,0,.1-.5v-.1c.1-.2,0-.4,0-.5-.1-.3-.3-.5-.4-.5h0c.1,0,.1-.1.2-.2a.45.45,0,0,0,0-.5h0c0-.1-.1-.2-.1-.3l-.1-.1a.64.64,0,0,0,0-.6v-.3l.2-.4a.35.35,0,0,1,.1-.2l3.9,2.7a21.65,21.65,0,0,1,2.2,1.5,1.58,1.58,0,0,0,.7.7,1.38,1.38,0,0,1,.4.3l.2.4Zm-5.2-16.3a24,24,0,0,1,5-2.3c.1,0,.1-.1.2-.1l.3-.4a2.54,2.54,0,0,0,.7-.2,1.93,1.93,0,0,0,.9-.5h.4l.4-.1a.1.1,0,0,1,.1.1.37.37,0,0,0,.3.1,12.74,12.74,0,0,1-1.9,1.3c-1.4.8-3.2,1.7-5.4,2.8l-1,.5v-.1a.37.37,0,0,0-.1-.3c0-.2.1-.4.1-.6Zm10.3-2.1-.2.5c-.1.1-.3.1-.8.2a2.25,2.25,0,0,0-1.2.5c-.1.1-.2.1-.2.2a1.28,1.28,0,0,1-.7.5c-.5.2-1,.3-1.7.5h-.3l1.4-.7C1263.9,251.7,1265.1,251.1,1266.1,250.6Zm-1.2-2Zm4.8,11.6-1.4,1.1-.9.4a.22.22,0,0,0-.2.2l-.5.2-1.5-1.1c-.8-.6-1.7-1.2-2.6-1.8-.6-.4-1.2-.7-1.7-1a8.11,8.11,0,0,1,1.1-.3c.7-.2,1.3-.3,1.8-.4h0v.2l.2.6h0a.44.44,0,0,0,.1.5l.1.2a.76.76,0,0,0,.1.4l.6,1.1a.55.55,0,0,0,.5.3,3,3,0,0,0,1.4-.5h.2c.5-.1,1-.2,1.4-.3v.1a.55.55,0,0,0,.5.3h.5c.1-.1.2-.1.3-.2s.2-.2.2-.2Zm.4-20.2a4.4,4.4,0,0,0-.2,1,1.27,1.27,0,0,0,.1.6l-.3.6a.37.37,0,0,0-.1.3l-.3.3-1.5-.1c-.6,0-2,.1-6.8,1.8q-4.35,1.5-5.4,1.8l-.8-.5c-.1,0-.1-.1-.2-.1a1.33,1.33,0,0,1-.7-.3,25.41,25.41,0,0,1,4.7-1.8c.3-.1,1-.4,2.1-.7a18.49,18.49,0,0,0,2.3-.9h.1a11.67,11.67,0,0,0,3.6-1.1,13.26,13.26,0,0,1,2.4-.8c.3,0,.7-.1,1-.1Zm15,34h0l-.1-.3a.45.45,0,0,1,.3.3Z" transform="translate(-75.84 -76.27)"/><rect class="cls-3" x="1240.57" y="203.97" width="11.4" height="2" transform="translate(506.1 1202.88) rotate(-67.6)"/><path class="cls-3" d="M1300.1,164.9l-.5-.2a.35.35,0,0,1-.2-.1,1,1,0,0,0-.4-.5,2.19,2.19,0,0,0-.3-.5.31.31,0,0,0-.2-.1,3.92,3.92,0,0,0-.8-1,12.48,12.48,0,0,0-1.9-1.5,11.76,11.76,0,0,1-1.5-1.1,6.47,6.47,0,0,1-.8-.9.68.68,0,0,0-.6-.4,1.58,1.58,0,0,0-.4-.1.76.76,0,0,0-.6-.8,4.57,4.57,0,0,1-.6-.4c-.3-.3-.6-.5-.8-.7s-.2-.1-.3-.2a4.35,4.35,0,0,0-.6-.7.84.84,0,0,0-.7-.2l-.1-.2c-.1-.1-.1-.2-.2-.2v-.3a1,1,0,0,0-.7-.9l-.3-.1a.78.78,0,0,0-.4-.4l-.6-.3h0c0-.1,0-.1-.1-.1a.81.81,0,0,0-.4-.9h-.1V152a1.14,1.14,0,0,0-.3-.6,1.42,1.42,0,0,0-.6-.2h0a.82.82,0,0,0-.6-.4l-.1-.2a1,1,0,0,0-.6-.5.76.76,0,0,0-.6-.8v-.1c-.1-.3-.4-.4-.7-.5-.1-.1-.2-.2-.2-.3s-.1-.1-.1-.2c.2,0,.3-.1.5-.1h.3a.75.75,0,0,0,.5.1h.9a4.87,4.87,0,0,0,1.2-.1,3.18,3.18,0,0,0,.9-.3.91.91,0,0,0,.7-.3l.4-.5a2.1,2.1,0,0,0,1.1-.8l.5-.5a1,1,0,0,0,.4-.7v-.1a.8.8,0,0,0,.3-1.1h0l.1-.1c0-.1.1-.1.1-.2a1.38,1.38,0,0,0,.3-.4l.1-.2a2.09,2.09,0,0,0,.6-.4l.8-1.6a7.84,7.84,0,0,1,1.1-1.8c.1-.1.1-.2.2-.3l.2-.1a.89.89,0,0,0,.5-.8l.4-.5a1.42,1.42,0,0,0,.2-.6,3.77,3.77,0,0,0-1.4-2.9l-.6-.3-.2-.3c-.1-.1-.2-.2-.3-.2a8.46,8.46,0,0,1-2.6-1.5h.1l.3-.1a.64.64,0,0,0,.6,0l.6-.2h.1a1,1,0,0,0,.9-.3,16.87,16.87,0,0,0,2.1-3,.88.88,0,0,0,.1-.7l-.1-.2c-.1-.1-.1-.3-.2-.3-.2-.2-.3-.4-.5-.6l-.1-.1v-.2a1.6,1.6,0,0,0-1.4-1.8,2.62,2.62,0,0,0-.9-.5,2.66,2.66,0,0,0-1.2-.3h-.2l-1.3-.1a1.42,1.42,0,0,0-.6.2l-1.3.3c-.6.2-1,.3-1.2.4a13,13,0,0,1-1.9.6,5.31,5.31,0,0,1-.1-1.4.91.91,0,0,0-.3-.7v-.2l-.1-.4c0-.1-.1-.2-.2-.3a3.63,3.63,0,0,0-.9-.8l-.2-.6a1.21,1.21,0,0,0-.5-.5l-.8-.4a.37.37,0,0,0-.3-.1,3,3,0,0,0-1.6.2h0a.81.81,0,0,0-.8-.4h-.2a.91.91,0,0,0-.7.3l-.4.6a.37.37,0,0,0-.1.3c-.1.4-.2.4-.2.5a.86.86,0,0,0-.6.7l-.4.5a.73.73,0,0,0-.2.6v.3a.76.76,0,0,0-.2.4v.4a.85.85,0,0,0,0,.7l.1.2v.3a1.08,1.08,0,0,0,.3.7l.1.1.3.3a2.61,2.61,0,0,1,.3.8,10,10,0,0,1-2.5,1,15.65,15.65,0,0,1-2.7.5,1.27,1.27,0,0,0-.6-.1h-.1a.37.37,0,0,0-.3-.1h-.4c-.1-.1-.2-.1-.3-.2.1-.1.3-.3.3-.4s.1-.2.1-.4a2.41,2.41,0,0,0-.3-1.6,1.89,1.89,0,0,0-1-1,1.38,1.38,0,0,1-.3-.4l.2-.2a1,1,0,0,0,.2-.6v-.2a1,1,0,0,0-.3-.9,6.74,6.74,0,0,0-3.8-1.7h-.9a.76.76,0,0,0-.5.2.77.77,0,0,0-.3.1,4.33,4.33,0,0,0-.5.1.64.64,0,0,0-.6,0h-.2a.87.87,0,0,0-.9.4,2,2,0,0,1-.8.8c-.2.2-.4.3-.6.5a.73.73,0,0,0-.6.2h-.1a.35.35,0,0,0-.2.1,18.74,18.74,0,0,1-3.3,1.4,15.93,15.93,0,0,1-2.3.8.81.81,0,0,0-.8-.4,5.39,5.39,0,0,0-3,.6,1,1,0,0,0-.4.7v.8a5.86,5.86,0,0,0-1.3,1.7,3.62,3.62,0,0,0-.5,2.4.88.88,0,0,0,.1.7v.1a.37.37,0,0,0,.1.3,4.05,4.05,0,0,0,0,1.1c-.1,0-.2.1-.3.2a1.14,1.14,0,0,0-.3.8,6.09,6.09,0,0,0,.3,1.7c0,.1.1.2.2.3.5.6.7.9.7,1a2,2,0,0,1,.2,1.1l.1.6c-.1.1-.2.2-.2.3a.75.75,0,0,0,0,.9l.2.3c0,.1.1.1.1.2l.3,1.9c0,.1,0,.1-.1.2v.5l-.1.3v.9a2,2,0,0,1-.1.8.64.64,0,0,0,0,.6l-.1.5v.3a1.09,1.09,0,0,0-.1.5v.1a8.17,8.17,0,0,1-.1,1.4,10.9,10.9,0,0,0-.1,1.7v.7a.82.82,0,0,0-.1.7l.1.4v.3a.9.9,0,0,0-.1.5l-.2.5a.85.85,0,0,0,0,.7h0v.1a5.16,5.16,0,0,0-.2,1.1v.1a6.37,6.37,0,0,0-.2.9,3.44,3.44,0,0,0-.1,1.4l-.1.2a1.42,1.42,0,0,0-.2.6v.2c-.1.1-.2.3-.3.4a5.92,5.92,0,0,1-.4.6.37.37,0,0,0-.1.3,2.15,2.15,0,0,0-.6,1.3.84.84,0,0,0,.2.7,1.27,1.27,0,0,0,.6.4.6.6,0,0,0,.4.1,5.5,5.5,0,0,0,.7.9,3.28,3.28,0,0,1,.6.8,6.36,6.36,0,0,1,.3.9,10.72,10.72,0,0,0,.6,1.7,2.09,2.09,0,0,0,1.6,1.1.86.86,0,0,0,.6-.3l.4-.2c.1-.1.2-.1.3-.2h.2a1.21,1.21,0,0,0,.5-.5l.1-.1a2.45,2.45,0,0,0,1.1-1.6l.1-.1h.2a1,1,0,0,0,.6-.5l.2-.4a.64.64,0,0,0,0-.6l.1-.1c0-.1.1-.1.1-.2a1,1,0,0,0,.2-.9l-.1-.3a11.14,11.14,0,0,0-.2-1.7,1.85,1.85,0,0,1-.2-.7v-.1a1.27,1.27,0,0,0,.1-.6,3.75,3.75,0,0,1-.1-.8,2.81,2.81,0,0,1,.1-.5v-1a.9.9,0,0,0,.1-.5v-.1l.2-.4a.75.75,0,0,0-.1-.8v-.1a.75.75,0,0,0,0-.9V153l.2-.3c.1-.2.2-.3.2-.5V152a1.42,1.42,0,0,0-.2-.6,6.88,6.88,0,0,0,.2-1.3.9.9,0,0,0-.1-.5c.1-.1.1-.3.2-.5a8.33,8.33,0,0,0,.4-1.5.75.75,0,0,0-.1-.5h0a1.48,1.48,0,0,0,.1-.7.76.76,0,0,0-.1-.9v-.1a.75.75,0,0,0-.1-.5v-.6c0-.2,0-.3-.1-.4v-.3c.1.1.2.3.3.4l.5.4a.76.76,0,0,0,.5.2l.1.1a1,1,0,0,0,.5.4l.3.3.3.3a.75.75,0,0,0,.1.5l.2.4a3.22,3.22,0,0,1-.1.8.86.86,0,0,0,.3.9l.5.4a1.08,1.08,0,0,0,.8.2h0a.89.89,0,0,0,.8.5,2,2,0,0,0,.8-.1,2.18,2.18,0,0,0,.8-.5.1.1,0,0,1,.1-.1l.2-.1a1.27,1.27,0,0,0,.6.1h.1a.66.66,0,0,0,.6-.1h.5l1.2-.4a1,1,0,0,0,.5-.4c.1-.2.3-.5.4-.7s.3-.5.4-.7.1-.2.1-.4l.1-.8V145c.1-.1.2-.4.4-.7a3.38,3.38,0,0,0,.6-1.2l.2.4c.1.2.2.6.5,1.2l.1.1a9.83,9.83,0,0,1,.5,1.6v.9a2,2,0,0,0,.5,1.4,4.12,4.12,0,0,0,1,1.3c.1.2.1.4.2.6s.2.3.2.4a.84.84,0,0,0,.8.6c-.6.6-1.2,1.3-1.8,1.8-1.1.9-2.5,2.1-4.1,3.3a14.94,14.94,0,0,0-1.9,1.5,19,19,0,0,0-2,1.8,6.38,6.38,0,0,1-1.6,1,14,14,0,0,0-2.2,1.4l-.7.3a.88.88,0,0,0-.5,1,.85.85,0,0,0,.8.7.76.76,0,0,0,.8,0l.5-.2a.8.8,0,0,0,.8-.1,10.74,10.74,0,0,1,1.5-.7,11.82,11.82,0,0,1,1.3-.6c.9-.4,1.7-.8,2.3-1h.1a.62.62,0,0,0,.7-.2,3.13,3.13,0,0,1,.7-.2,3.39,3.39,0,0,0,.8-.3h.1c0,.1-.1.2-.1.3v.2a1.42,1.42,0,0,0,.2.6,4.43,4.43,0,0,0,1.2,1c.8.5.9.7.9.8a.84.84,0,0,0,.7.4,9,9,0,0,0,1,1.1,7,7,0,0,1,1.3,1.6v.1a2,2,0,0,0,.2.8,1.58,1.58,0,0,1,.1.4,1.88,1.88,0,0,0,.3,1.5,1.58,1.58,0,0,0,.8.5l.2.1c0,.9.3,1.4.7,1.6h0a.35.35,0,0,1-.2-.1h-.4a.37.37,0,0,0-.3.1,4.35,4.35,0,0,0-.7.6h-.2a.73.73,0,0,0-.7.6,9.48,9.48,0,0,0-1.3,1.1.44.44,0,0,0-.1.5c0,.2.1.4.1.6v.5c-.1.1-.1.1-.1.2v.2l-.1.1c-.2,0-.3,0-.4.1l-.1.1c-.2.1-.2.4-.1.6l.1.1a.54.54,0,0,0,.4.3,1.45,1.45,0,0,0,.7-.2l.2.1c.1,0,.2.1.3.1l.4.3v.4c0,.1.1.2.1.3h0v.1c-.1.1-.1.2-.1.4v.1l-.3.3a.76.76,0,0,1-.4.2c-.1,0-.2,0-.2.1-.2.1-.2.2-.3.3a.1.1,0,0,0-.1.1l-.4.4a.76.76,0,0,0-.4.2l-.1.1-.1.1a.3.3,0,0,0,0,.4h0a.66.66,0,0,0-.6.1l-.6.6c-.1,0-.1,0-.2.1-.9.4-1.5.9-1.6,1.3l-.2.1c-.2,0-.4,0-.5.2l-.3.4a.37.37,0,0,0-.1.3l-.2.1-.1.1h-.2a.52.52,0,0,0-.4.2.37.37,0,0,0-.1.3l-.1.1c-.1.1-.1.1-.1.2a.52.52,0,0,0-.2.4v.2l-.1.1-1.2,1.4a.76.76,0,0,0-.4.2.52.52,0,0,0-.2.4v.4a3.39,3.39,0,0,0-.6,1.5v.1l.1,1v.2c-.4.5-.7,1-.5,1.4v.1l-.9.7a6,6,0,0,0-.8.8l-.3,1.4-.1-.1a.6.6,0,0,0-.4-.1.62.62,0,0,0-.6.7v.1h-.3c-.1.1-.2.1-.3.3h-.1a.47.47,0,0,0-.5.5h0c-.2.1-.3.2-.3.4l-.1.1a.37.37,0,0,0-.2.5l-.7.8-.1.1h-.1a.43.43,0,0,0-.4.4c-.1,0-.1.1-.2.2l-.4.3c-.1.1-.1.1-.1.2s-.1.1-.2.1l-.3.4a.37.37,0,0,0-.1.3l-.1.3a.1.1,0,0,0-.1.1l-.7.7a5.72,5.72,0,0,1-.7.8c-.1.1-.1.1-.1.2h0a6.73,6.73,0,0,0-1.4,1.5c-.1,0-.2.1-.3.1l-1.4,1.4.6-1.3.9-1.3c.2,0,.4,0,.5-.2l.4-.6a.37.37,0,0,0,.1-.3l.1-.1c.1-.2.3-.4.4-.6s.2-.3.3-.3.1-.1.2-.1l.1-.1h0a.75.75,0,0,0,.7-.5l.1-.1a5.85,5.85,0,0,0,.2-1.3.52.52,0,0,0,.2-.4c.2-.1.4-.3.6-.4s.7-.4,1-.6.7-.5,1.2-.9a15.38,15.38,0,0,0,1.3-1.2c.5-.2.8-.9,1-2.4a.6.6,0,0,0-.1-.4l-.8-1a.76.76,0,0,0-.4-.2.37.37,0,0,0-.3-.1,4.33,4.33,0,0,1-.5-.1,1.24,1.24,0,0,1-.3-.2c-.1-.1-.2-.1-.4-.1h-.1v-.1a.52.52,0,0,0-.4-.2h-.1a1.42,1.42,0,0,0-.6.2h-.4a4.72,4.72,0,0,0-1.8,1.2,3.08,3.08,0,0,0-1-.1,10.59,10.59,0,0,1,1.2-1l.4.1h.2a3.08,3.08,0,0,0,1.2-.5,5.9,5.9,0,0,1,.8-.4l.2.1a.19.19,0,0,0,.3,0l.4-.1a.35.35,0,0,0,.2-.1,3.46,3.46,0,0,1,1.2-.7,7.87,7.87,0,0,1,1.2-.4c.1,0,.1-.1.2-.1a5.35,5.35,0,0,1,1.7-1.2.45.45,0,0,0,.3-.6v-.1c0-.1.1-.1.2-.3a1.82,1.82,0,0,0,.5-1.1v-.1l-.1-.5c0-.1-.1-.2-.2-.3a5.72,5.72,0,0,1-.7-.8c-.1-.1-.1-.2-.2-.3a.31.31,0,0,0,.1-.2l.1-.8a2.11,2.11,0,0,0-.6-1.6c-.1-.1-.1-.1-.2-.1l-2.6-.7h-.3a7.09,7.09,0,0,0-2.1.8,1.55,1.55,0,0,0-1.2.7,6.72,6.72,0,0,0-1.2.6c-.5.2-1,.3-1.4.5l-.9.3h-.2l-.4.1a.37.37,0,0,0-.3-.1h-1.1l-.7.2a.44.44,0,0,0-.5.1l-.2.2-.1.1-.4.9a.3.3,0,0,0,0,.4l-.1.3-.6.9a.37.37,0,0,0-.1.3v.7l-.1.4v.1l.1.4c0,.1.1.2.2.3s.2.3.3.4a3,3,0,0,0,.4.8,6.29,6.29,0,0,0,1.1.8c.1,0,.1.1.2.1.5,0,1.3-.1,4.1-1.8.9-.6,1.6-1,2-1.3a2.19,2.19,0,0,1-.3.5,17.54,17.54,0,0,1-1.8,1.5,8.24,8.24,0,0,0-1.7,1.4.37.37,0,0,0-.1.3l-.2.3h0a.76.76,0,0,0-.4.2c-.1,0-.1.1-.2.2l-.2.4a.37.37,0,0,0-.1.3v.1h-.1c-.1.1-.2.1-.2.3a10.63,10.63,0,0,0-1.1.9.35.35,0,0,0-.2.1,15.41,15.41,0,0,0-1.3,1.4.37.37,0,0,0-.1.3v.2c-.6.6-.9.8-1,.8s-.2.3-.2.5a.37.37,0,0,0,.1.3h0l-.1.2a.3.3,0,0,0,0,.4h0a.6.6,0,0,0,.1.4c.1.1.2.2.3.2s.1.1.1.3a4,4,0,0,0,.4,1.3,2,2,0,0,0,1,1,.3.3,0,0,0,.4,0l1.7-.7a3.09,3.09,0,0,0,.8-.2c0,.1,0,.1.1.2a.1.1,0,0,1-.1.1c-.1,0-.2.1-.3.2l-.3.4c-.1.1-.2.3-.1.4s-2.6,4.6-2.6,4.7l-.2.1a.22.22,0,0,0-.2.2l-.1.1c0,.1-.1.2-.1.3l-.1.1-.1.2a.37.37,0,0,0-.1.3v.3l-.2.3v.1l-.2.1a.76.76,0,0,0-.2.5h0a.19.19,0,0,0-.3,0l-.6.1h-.1a.44.44,0,0,0-.5.1,3.81,3.81,0,0,1-.6.5,6.47,6.47,0,0,0-.8.9,1.68,1.68,0,0,0-.3,1.1l-.3.5a.45.45,0,0,0,0,.5l.2.3v.4l.1.5a2,2,0,0,0,.4,1.3,2.84,2.84,0,0,0,1,.9,6,6,0,0,0,.8.8l.8.8a.31.31,0,0,0,.2.1l.2.1h.1a.76.76,0,0,0,.4-.2l.1-.1h.1l.2.1h.4l.2-.1a.56.56,0,0,0,.6,0l.3-.2h.3a.37.37,0,0,0,.3-.1,13.17,13.17,0,0,0,2.3-2.9.64.64,0,0,0,0-.6l-.1-.1a1.79,1.79,0,0,0,.5-.7,1.33,1.33,0,0,0,.3-.7c.1-.1.3-.5,1-1.4a6,6,0,0,0,1.1-1.4.37.37,0,0,0,.1-.3l.7-1a.37.37,0,0,0,.1-.3c0-.4.1-.9.3-1s.1-.1.2-.2c.2-.3.3-.5.5-.8a3.51,3.51,0,0,0,.5-.8.64.64,0,0,0,0-.6c.1-.1.2-.3.1-.4l.3-.3c.1-.1.1-.2.2-.3l.1-.3.1-.2.2.4a1.71,1.71,0,0,0,.7,1.4.31.31,0,0,0,.2.1,8.82,8.82,0,0,1,2.3,0l1.2.3v.1c.1.2.2.3.4.3h.2a.35.35,0,0,1,.2.1h.3a.52.52,0,0,0,.4-.2c.2-.2.4-.5.8-.9v.2c-.3.4-1.1,1.4-3.3,4a32.9,32.9,0,0,1-3.7,4.1.35.35,0,0,0-.2.1c-.4.4-.9,1-1.8,1.8l-.7.6a9,9,0,0,0-.9,1c-.1.1-.1.1-.1.2a2.18,2.18,0,0,0-.4.5l-.1.1h0l-.1.1c-.2.1-.2.4-.1.6a.54.54,0,0,0,.8.2l.1-.1.1-.1h0l.4-.3.2-.2h.1l.6-.4c.3-.2.8-.6,1.9-1.4.7-.6,1.2-.9,1.5-1.2a10.23,10.23,0,0,0,3.2-1.6c.1,0,.1.1.2.1h.2l.1.1a.52.52,0,0,0-.2.4c0,.3.2.5.6.7a1.18,1.18,0,0,0,.8.1c.5.5,1.1,1,1.6,1.5,1,.9,1.9,1.7,2.9,2.5l.1.5c0,.1.1.2.2.3a3.53,3.53,0,0,1,.9,1.1c.4.6.6,1,.8,1.3l.1.1a2.26,2.26,0,0,1,.4.9c.2.6.5,1.4,1.2,1.5a.37.37,0,0,0,.3-.1c.1,0,.1.1.2.1h.2a2.4,2.4,0,0,0,1.5-.6.57.57,0,0,0,.7-.2l.5-.2.3.1h.4l.7-.3h.1c.2.1.3,0,.5-.1l.3-.2a.44.44,0,0,0,.5-.1l.4-.4c.1-.1.1-.1.1-.2l.2-.1c.1-.1.2-.1.2-.3l.1-.4.2-.2,1-.3a.55.55,0,0,0,.3-.5.76.76,0,0,1,.1-.4c.2,0,.3-.1.4-.3l.4-1c0-.1.1-.2,0-.3V218l.4-.3a.52.52,0,0,0,.2-.4.76.76,0,0,0-.2-.4h0v-.1a.44.44,0,0,0-.1-.5v-.4l-.5-1.3c.1-.1.1-.1.1-.2l.1-.4a1.09,1.09,0,0,0-.1-.5c0-.2,0-.4-.2-.5h0l.3-1c.1-.1,0-.3-.1-.4l-.6-.8v-.3l-.1-.2.2-.8v-.3l-.2-.5.4-1.1a.44.44,0,0,0-.1-.5l-.4-.4a.52.52,0,0,0,.2-.4v-.4a.52.52,0,0,0-.2-.4l-.1-.1v-.1c.2-.1.3-.2.3-.4l.1-.7c.1.1.1.2.2.3a2.5,2.5,0,0,1,.4.8c0,.1.1.2.2.3l.3.3a.22.22,0,0,0,.2.2,2.55,2.55,0,0,1,.9.9,6.78,6.78,0,0,1,.6.9l-.1.7a.6.6,0,0,0,.1.4,3.75,3.75,0,0,1,.7,1.2v.1c.1.1.2.3.4.5l.1.1v.1a.6.6,0,0,0,.1.4,1.38,1.38,0,0,1,.3.4.22.22,0,0,0-.2.2l-.1.1c-.1.1-.1.2,0,.4a8.38,8.38,0,0,0,.2,1,5.78,5.78,0,0,0,.6,1.7,3.16,3.16,0,0,0,1.4,1.4c.1,0,.2.1.3,0h0c.2.1.3.2.5.3a4.23,4.23,0,0,1,.7.5.44.44,0,0,0,.5.1h.1l.1.1c.1,0,.1.1.2.1h.2l.2.1a.37.37,0,0,0,.3.1h.2a.37.37,0,0,0,.3-.1h.5a.37.37,0,0,0,.3.1l.3-.1.1.1a.3.3,0,0,0,.4,0l.4-.1h.3a.37.37,0,0,0,.3-.1l.3-.2.5.1h.2l1-.2.6.1h.2l.2.1a.3.3,0,0,0,.4,0l.4-.1c.1.1.2.1.4,0l.5-.1h.5a.6.6,0,0,0,.4.1l.7-.2h0a.37.37,0,0,0,.3.1h.4a4.88,4.88,0,0,1,.7.3.48.48,0,0,0,.6-.2l.1-.2a.37.37,0,0,0,.1-.3v-.4c0-.1-.1-.2-.1-.3l-.3-1h0v-.4a5,5,0,0,0-1.2-1.7c-.1-.1-.1-.1-.2-.1s-.1,0-.2-.1a1.54,1.54,0,0,0-.4-.6.37.37,0,0,0-.3-.1v-.1a.6.6,0,0,0-.1-.4c-.2-.2-.4-.7-.8-1.3a6.41,6.41,0,0,1-.6-1.1c0-.1-.1-.2-.2-.3l-.7-.6c-.1,0-.1-.1-.2-.1a8,8,0,0,0-.6-.8c.1-.2.1-.4-.1-.5l-.2-.2c-.1-.2-.3-.2-.5-.2h0a.37.37,0,0,0-.3-.1h-.1a1.18,1.18,0,0,0-.5-.5V206a3.51,3.51,0,0,0-.5-.8c-.2-.2-.3-.4-.4-.5a.52.52,0,0,0-.4-.2l-.1-.1a1.59,1.59,0,0,0-1.2-.9l-.1-.4c0-.2-.2-.3-.3-.4l-.2-.1h-.3l-.2-.2a.76.76,0,0,0-.4-.2v-.1l-.4-.4a.37.37,0,0,0-.3-.1l-.3-.3a.44.44,0,0,0-.5-.1h-.1l-.8-.4-.1-.6a.35.35,0,0,0-.1-.2l-.3-.4a.76.76,0,0,0-.4-.2h-.3a10.37,10.37,0,0,0-2.5-1.5,6.37,6.37,0,0,1,.7-.2,3.26,3.26,0,0,0,1.2-.6h.2l.3-.1a.37.37,0,0,0,.3.1h.1c.2,0,.5-.2.5-.4l.3-.1h.1a.76.76,0,0,0,.5-.2l.3-.3a.37.37,0,0,1,.3-.1c.1,0,.1,0,.2-.1.3-.2.8-.6,1.4-1s1-.7,1.3-.9h.2c.1,0,.2-.1.3-.1l.4-.4h.1c.2,0,.3,0,.4-.1a4.62,4.62,0,0,1,.7-.7,1.59,1.59,0,0,0,.5-1v-.2l-.1-.4c0-.1,0-.1-.1-.2s-.1-.2-.2-.4a4.88,4.88,0,0,1-.3-.7.78.78,0,0,0-.4-.4c0-.1,0-.2-.1-.2l-.8-1.5a10.15,10.15,0,0,1-.9-1.6c0-.1,0-.1.1-.1a1.11,1.11,0,0,0-.4-1.1,1.74,1.74,0,0,0-1.4-.3l-.3-.1c-.1-.1-.3,0-.4,0a.37.37,0,0,0-.3.1l-.8.7-.6-.1a.6.6,0,0,0-.4.1l-.1.1-.1-.1a.61.61,0,0,0-.6.1l-.2.2-.9.2c-.1,0-.2.1-.3.2l-.8.9a5.93,5.93,0,0,1-.8.8.48.48,0,0,0-.2.6c.1.2.2.4.4.4,0,.3.1.7.1,1.1a1.55,1.55,0,0,0,.2.8,17.24,17.24,0,0,1-2.8,3.6h0v-.1a2.81,2.81,0,0,1,.1-.8l.2-.7a.76.76,0,0,0-.1-.4l-.2-.3.1-.1a.79.79,0,0,0,.5-.7.5.5,0,0,1,0-.6v-.2a12.13,12.13,0,0,1,1-2.3c.5-1.1.8-1.8,1-2.3a.6.6,0,0,0-.1-.4l-.3-.5c-.1-.1-.2-.2-.3-.2l-.4-.7h0a.62.62,0,0,0-.1-.7l-.2-.2-.1-.1-.1-.5a.78.78,0,0,0-.4-.4,4.65,4.65,0,0,1-.9-.3,2.18,2.18,0,0,1,.5-.4,4.5,4.5,0,0,0,1-.9,2.62,2.62,0,0,0,.6-1.3l.5-.5c.1-.1.2-.4.1-.5v-.4a2.45,2.45,0,0,0-.6-1.6l-.2-.2a2.09,2.09,0,0,1-.6-.4c-.3-.2-.5-.4-.6-.4s-.1-.1-.2-.1-.3-.1-.6-.5a2,2,0,0,0-.6-.7c0-.1-.1-.1-.1-.2a3.54,3.54,0,0,0-1.6-.9h-.2l-.1-.1a.37.37,0,0,0-.3-.1c.1,0,.2-.1.3-.1a1.27,1.27,0,0,0,.6-.1c.7-.5,1.3-.8,1.6-1s.3-.3.4-.4a5,5,0,0,1,.5-.7,7.37,7.37,0,0,0,.5-.6.86.86,0,0,0,.3-.6l.1-.1c.1-.1.2-.1.2-.2a2.19,2.19,0,0,0,.3-.5,6.89,6.89,0,0,0,.3-.8c0-.1.1-.2,0-.3v-.4l.1-.1a1,1,0,0,0,.2-.7.76.76,0,0,0-.2-.4V165a1.07,1.07,0,0,0-.2-.6l-.1-.1h0a1.27,1.27,0,0,0,.1-.6c0-.2-.1-.4-.1-.7s-.1-.5-.1-.8a1.23,1.23,0,0,0-.4-.8l-.1-.1a.91.91,0,0,0,0-1l-.2-.2v-1.4c0-.1.1-.2.1-.3a5.39,5.39,0,0,0,.7,1.3l.1.1v.2a6.47,6.47,0,0,0,.9,1.6c0,.1.1.1.2.1-.1,0-.1-.1-.1,0a4.3,4.3,0,0,0,.7.7c.1.1.1.1.2.1v.1a.76.76,0,0,0,.2.5,2.16,2.16,0,0,1,.3.6,5.58,5.58,0,0,0,.5.8,1.5,1.5,0,0,0,.4,1.1h0a.86.86,0,0,0,.3.6l.1.1c.1.1.2.3.3.4s.2.1.4.1a.76.76,0,0,0,.2.4l.2.2a.85.85,0,0,0,.6.2h.1a.82.82,0,0,0,.6-.4.9.9,0,0,0,.6-.6l.1-.3a.76.76,0,0,0,.2-.5h.3a.55.55,0,0,0,.5-.2.58.58,0,0,1,.4.1,1.08,1.08,0,0,0,.8.2l.2-.1.1.1c.1.1.2.1.4.1a.1.1,0,0,1,.1.1l.8.3c.1,0,.2.1.3.1l.2.2a.82.82,0,0,0,.7.1l.4.1c.1,0,.1,0,.2.1a.6.6,0,0,0,.4.1l.3.2a.88.88,0,0,0,.7.1.35.35,0,0,0,.2-.1h.7l.3.1h.2l.1.1a1,1,0,0,0,.7.2l.3-.1c.1,0,.2-.1.3-.1h0a.75.75,0,0,0,.5.1h.2l.1.1a.6.6,0,0,0,.4.1h.2a.89.89,0,0,0,.8-.5l.3-.1a.87.87,0,0,0,.6-.9v-.2C1300.6,165.4,1300.4,165.1,1300.1,164.9Zm-43.9-24.5a.8.8,0,0,0-.8-.1h-.8a4.4,4.4,0,0,1-.9-.1,1.85,1.85,0,0,0-.2-.7h0l-.1-.2.1-.2a.9.9,0,0,0-.1-1.1l-.1-.1v-.1l1.7.1.6.1h.1a.9.9,0,0,0,.5.1h0a4,4,0,0,1,1.2,1.2,4,4,0,0,1,.4,1.4Zm23,50.9h.2a.31.31,0,0,1-.1.2l-.1-.2Zm-7-51.2c0-.1.4-.4.8-.9a3.54,3.54,0,0,0,1.5-1.5,2.76,2.76,0,0,1,.6-.6l.9,2.5s-3.2,1.3-3.5,1.3S1272.1,140.3,1272.2,140.1Zm-2-3c-.2-.1-.3-.2-.5-.2h-.1a1.08,1.08,0,0,0-.7.3l-1.6,1.8-.1.1a1.34,1.34,0,0,0-.7.6.1.1,0,0,1-.1.1l-.2-.5c0-.1-.1-.1-.1-.2V139a1.14,1.14,0,0,0-.3-.8l-.2-.2c-.1-.2-.1-.5-.2-.7a2.51,2.51,0,0,0-.4-.7,4,4,0,0,0-1.8-2,17.48,17.48,0,0,0-2.9-1.8.6.6,0,0,0-.4-.1h-.1a4.32,4.32,0,0,1-1.4-.4,1.38,1.38,0,0,0,.4-.3c.1,0,.2-.1.3-.1s.3-.1.5-.3l.4-.4a1,1,0,0,0,.9-.1c.2-.2.4-.2.5-.3a.91.91,0,0,0,1,0l.7-.4h.6a6.47,6.47,0,0,0,1.6-.9,1.59,1.59,0,0,0,1.2-.4c0,.1.1.2.1.3h0c0,.1-.1.2-.1.3a1.42,1.42,0,0,0-.2.6l-.1.1a.1.1,0,0,0-.1.1,5,5,0,0,0-1.1,1.8,1.27,1.27,0,0,0-.1.6l.1.3c-.1.2-.1.5-.2.8a3.08,3.08,0,0,0-.1.9c.3,1.7,1,2.6,2.1,2.6h.1a.4.4,0,0,0,.4-.2l1.1-.8a5.79,5.79,0,0,1,2.1-1.2c.3-.1.5-.2.8-.3a2.46,2.46,0,0,0-.8,1.7C1270.6,137,1270.4,137.1,1270.2,137.1Zm3.1,19.5c0,.1-.1.1-.1.2l-.1.5a.66.66,0,0,0,.1.6v.3a.84.84,0,0,0-.2.7l.1.5-.1.3a.75.75,0,0,0-.1.5v.5a.76.76,0,0,0-.5.2.78.78,0,0,0-.8.2.88.88,0,0,0-.7.1h-.1c0-.1-.1-.1-.1-.2a.75.75,0,0,0-.7-.4c0-.1,0-.2-.1-.2a1.21,1.21,0,0,0-.5-.5.6.6,0,0,0,.1-.4l.1-.1a5.78,5.78,0,0,0,1.7-1.2,17.42,17.42,0,0,0,1.4-1.4,4.62,4.62,0,0,1,.7-.7l-.1.5Zm-11.9,41.2a.37.37,0,0,0-.3-.1h-.1c-.1,0-.2.1-.3.1a2.19,2.19,0,0,1-.5.3c-.3.1-.4.2-.5.2s-.1,0-.2.1l3.8-4.2,1.3.3h.2l.6-.1.1.1a.19.19,0,0,0,.3,0h0a5.5,5.5,0,0,1-.7.9,4.5,4.5,0,0,1-1,.9h-.1c-.2,0-.3,0-.4.1l-.2.2-.1.1C1263.2,196.8,1263,197.1,1261.4,197.8Zm9.4,6.6h0a.51.51,0,0,0-.4.5.6.6,0,0,0,.1.4.45.45,0,0,0,0,.5v.1a.75.75,0,0,0-.1.5v.1c-.1.1-.1.1-.1.2a.6.6,0,0,0,.1.4h0a.22.22,0,0,0-.2.2.45.45,0,0,0,0,.5v.1l-.1.5a.6.6,0,0,0,.1.4l.1.5-.2.2a.6.6,0,0,0-.1.4.22.22,0,0,0,.2.2l-.3.6v.2c0,.1,0,.2.1.2a.6.6,0,0,0,.1.4l.1.1c-.1.5-.2,1.2-.3,2a.76.76,0,0,0,.1.4l-.2.2-.3.7c0,.1-.1.1-.1.2v.3h-.4l-.3.1-.1-.1a.37.37,0,0,0-.3-.1c-.1,0-.1,0-.2.1a6.15,6.15,0,0,1-1.1-.3,4.6,4.6,0,0,0-1.3-.4h-.2c-.4-.3-1-.6-1.7-1.1a10.39,10.39,0,0,1-1.9-1.3l.4-.5c.2-.2.3-.4.5-.5a.52.52,0,0,0,.2-.4.37.37,0,0,0,.3-.1.52.52,0,0,0,.2-.4q0-.6.9-1.2a8.88,8.88,0,0,0,1.2-.9c.1-.1.1-.2.2-.3l2.4-2.1.1-.1a6.12,6.12,0,0,1,1.3-1.1,11.49,11.49,0,0,0,1-.8l.2.2C1270.9,204.2,1270.8,204.3,1270.8,204.4Zm1.3-10.2-3.9-1,.2-.3h-.1c.1-.1.2-.2.3-.2l3.4-3.8Zm1.4-12.4v.2l-.1.1a.55.55,0,0,0-.5.3v.1a.37.37,0,0,0-.3.1l-.1.1a1,1,0,0,0-.5.4c-.2,0-.3,0-.4.1l-.2.2-.3.4c-.1.1-.1.1-.1.2l-.1.1h-.2c-.2,0-.3,0-.4.1s-.2.3-.1.4h0a.59.59,0,0,0-.7-.1,3,3,0,0,1-1,.4c-.1,0-.2.1-.3.2a3.39,3.39,0,0,1-1.6,1h-.4l-.3-.2c-.1,0-.1,0-.2-.1l-.3-.4a3.49,3.49,0,0,1,.9-.6l1.2-.6a.1.1,0,0,0,.1-.1l.8-.4h.2a.52.52,0,0,0,.4-.2l.2-.2a1.69,1.69,0,0,0,.5-.2,2,2,0,0,0,.8-.4h0a.45.45,0,0,0,.6-.3l.1-.2a9.29,9.29,0,0,0,1.3-.4,2.54,2.54,0,0,0,.7-.2c.1.2.2.2.3.2Zm1.4-9.2-.3-.1.2-.1h.3Zm-1.3-27.4-.3.1v-.1h-.4c-.2-.1-.6-.9-.4-1.1s3.5-1.3,3.5-1.3l.4,2.4Zm6-10.3s3.9.6,4,.7.4.6.2.8a27.4,27.4,0,0,1-2.8.7.35.35,0,0,0-.2.1h0a2.8,2.8,0,0,1-.6.1Zm.2,8.7v-2.4s3.5-.1,3.8,0,.1.7,0,.8S1279.8,143.6,1279.8,143.6Z" transform="translate(-75.84 -76.27)"/></svg>