<?xml version="1.0" encoding="utf-8"?>
<!-- Generator: Adobe Illustrator 26.0.1, SVG Export Plug-In . SVG Version: 6.00 Build 0)  -->
<svg version="1.1" id="圖層_1" xmlns="http://www.w3.org/2000/svg" xmlns:xlink="http://www.w3.org/1999/xlink" x="0px" y="0px"
	 viewBox="0 0 1417.32 1417.32" style="enable-background:new 0 0 1417.32 1417.32;" xml:space="preserve">
<style type="text/css">
	.st0{fill:#FFFFFF;}
	.st1{fill:#D71819;}
</style>
<rect x="0" y="2.07" class="st0" width="1417.32" height="1417.32"/>
<g>
	<path class="st1" d="M1263.69,609.28c-0.23-1.49,0.17-2.37-0.44-4.09c-1.16-3.3-3.64-6.18-5.93-9.12c-1.41-1.8-3.15-3.45-5.18-4.95
		c-0.73-0.54-1.35-1.16-1.92-1.78c-2.43-2.66-5.93-4.39-10.26-5.2c-2.28-0.43-3.99-1.25-5.46-2.39c-1.5-1.15-3.27-1.59-5.5-1.38
		c-2.8,0.26-4.75-0.66-6.17-2.22c-0.28-0.31-0.51-0.66-0.7-1c-1.43-2.57-3.71-4.67-7.02-6.21c-1.51-0.71-2.03-1.59-1.83-2.94
		c0.34-2.36-1.68-4.15-3.7-5.86c-0.64-0.55-1.37-1.05-2.01-1.59c-1.19-1.02-1.88-2.14-1.56-3.51c0.13-0.55,0.15-1.18-0.3-1.64
		c-2.42-2.54-2.89-5.68-5.29-8.21c-0.61-0.65-0.51-1.26,0.08-1.88c0.36-0.38,0.72-0.75,1.03-1.15c0.55-0.71,1.16-1.4-0.18-2.05
		c-1.6-0.77-3.1-0.77-4.2,0.06c-1.24,0.95-1.24,0.95-1.82-0.19c-0.88-1.72-2.04-1.97-4.44-0.99c-0.36,0.15-0.78,0.62-1.21,0.23
		c-0.34-0.31,0.01-0.74,0.37-1.02c0.67-0.52,1.68-0.67,2.53-1c1.35-0.53,1.51-1.16,0.3-1.86c-0.52-0.31-0.39-0.52-0.18-0.86
		c0.83-1.38,0.46-2-1.64-2.37c-1.45-0.26-1.84-0.6-0.84-1.48c0.65-0.57,0.75-1.27,0.39-1.92c-0.56-1.02-0.12-1.82,0.92-2.54
		c0.81-0.56,0.94-1.21,0.78-1.96c-0.38-1.7,1.23-3.83,3.42-4.69c0.46-0.18,0.82-0.49,1.3-0.63c0.93-0.26,0.52-0.52,0.11-0.81
		c-0.39-0.27-0.86-0.42-1.41-0.51c-0.38-0.06-0.8-0.2-0.53-0.54c1.15-1.38,0.47-2.75-0.23-4c-0.82-1.48-1.03-3.03-1.48-4.54
		c-1.04-3.47-2.32-6.9-3.07-10.43c-0.4-1.89-0.07-3.4,1.38-4.94c1.45-1.53,2.15-3.17,2.23-5.06c0.08-1.96,1.82-3.68,3.32-5.31
		c3.34-3.64,6.09-7.44,7.9-11.56c0.13-0.29,0.28-0.57,0.35-0.86c0.94-3.88-0.19-7.13,3.26-10.18c0.51-0.45,1.06-0.91,1.1-1.48
		c0.16-2.45,2.02-4.48,3.56-6.57c2.28-3.1,3.76-6.39,5.14-9.7c1.73-4.14,0.27-12.03,3.67-15.61c2.83-2.99,4.71-6.16,5.55-9.63
		c0.26-1.08,0.9-1.89,2.36-2.39c1.69-0.57,2.79-1.49,3.44-2.72c0.65-1.25,1.98-1.94,3.96-1.96c0.71-0.01,1.39-0.14,2.04-0.35
		c0.73-0.23,1.13-0.53,0.89-1.14c-0.59-1.47,0.29-2.8,1.77-3.65c3.08-1.78,7.83-4.16,8.09-6.61c0.24-2.25,1.65-4.25,2.3-6.4
		c3.17-1.47,2.08-4.1,3.51-6.09c2.39-3.33,9.39-6.02,14.35-7.59c2.87-0.91,5.65-1.92,7.97-3.44c1.94-1.28,4.36-1.74,6.88-2.12
		c3.86-0.58,7.42,2.31,10.62,0.69c2.19-1.11,3.38-1.11,5.44,0.11c0.41,0.24,0.84,0.47,1.24,0.71c0.63,0.37,1.32,0.57,2.02,0.11
		c0.65-0.44,0.53-0.99,0.09-1.44c-1-1.02-2.12-1.99-3.73-2.57c-1.06-0.38-1.19-0.75-0.67-1.5c1.16-1.66,2.55-3.15,4.42-4.53
		c2.56-1.89,5.83-2.09,9.03-2.38c1.89-0.17,3.86,0.38,5.04,1.62c0.85,0.9,1.6,1.85,2.4,2.77c0.75,0.86,1.22,1.95,3.17,1.89
		c0.24-0.01,0.5,0.25,0.73,0.41c3.16,2.24,7.13,3.21,11.58,3.4c3.07,0.13,6.15,0.26,9.23,0.37c1.11,0.04,1.54,0.3,1.86,1.14
		c0.61,1.6,1.57,3.16,2.65,4.64c0.49,0.67,1.68,0.99,2.93,0.95c1.13-0.04,2.27-0.04,3.41-0.05c0.26,0,0.58-0.04,0.73,0.15
		c0.22,0.27-0.14,0.42-0.38,0.54c-1.05,0.54-2.08,1.1-3.19,1.57c-3.01,1.29-5.19,3.06-6.62,5.28c-0.73,1.13-1.68,2.18-2.68,3.21
		c-2.68,2.75-2.93,5.81-1.77,8.83c0.94,2.42,1.79,4.82,2.01,7.32c0.15,1.69,0.99,3.05,3.59,3.56c0.34,0.07,0.85,0.15,0.64,0.5
		c-0.63,1.07,0.28,1.76,1.11,2.5c1.35,1.2,1.28,1.5-0.39,2.49c-0.61,0.36-1.25,0.73-1.7,1.18c-0.58,0.59,0.09,1.07,0.63,1.45
		c0.78,0.55,0.7,0.96-0.24,1.32c-3.62,1.37-4.34,3.57-3.82,6.13c0.15,0.72,0.03,1.41-0.36,2.09c-0.93,1.6-1.07,3.18,0.09,4.75
		c0.29,0.4,0.65,0.87,0.03,1.24c-2.5,1.49-3.61,3.65-5.6,5.38c-2.67,2.34-4.65,4.89-4.85,7.93c-0.03,0.51-0.52,0.8-1.02,1.09
		c-1.09,0.65-1.97,1.42-2.39,2.37c-0.83,1.92-0.13,3.22,2.25,4.47c0.56,0.29,1.55,0.54,0.96,1.2c-1.95,2.16-2.06,4.51-1.83,6.93
		c0.24,2.54-1.07,4.94-1.7,7.4c-0.99,3.86-0.94,7.82-2.32,11.64c-0.84,2.32-0.51,4.67-0.79,6.99c-0.26,2.21-0.7,4.35-0.42,6.59
		c0.12,0.98-1.26,2.05-1.31,3.25c-0.13,3.32-0.67,6.63-1.6,9.9c-0.64,2.27-2.18,4.37-2.96,6.63c-0.56,1.63-0.22,3.09,0.36,4.69
		c0.74,2.05,0.08,4.19-2.18,5.8c-2.23,1.59-4.07,3.19-4.01,5.54c0.02,0.96-0.55,1.91-1.14,2.8c-1.21,1.81-2.25,3.65-3.11,5.55
		c-0.71,1.57-1.95,2.92-3.86,3.96c-2.24,1.23-3.67,2.72-3.62,4.79c0.02,0.81-0.3,1.63-0.51,2.44c-0.54,2.1-1.8,3.79-4.96,4.62
		c-1.32,0.35-2.32,1.07-2.92,2.03c-0.76,1.21-1.84,2.29-3.11,3.29c-1.61,1.27-2.55,2.78-3.03,4.42c-0.28,0.98-0.85,1.81-2.18,2.39
		c-1.28,0.55-1.74,1.53-2,2.49c-0.65,2.42-1.34,4.85-1.82,7.29c-0.36,1.84-1.85,4.52-2.81,6.18c-0.52,1.38-1.94,4.02-1.66,8.77
		c0.19,3.26-0.59-1.74,0.19,2.66c0.03,0.14-0.27,2.81,0.56,3.43c0.46-0.68,0.35,7.48-0.14,7.69c-0.46,0.19-4.64,3.33-4.94,3.15
		c-2.07-1.23-4.8,2.27-7.36,2.27C1264.3,611.92,1263.9,612.13,1263.69,609.28z"/>
</g>
<g>
	<g>
		<g>
			<g>
				<path d="M1055.29,541.71c3.02-3.82,5.02-6.23,6.03-7.2c0.99-0.94,2-2.88,3.02-5.76c0.99-1.91,1.51-3.35,1.51-4.32
					c16.07-2.88,30.65-4.79,43.72-5.76c6.03,0,12.56,0.97,19.6,2.88c0.99,0,2,0,3.01,0c9.05,0.97,15.08-3.35,18.09-12.96
					c4-8.64,3.01-17.27-3.02-25.91c-10.06-15.34-22.61-26.86-37.69-34.55c-5.04-1.91-9.05-2.39-12.06-1.44
					c-2.03,1.94-6.03,2.88-12.06,2.88c-6.03,0-21.62,1.94-46.74,5.76c3.02-1.91,5.02-3.35,6.03-4.32
					c9.05-4.79,19.6-10.08,31.66-15.83c2-0.95,2.5-0.95,1.51,0c8.03-3.82,12.06-8.14,12.06-12.96c-1.01-9.58-5.54-16.78-13.57-21.59
					c-5.04-2.88-14.58-4.79-28.65-5.76c-4.03,0-8.06,1.44-12.06,4.32c0,0.97-0.52,1.44-1.51,1.44l-9.04,2.88
					c3.01-3.82,3.51-8.64,1.51-14.4c-13.07-11.52-23.13-18.71-30.15-21.59c-2.03-1.91-6.03-1.91-12.06,0
					c-2.03,0.97-3.53,1.44-4.52,1.44c-8.06,2.88-14.09,8.17-18.09,15.84c-3.02,2.88-3.53,5.29-1.51,7.2c0.99,1.93,0.99,2.41,0,1.44
					c2,3.85,2,5.76,0,5.76c-2.03,0-3.02,0.49-3.02,1.44c0,1.93,0.99,3.37,3.02,4.32c3.01,1.93,5.02,5.76,6.03,11.52
					c0,1.94,0,6.25,0,12.96c-1.01,0.97-2.52,1.94-4.52,2.88c-4.03,2.88-6.55,5.29-7.54,7.2c-2.03,1.93-5.04,0.49-9.05-4.32
					c-1.01-1.91-2.03-2.88-3.02-2.88c-1.01-1.91-7.04-4.79-18.09-8.64c-3.02-0.94-6.03,0-9.05,2.88c0,0.97-1.01,2.41-3.02,4.32
					c-3.01,3.85-4.52,6.25-4.52,7.2c0,0.97-0.52,2.41-1.51,4.32c-1.01,6.73-1.51,12.48-1.51,17.27c0.99,8.64,6.53,17.27,16.58,25.91
					h1.51c-14.09,5.76-23.13,9.6-27.14,11.52c-3.02,2.88-5.04,2.41-6.03-1.44v-1.44c0-0.94,0-2.88,0-5.76
					c0-2.88-1.01-4.32-3.02-4.32c-7.04-1.91-14.58,2.41-22.61,12.96c-6.03,6.72-9.56,13.92-10.55,21.59c0,0.97,0,1.93,0,2.88
					c0,3.85-0.52,10.08-1.51,18.71c0,6.73,0,11.04,0,12.96c2,6.72,7.02,13.92,15.08,21.59c8.03,7.69,16.58,11.04,25.63,10.08
					c11.05-2.88,15.57-9.58,13.57-20.15c0-2.88-0.52-7.2-1.51-12.96c0-4.79-0.52-8.64-1.51-11.52c0-4.79,2.5-9.11,7.54-12.96
					c2-0.94,5.02-2.38,9.05-4.32c5.02-1.91,9.05-3.82,12.06-5.76c-1.01,3.85-4.03,9.6-9.05,17.27c-1.01,2.88-2.03,4.81-3.02,5.76
					c-4.03,6.73-3.53,14.4,1.51,23.03c13.05,23.03,20.59,35.52,22.61,37.43c2,0.97,2.5,2.88,1.51,5.76l-3.02,2.88
					c-3.02,4.81-5.54,8.17-7.54,10.08c-0.67,0.95-1.49,2-2.48,3.15c-2.29,1.05-4.61,2.05-6.95,2.96c-5.62,2.18-8.66,5.63-9.57,10.89
					c-0.11,0.63-0.01,1.16-0.09,1.79c-0.61,3.31-0.76,6.42-0.45,9.26c0.8,7.6,5.96,11.74,15.31,12.33c3.85,0.21,7.82-0.41,11.13-1
					c3.87-0.72,7.73-1.45,11.59-2.19c1.85,0.16,3.73,0.25,5.63,0.25c2.95-0.92,3.96-0.04,3.07,2.7l-0.61,0.08
					c-0.66,0.32-1.35,0.6-2.06,0.81c-8.63,2.57-17.51,4.55-25.84,6.32c-9.51,2.03-19.74,3.98-32.19,6.14
					c-2.11,0.37-4.51-0.1-6.57-0.55c-1.64-0.31-3.23-0.78-4.92-1.25c-1.67-0.49-3.33-0.96-5.02-1.31c-3.61-0.76-7.03,0.35-9.14,3
					c-1.11,0.61-2.14,1.35-2.96,2.34c-3.38,4.12-1.79,13.42,1.86,16.85c8.57,8.21,19.29,11.98,29.65,15.62l3.86,1.37
					c3.2,1.15,6.63,1.72,10.16,1.72c4.75,0,9.83-0.99,15.99-3.14c9.77-3.39,19.73-6.15,31.67-9.21c13.06-3.32,25.72-4.78,38.07-4.41
					c14.74,0.47,29.48,1.09,44.22,1.74c14.97,0.64,29.94,1.29,44.92,1.76c3.25,0.1,6.6,0.49,9.84,0.86
					c6.79,0.78,14.24,1.37,20.39,0.2c7.41-1.45,15.8-3.08,19.72-11.71c4.05-8.93,3.14-18.1-2.55-25.85
					c-5.12-6.94-12.74-11.88-22.65-14.69c-2.21-0.62-4.48-1.09-6.76-1.56c-1.64-0.33-3.29-0.66-4.91-1.05
					c-3.24-0.84-6.53-0.88-9.83-0.31c-1.35-0.29-2.7-0.59-4.04-0.92c-5.24-1.41-10.61-0.62-15.94,2.26
					c-2.64,1.44-5.24,2.95-7.84,4.47c-2.32,1.35-4.64,2.69-6.98,3.98c-1.47,0.78-3.03,1.52-4.48,1.64
					c-13.02,1.04-26.15,1.97-37.89,2.79c1.66-4.05,2.98-8.18,4.26-12.2l0.63-1.98c0.17-0.52,0.29-0.64,0.74-0.73
					c5.18-0.77,10.35-1.59,15.52-2.41c3.87-0.61,7.73-1.23,11.58-1.82c6.76-1.02,14.44-2.16,20.98-6.59
					c6.15-4.15,9.12-10.17,7.95-16.09c-1.12-5.67-5.77-10.26-12.75-12.62c-3.63-1.21-7.47-1.88-11.2-2.5l-3.22-0.55
					c-4.2-0.76-7.65-0.83-10.7-0.35c-0.37-0.14-0.74-0.29-1.13-0.42c-5.04-0.95-10.06-1.44-15.08-1.44c-1.01,0-1.51-0.47-1.51-1.44
					c0-0.95,0.49-1.91,1.51-2.88c0.99-0.94,1.51-2.38,1.51-4.32c0.99-0.95,2-1.91,3.02-2.88c0.99-0.94,3.51-1.44,7.54-1.44
					c2-0.94,3.51-1.44,4.52-1.44c6.03-1.91,9.05-5.26,9.05-10.08v-1.44c0.99-4.79,0.49-7.67-1.51-8.64
					c-5.04-2.88-6.55-5.76-4.52-8.64C1048.25,552.76,1051.27,548.44,1055.29,541.71z M1021.13,415.03c0-1.91,0-3.35,0-4.32
					c3.02,0,5.02,0,6.03,0c2,0,3.51,0.5,4.52,1.44c0,1.93-0.52,3.85-1.51,5.76c-1.01,0.97-3.53,4.32-7.54,10.08
					c-1.01,2.88-2.03,4.81-3.02,5.76C1019.62,422.23,1020.11,416,1021.13,415.03z M966.85,438.06c0,7.69,0,12.96,0,15.84
					c0,3.85-1.01,4.81-3.02,2.88c-3.01,0-5.04-0.47-6.03-1.44c-1.01,0-2.03,0-3.02,0c0.91-1.31,1.83-2.62,2.74-3.93
					c2.43-3.48,4.86-6.96,7.3-10.45C965.5,440,966.18,439.03,966.85,438.06z M950.48,454.87l1.59-1.52v1.52
					c2.08,2.01,4.69,5.95,7.81,11.87c0.78,1.32,1.59,2.8,2.45,4.44c-1.01,0.97-2.03,1.44-3.02,1.44c-1.01,0.97-2.03,1.44-3.02,1.44
					v-2.88c0-0.57-0.19-1.15-0.56-1.73c-0.7,0.43-1.39,0.65-2.07,0.65v-3.04c0-1-0.55-2.02-1.6-3.04
					C949.93,459.96,949.41,456.91,950.48,454.87z M946.93,617.45c-0.18,0.22-0.38,0.45-0.58,0.68c-0.07,0.08-0.15,0.17-0.23,0.26
					c-0.07,0.08-0.13,0.15-0.2,0.22l0,0c-1.62,1.82-3.81,4.06-6.6,6.72c-3.19,2.05-4.26,1.52-3.19-1.52l1.59-1.52
					c0.58-0.55,1.13-1.08,1.65-1.58c0.05-0.36,0.16-0.78,0.34-1.27l1.51-1.44c4-3.82,6.53-6.23,7.54-7.2c2-1.91,3.02-1.91,3.02,0
					c-0.49,0.94-1.46,2.21-2.89,3.82c0,0.02,0,0.03,0,0.05c-0.06,0.12-0.14,0.25-0.22,0.39c-0.04,0.07-0.09,0.14-0.13,0.21
					c-0.04,0.07-0.08,0.14-0.13,0.21c-0.07,0.1-0.14,0.2-0.21,0.31c-0.03,0.05-0.06,0.09-0.09,0.14c-0.09,0.13-0.19,0.26-0.28,0.39
					c-0.02,0.03-0.04,0.06-0.06,0.08c-0.11,0.15-0.23,0.3-0.36,0.46c-0.01,0.01-0.02,0.03-0.03,0.04c-0.13,0.17-0.28,0.34-0.42,0.52
					C946.93,617.44,946.93,617.44,946.93,617.45z M960.79,615.16l-1.48,1.41c-0.55,0.53-1.1,1.05-1.65,1.58
					c0.29,0.3,0.55,0.66,0.78,1.11l-1.6,1.52c-1.07,1.02-2.14,2.05-3.19,3.04c-3.19,0-5.33,0-6.38,0c0.65-2.53,1.73-4.27,3.23-5.23
					c0.13-0.41,0.28-0.79,0.44-1.15c0.08-0.17,0.15-0.33,0.23-0.48c0.03-0.05,0.06-0.1,0.09-0.15c0.06-0.1,0.11-0.2,0.17-0.3
					c0.03-0.06,0.07-0.11,0.11-0.17c0.05-0.09,0.11-0.17,0.17-0.25c0.04-0.06,0.08-0.11,0.12-0.16c0.06-0.08,0.11-0.15,0.17-0.23
					c0.04-0.05,0.08-0.1,0.13-0.15c0.06-0.07,0.12-0.14,0.19-0.21c0.04-0.05,0.08-0.09,0.13-0.13c0.07-0.07,0.14-0.14,0.22-0.2
					c0.04-0.03,0.08-0.07,0.12-0.1c0.11-0.09,0.22-0.18,0.33-0.26c0.01,0,0.01-0.01,0.02-0.02c0.12-0.08,0.24-0.16,0.37-0.23
					c0.04-0.02,0.09-0.05,0.13-0.07c0.09-0.05,0.17-0.09,0.26-0.13c0.05-0.03,0.1-0.05,0.16-0.07c0.08-0.03,0.17-0.07,0.25-0.1
					c0.06-0.02,0.11-0.04,0.17-0.06c0.08-0.03,0.17-0.05,0.26-0.08c0.06-0.02,0.12-0.03,0.18-0.05c0.09-0.02,0.18-0.04,0.27-0.06
					c0.06-0.01,0.12-0.02,0.17-0.03c0.1-0.02,0.21-0.03,0.31-0.04c0.05-0.01,0.1-0.01,0.15-0.02c0.16-0.01,0.32-0.02,0.48-0.02
					c2-0.94,3.51-0.47,4.52,1.44L960.79,615.16z M969.71,613.08C969.71,613.08,969.71,613.08,969.71,613.08L969.71,613.08
					c-0.38,0.11-0.75,0.21-1.13,0.32l0.11-0.08l7.87-6.03c0.26,1.2,0.54,2.41,0.81,3.63C974.79,611.66,972.26,612.36,969.71,613.08z
					 M1003.04,546.03c-1.01,1.93-1.51,3.37-1.51,4.32c-2.03,2.88-5.04,6.73-9.05,11.52c-2.03,1.94-6.03,4.32-12.06,7.2
					c-3.02,0-5.54-0.94-7.54-2.88c0-0.94-0.52-1.91-1.51-2.88c-2.03-2.88-3.02-4.79-3.02-5.76c0-3.82,1.51-6.23,4.52-7.2
					c12.06-6.7,20.59-11.02,25.63-12.96c4,0,6.03,1.44,6.03,4.32C1004.54,542.68,1004.02,544.12,1003.04,546.03z M1045.25,501.4
					c-3.02-1.91-5.54-3.35-7.54-4.32c-5.04-1.91-12.06-1.44-21.11,1.44c-2.03,0.97-4.03,1.93-6.03,2.88
					c-20.12,5.76-38.21,12.48-54.28,20.15c-4.03,1.93-6.03,1.44-6.03-1.44c0.99-4.79,2-8.64,3.01-11.52
					c11.05-3.82,20.09-6.7,27.14-8.64c3.01-0.95,5.02-1.44,6.03-1.44c8.03,3.85,15.08,2.88,21.11-2.88c2,0,3.02-0.94,3.02-2.88
					c23.11-3.82,43.2-5.76,60.31-5.76c3.02,0,4.52,0.5,4.52,1.44c0,0.97-1.51,2.88-4.52,5.76l-3.01,2.88
					c-4.03,4.81-7.54,8.64-10.55,11.52C1052.27,504.78,1048.26,502.37,1045.25,501.4z"/>
			</g>
		</g>
	</g>
	<g>
		<g>
			<g>
				<path d="M500.84,574.95c-12.61,3.2-22.06,0.55-28.37-8.01c-9.45-8.53-12.61-19.74-9.45-33.62c1.03-8.53,3.67-15.46,7.88-20.81
					c2.09-5.33,5.25-6.4,9.46-3.2c5.24,4.28,9.97,4.8,14.18,1.6c2.09-1.05,10.49-5.86,25.22-14.41c21-11.73,32.55-18.66,34.67-20.81
					c4.19-2.13,7.34-5.33,9.45-9.61c4.19-5.33,9.46-5.85,15.76-1.6c5.24,5.35,10.49,11.21,15.76,17.61c2.09,2.15,3.67,3.75,4.73,4.8
					c4.19,8.56,3.67,14.96-1.58,19.21c-2.12,2.15-4.72,4.28-7.88,6.4c-5.27,3.2-8.94,5.88-11.03,8c-6.3,5.35-9.46,10.68-9.46,16.01
					c0,2.15,0,4.8,0,8c5.25-3.2,8.4-5.85,9.46-8c1.03-1.05,2.61-2.12,4.73-3.2c5.24-4.25,9.97-8.53,14.18-12.81
					c3.15-2.13,5.24-2.13,6.3,0c1.03,2.15,0,5.88-3.15,11.21c-5.27,10.68-16.3,29.89-33.09,57.64c-1.06,10.68-1.57,25.09-1.57,43.23
					c0,20.29,0.52,32.02,1.57,35.22c4.19,7.48,4.73,16.01,1.57,25.61c-3.15,13.86-5.79,22.42-7.88,25.62
					c-6.3,5.33-13.15,6.4-20.49,3.2c-10.51-7.48-16.81-13.88-18.91-19.21c-2.12-2.15-2.63-14.94-1.58-38.43c0-6.4,0-10.66,0-12.81
					c-6.3,9.61-11.57,16.01-15.76,19.21c-8.42,8.56-16.3,9.61-23.64,3.2c-8.42-7.46-14.18-16.54-17.33-27.22
					c-3.15-7.45-2.64-14.93,1.58-22.42c3.15-7.45,15.22-22.94,36.24-46.43c2.09-2.12,2.09-3.2,0-3.2H500.84z M781.35,597.36
					c2.09,4.28,1.03,8.56-3.15,12.81l-1.58,1.6c-3.15,4.28-4.73,8-4.73,11.21c-7.36,27.77-14.18,48.03-20.49,60.84
					c-7.36,11.73-16.3,20.81-26.79,27.22c-5.27,2.13-11.57,1.6-18.91-1.6h-1.58c-2.12-1.08-4.73-4.8-7.88-11.21
					c-1.06-2.15-2.12-3.75-3.15-4.8c-6.3-5.33-11.57-7.45-15.76-6.4c-1.06,0-4.73,0.55-11.03,1.6c-12.61,2.15-19.97,3.2-22.06,3.2
					c-3.15,0-4.73,1.6-4.73,4.8c-1.06,3.2-2.12,5.33-3.15,6.4c-6.3,5.33-14.72,5.33-25.21,0c-10.52-6.4-17.33-13.86-20.49-22.42
					c-8.42-23.46-13.66-47.48-15.76-72.05c0-12.81,2.61-20.81,7.88-24.02c2.09-1.05,6.3-2.65,12.61-4.8c3.15-1.05,5.24-1.6,6.3-1.6
					c2.09-1.05,6.82-3.73,14.18-8c3.15-3.2,5.77-5.33,7.88-6.4c-3.15-1.05-5.79-3.2-7.88-6.4c-1.06-3.2-2.12-13.34-3.15-30.42
					c-1.06-8.53-1.57-14.41-1.57-17.61c-1.06-7.45,2.61-17.06,11.03-28.82c2.09-3.2,3.15-5.33,3.15-6.4c0-1.05,0.52-2.13,1.58-3.2
					c3.15-3.2,4.19-5.33,3.15-6.4c-1.06-1.05-4.21-2.13-9.46-3.2c-2.12-1.05-3.69-1.6-4.73-1.6c-3.15-2.13-8.42-8.01-15.76-17.61
					c-1.06,0-1.58-1.05-1.58-3.2c-2.12,4.28-5.27,6.95-9.45,8c-1.06,0-4.21,1.08-9.46,3.2c-12.61,3.2-19.45,5.35-20.49,6.4
					c-6.3,3.2-17.33,9.08-33.09,17.61c-5.27,2.15-8.94,3.75-11.03,4.8c-3.15,1.08-5.27,1.08-6.3,0c-1.06-1.05-1.06-2.65,0-4.8
					c5.24-5.33,11.03-12.81,17.33-22.42c2.09-3.2,2.61-5.85,1.58-8l-1.58-3.2c-4.21-4.25-7.88-8-11.03-11.21
					c-6.3-6.4-7.36-17.61-3.15-33.62c2.09-5.33,5.76-7.46,11.03-6.41c2.09,0,4.19,0.55,6.3,1.6c2.09,0,3.67,0,4.73,0
					c2.09,0,8.4-1.05,18.91-3.2c3.15-1.05,5.24-1.6,6.3-1.6c9.46-1.05,16.28,1.07,20.49,6.4c8.4,10.68,14.18,21.36,17.33,32.02v-1.6
					c3.15-4.25,7.34-6.4,12.61-6.4c7.34,1.07,14.7,0,22.06-3.2c8.4-4.25,23.64-11.21,45.7-20.81c12.61-6.4,20.49-10.13,23.64-11.21
					c4.18-3.2,10.49-2.65,18.91,1.6c1.03,1.08,2.09,2.15,3.15,3.2c8.4,6.4,17.33,14.96,26.79,25.62c5.24,7.48,4.19,16.01-3.15,25.62
					c-8.42,6.4-15.24,8.55-20.49,6.4c-7.36-4.25-13.15-5.85-17.33-4.8c-1.06,0-2.63,0.55-4.73,1.6c-9.46,2.15-18.39,4.8-26.79,8.01
					c-9.45,3.2-16.3,8-20.48,14.41c-2.12,5.35-0.54,8.56,4.73,9.61c8.39-5.33,16.28-11.21,23.64-17.61c3.15-3.2,7.34-3.2,12.61,0
					c11.55,3.2,21.52,8.56,29.94,16.01c3.15,5.35,2.61,10.68-1.58,16.01c-7.36,5.35-12.61,10.16-15.76,14.41
					c-2.12,2.15-1.57,4.28,1.58,6.4l1.58,1.6l1.58,1.6c6.3,5.35,9.46,10.68,9.46,16.01c-1.06,11.76-6.3,18.16-15.76,19.21
					c-2.12,0-5.79,1.07-11.03,3.2c-2.12,1.07-4.21,1.6-6.3,1.6c-3.15,1.08-10.51,3.75-22.06,8c-6.3,3.2-10,4.8-11.03,4.8
					c-14.72,6.4-31.52,13.88-50.43,22.41c-4.21,3.2-4.73,5.88-1.58,8c6.3,3.2,8.91,6.95,7.88,11.21c0,7.48,0,14.96,0,22.42
					c0,2.15,0.52,5.35,1.57,9.61c2.1,12.81,3.67,20.29,4.73,22.41c1.04,4.28,2.61,5.88,4.73,4.8c5.24-2.12,8.91-3.2,11.03-3.2
					c3.15-2.13,3.67-5.33,1.57-9.61c-1.06-1.05-4.21-3.73-9.45-8c-4.21-2.13-6.84-3.73-7.88-4.8c-5.27-5.33-5.79-9.61-1.58-12.81
					c6.3-5.33,12.07-8.53,17.34-9.61c2.09-2.13,1.57-4.25-1.57-6.4c-4.21,0-7.88-1.05-11.03-3.2c-3.15-2.13-4.73-5.33-4.73-9.61
					v-1.6c2.09-7.45,15.22-14.93,39.4-22.41c10.49-3.2,23.1-6.93,37.82-11.21c14.7-4.25,23.64-7.45,26.79-9.6
					c7.34-3.2,12.61-2.65,15.76,1.6c3.15,1.08,8.4,4.28,15.76,9.61c4.19,4.28,7.34,6.95,9.46,8
					C772.41,579.23,778.19,587.76,781.35,597.36z M645.82,547.73v1.6c-1.06,0-1.58,0.55-1.58,1.6
					c12.61-7.46,19.95-11.73,22.06-12.81c3.15-3.2,3.15-6.4,0-9.61c-6.3-4.25-8.42-9.06-6.3-14.41c0-1.05,1.58-3.2,4.73-6.4
					c3.15-5.33,5.76-9.61,7.88-12.81c2.09-2.13,3.15-3.73,3.15-4.8c0-1.05-1.57-1.6-4.73-1.6l-3.15,3.2
					c-3.15,2.15-6.3,4.28-9.46,6.4c-1.06,1.08-2.63,3.2-4.73,6.4c-5.27,6.41-7.88,10.16-7.88,11.21
					C645.82,525.32,645.82,536,645.82,547.73z M669.46,398.83c-2.12,3.2-1.57,4.28,1.58,3.2c1.04,0,3.67-1.05,7.88-3.2
					c7.34-3.2,11.55-4.8,12.61-4.8c3.15-3.2,2.61-4.25-1.58-3.2C685.73,392.98,678.92,395.63,669.46,398.83z M715.16,626.18
					c3.15-12.81,5.76-24.54,7.88-35.23c0-3.2-2.63-3.72-7.88-1.6c-1.06,0-4.21,0.55-9.46,1.6c-7.36,2.15-13.15,3.76-17.33,4.8
					c-4.21,0-8.42,0-12.61,0c-1.06-1.05-1.57-0.52-1.57,1.6c0,1.08,0.52,2.15,1.57,3.2c3.15,0,5.76,0,7.88,0
					c5.24,1.07,9.46,3.75,12.61,8.01c5.25,4.28,8.4,8.55,9.45,12.81c0,7.48-2.12,11.76-6.3,12.81c-4.21,2.15-11.57,4.28-22.06,6.4
					v11.21c4.19-1.05,7.88-1.05,11.03,0c4.19,0,7.88,1.6,11.03,4.8c3.15,2.15,5.76,1.08,7.88-3.2
					C709.37,650.2,712.01,641.14,715.16,626.18z M767.16,616.58c0-2.13-0.54-3.73-1.57-4.8c-1.06,0-2.12,1.08-3.15,3.2
					c0,1.07-0.54,2.15-1.57,3.2c-3.15,16.01-5.79,26.17-7.88,30.42c0,2.15,0.52,3.75,1.57,4.8c1.03,0,2.09-1.05,3.15-3.2
					C760.86,638.47,764.01,627.26,767.16,616.58z"/>
			</g>
		</g>
	</g>
	<g>
		<g>
			<g>
				<path d="M93.99,506.51c14.48,1.08,26.76-0.53,36.79-4.84c13.38-4.29,44.03-11.83,91.98-22.59v-11.3
					c-5.59,1.08-12.28,2.7-20.07,4.84c-1.12,1.08-2.25,1.61-3.34,1.61c-4.47,3.23-9.49,3.23-15.05,0
					c-7.81-5.37-14.5-10.21-20.07-14.52c-3.35-3.23-3.92-8.07-1.67-14.53v-1.61c2.22-6.45,6.69-10.74,13.38-12.91
					c5.56-1.06,21.16-4.84,46.83-11.3v-11.3c0-5.37-1.12-9.68-3.34-12.91l-1.67-1.61c-1.13-4.29-1.13-8.6,0-12.91
					c4.44-6.45,10.58-12.36,18.4-17.75c6.69-4.29,13.93-4.29,21.74,0c6.69,4.31,13.93,10.24,21.74,17.75
					c3.34,4.31,4.44,8.62,3.34,12.91c0,2.17-0.57,4.31-1.67,6.46c-1.12,3.23-2.25,5.93-3.34,8.07c12.25-3.23,19.49-4.84,21.74-4.84
					c7.79-3.23,13.93-1.61,18.4,4.84c6.69,5.39,11.13,11.3,13.38,17.75c2.22,5.39,2.22,9.15,0,11.3c-2.25,4.31-5.02,9.15-8.36,14.52
					c-4.47,2.17-9.48,3.23-15.05,3.23c-3.35-2.14-8.94-2.67-16.73-1.62h-1.67c-5.59,1.09-10.03,1.62-13.38,1.62
					c0,4.31,0,8.62,0,12.91c18.95-4.29,44.58-9.13,76.93-14.53c7.79-2.14,12.26-3.23,13.38-3.23c7.79,0,15.05,2.17,21.74,6.45
					c6.69,7.54,12.8,17.22,18.4,29.05c3.35,6.45,1.1,13.46-6.69,20.98c-7.81,5.39-15.05,6.46-21.74,3.23
					c-8.94-6.45-20.07-8.6-33.45-6.45c-3.35,0-10.03,0.55-20.07,1.61c-4.47,1.08-7.81,1.62-10.03,1.62c4.44,5.39,4.44,10.77,0,16.14
					l-1.68,1.62c-4.46,5.39-8.94,9.68-13.38,12.91h1.67c1.1,0,2.22,0,3.35,0c8.91-1.06,15.6,0.56,20.07,4.84
					c5.57,4.31,8.91,7.54,10.04,9.68c2.22,3.23,2.22,8.63,0,16.14c-4.47,7.54-9.49,12.38-15.05,14.53c-2.25,0-7.81,1.61-16.72,4.84
					c-6.69,2.17-10.61,3.23-11.71,3.23c-2.25,1.09-3.92,1.09-5.02,0c-1.12,0-1.12-0.53,0-1.61c1.1-1.06,1.67-2.14,1.67-3.23
					c-1.12-1.06-2.8-1.61-5.02-1.61c-2.25,0-3.92,0.56-5.01,1.61c1.1,3.23,1.67,7.54,1.67,12.91l-1.67,8.07
					c4.44-1.06,11.13-2.67,20.07-4.84c5.57-1.06,8.91-1.61,10.04-1.61c3.34,0,6.69-1.62,10.03-4.84c6.69-2.15,11.71-2.15,15.05,0
					c8.91,4.31,17.27,10.24,25.09,17.75c4.44,6.46,5.57,11.85,3.35,16.14c-1.13,1.08-2.25,4.31-3.35,9.68
					c-1.12,3.23-1.67,5.4-1.67,6.46c-3.35,4.31-6.69,6.46-10.04,6.46c-4.47,0-8.36,0.56-11.71,1.61c-5.59,1.08-10.04,0-13.38-3.23
					c-5.59-5.37-20.64-4.29-45.16,3.23c0,19.37,0,31.22,0,35.51c0,8.62-1.12,16.67-3.34,24.21c-3.35,11.83-6.69,21.51-10.04,29.05
					c-1.12,2.15-2.79,3.76-5.02,4.84c-2.25,0-3.34-1.08-3.34-3.23c-1.12-3.23-1.67-7.01-1.67-11.3c-1.12-3.23-2.25-3.23-3.34,0
					c0,1.06,0,5.37,0,12.91c-1.12,6.46-4.47,8.07-10.04,4.84c-4.47-3.23-7.26-7.01-8.36-11.3c0-4.31,0-10.24,0-17.75
					c-1.12-2.17-2.25-2.17-3.35,0c-1.12,3.22-2.25,2.14-3.34-3.23v-3.23c-1.12-18.28-1.67-36.04-1.67-53.26
					c-5.59,1.08-13.38,3.23-23.41,6.45l-8.36,1.62c-4.47,1.09-8.94,1.09-13.38,0c-3.35-2.14-6.14-3.76-8.36-4.84
					c-5.59,0-8.94-1.06-10.04-3.23c0-1.06-0.57-2.14-1.67-3.23c-3.35-5.37-6.14-10.74-8.36-16.14c-2.25-5.37,0-10.21,6.69-14.53
					c1.1,0,2.22-0.53,3.35-1.61c7.79-7.51,17.27-14.52,28.43-20.98c-1.13,0-2.8-0.53-5.02-1.62h-1.67
					c-2.25-2.14-5.59-5.37-10.03-9.68l-1.67-1.62c-3.35-3.23-3.35-8.07,0-14.52c1.1-6.46,5.02-10.74,11.7-12.91
					c1.1,0,3.35-0.53,6.69-1.62c5.57-2.14,9.46-3.23,11.71-3.23c-1.13-2.15-3.35-3.76-6.69-4.84c-2.25-3.23-3.34-8.07-3.34-14.53
					v-3.23c1.1-2.15,1.67-3.76,1.67-4.84c-7.81,2.17-19.52,5.93-35.12,11.3c-14.5,5.4-24.54,9.16-30.1,11.3
					c-8.94,4.31-17.3,2.7-25.09-4.84c-1.12-1.06-2.25-2.14-3.34-3.23c-12.28-8.6-18.97-14.53-20.07-17.75
					C72.8,514.05,78.37,506.51,93.99,506.51z M201.03,608.18c-1.12,2.17-0.57,2.7,1.67,1.61c5.57-4.28,8.91-6.98,10.04-8.07h-3.35
					C206.05,603.9,203.25,606.04,201.03,608.18z M207.72,619.48c1.1,0,3.34-0.53,6.69-1.61c2.22-1.06,4.44-1.61,6.69-1.61v-8.07
					c0-2.14-0.58-3.23-1.67-3.23c-1.12-1.06-2.8-0.53-5.02,1.61c-1.12,0-2.25,1.08-3.35,3.23c-2.25,1.09-4.47,2.17-6.69,3.23
					c-1.12,1.08-1.67,2.7-1.67,4.84C203.8,618.95,205.47,619.48,207.72,619.48z M247.86,524.26c-1.13,1.08-2.25,5.39-3.35,12.91
					c-2.25,5.4-3.92,9.68-5.02,12.91c2.22-1.06,4.44-1.61,6.69-1.61c1.1,0,2.22-0.53,3.35-1.61c2.22-5.37,6.69-13.97,13.38-25.82
					l1.67-3.23v-3.23c-2.25,0-5.59,0.56-10.03,1.61c-5.59,0-9.49,0.56-11.71,1.62c-2.25,0-5.02,1.08-8.36,3.23
					c-6.69,1.08-11.71,2.17-15.05,3.23c3.34,3.23,7.24,3.78,11.71,1.61c3.34-2.14,6.69-3.76,10.03-4.84
					c1.1-1.06,2.77-1.61,5.02-1.61C248.41,520.51,248.96,522.12,247.86,524.26z"/>
			</g>
		</g>
	</g>
	<g>
		<g>
			<g>
				<g>
					
						<rect x="189.71" y="709.64" transform="matrix(1.987182e-03 -1 1 1.987182e-03 -615.8104 1008.9165)" width="15.7" height="206.67"/>
				</g>
			</g>
		</g>
	</g>
	<g>
		<g>
			<g>
				<g>
					
						<rect x="1235.65" y="709.64" transform="matrix(1.987183e-03 -1 1 1.987183e-03 428.0508 2054.854)" width="15.7" height="206.67"/>
				</g>
			</g>
		</g>
	</g>
	<g>
		<g>
			<path d="M378.93,792.95v58.65H355.5v-58.65h-16.71v-18.47h56.86v18.47H378.93z"/>
		</g>
		<g>
			<path d="M453.29,851.59l-4.36-15.2h-20.66l-4.63,15.2h-19.22l23.81-77.12h25.03l24.19,77.12H453.29z M432.3,819.56h12.48
				l-6.24-22.37L432.3,819.56z"/>
		</g>
		<g>
			<path d="M516.79,774.47v77.12h-23.67v-77.12H516.79z"/>
		</g>
		<g>
			<path d="M634.74,774.47l-20.46,77.12H594.4l-10.79-42.54l-10.19,42.54h-20.73l-20.49-77.12h22.28l10.79,44.39l10.52-44.39h18.58
				l11.45,44.47l10.8-44.47H634.74z"/>
		</g>
		<g>
			<path d="M674.34,851.59l-4.36-15.2h-20.66l-4.63,15.2h-19.22l23.81-77.12h25.03l24.19,77.12H674.34z M653.35,819.56h12.48
				l-6.24-22.37L653.35,819.56z"/>
		</g>
		<g>
			<path d="M773.47,851.59h-19.26l-21.12-34.07c-2.71-4.37-5.45-9.68-8.2-15.93c1.24,4.97,1.87,9.19,1.87,12.66v37.35h-19.21v-77.12
				h22.37l17.96,28.25c3.58,5.61,6.29,10.55,8.13,14.81c-1.21-6.59-1.81-13.33-1.81-20.23v-22.82h19.26V851.59z"/>
		</g>
		<g>
			<path d="M897.53,851.59h-19.27l-21.12-34.07c-2.71-4.37-5.44-9.68-8.2-15.93c1.24,4.97,1.86,9.19,1.86,12.66v37.35H831.6v-77.12
				h22.37l17.97,28.25c3.58,5.61,6.29,10.55,8.13,14.81c-1.21-6.59-1.81-13.33-1.81-20.23v-22.82h19.27V851.59z"/>
		</g>
		<g>
			<path d="M950.5,852.78c-10.85,0-19.69-3.6-26.52-10.79c-6.84-7.2-10.26-16.82-10.26-28.87c0-11.53,3.27-21.04,9.8-28.56
				c6.54-7.52,15.61-11.27,27.21-11.27c10.73,0,19.48,3.54,26.24,10.62c6.76,7.08,10.14,16.53,10.14,28.36
				c0,12.24-3.41,22.05-10.23,29.44C970.07,849.09,961.27,852.78,950.5,852.78z M950.39,835.27c3.99,0,6.86-1.74,8.61-5.23
				c1.75-3.48,2.63-9.86,2.63-19.12c0-13.41-3.6-20.11-10.79-20.11c-7.76,0-11.64,7.65-11.64,22.94
				C939.2,828.09,942.93,835.27,950.39,835.27z"/>
		</g>
		<g>
			<path d="M1023.19,830.97v20.62h-21.47v-20.62H1023.19z"/>
		</g>
		<g>
			<path d="M1084.07,834.42h18.19v17.17h-59.32v-17.17h19.04v-36.67c-7.23,3.2-12.88,5.09-16.95,5.65v-17.35
				c10.96-2.37,18.4-6.63,22.32-12.77h16.72V834.42z"/>
		</g>
	</g>
	<g>
		<path d="M133.15,1031.35H92.11l40.65-60.3l-39.49-60.1h42l20.42,34.87l21.19-34.87h41.42l-39.88,58.95l41.03,61.46h-42.18
			l-21.96-36.8L133.15,1031.35z"/>
		<path d="M232.75,1031.35v-120.4h37.94v120.4H232.75z"/>
		<path d="M376.84,910.95h35.25v121.55h-40.26l-43.34-69.35v68.2h-35.25v-120.4h40.84l42.77,68.38V910.95z"/>
		<path d="M524.79,1031.25c-8.48,1.99-17.73,2.98-27.74,2.98c-10.01,0-19.17-1.38-27.45-4.15c-8.28-2.76-15.34-6.77-21.19-12.04
			c-5.84-5.26-10.37-11.78-13.58-19.55c-3.21-7.77-4.82-16.72-4.82-26.87c0-10.02,1.54-18.98,4.63-26.88
			c3.08-7.89,7.54-14.54,13.39-19.93c5.84-5.4,12.94-9.54,21.28-12.43c8.35-2.89,17.73-4.33,28.13-4.33c4.11,0,8.31,0.2,12.62,0.58
			c4.3,0.38,8.57,1.03,12.81,1.93c4.23,0.9,8.28,2,12.13,3.27c3.85,1.29,7.32,2.83,10.4,4.63l-11.75,31.2
			c-6.3-3.46-12.24-5.97-17.82-7.51c-5.59-1.54-11.21-2.31-16.86-2.31c-4.88,0-9.24,0.77-13.1,2.31c-3.85,1.54-7.12,3.66-9.83,6.36
			c-2.7,2.7-4.75,5.95-6.16,9.73c-1.41,3.79-2.12,7.99-2.12,12.62c0,10.66,2.41,18.81,7.22,24.46c4.82,5.66,12.55,8.48,23.21,8.48
			c2.57,0,5.33-0.19,8.28-0.58c2.95-0.39,5.39-0.97,7.33-1.74v-12.13h-27.55v-29.09h61.26v63
			C540.85,1026.59,533.26,1029.26,524.79,1031.25z"/>
		<path d="M594.13,910.95h92.08v30.44H631.5v17.33h42.77v30.06H631.5v42.57h-37.38V910.95z"/>
		<path d="M809.6,1004.86c-2.76,6.74-6.62,12.3-11.56,16.66c-4.95,4.37-10.86,7.58-17.72,9.63c-6.87,2.06-14.42,3.09-22.64,3.09
			c-7.96,0-15.38-0.9-22.25-2.7c-6.87-1.8-12.81-4.72-17.82-8.77c-5-4.04-8.92-9.25-11.75-15.6c-2.82-6.36-4.24-14.1-4.24-23.22
			v-73.01h37.95v68.38c0,8.1,1.48,14.07,4.43,17.92c2.95,3.86,7.71,5.78,14.25,5.78c6.3,0,10.82-1.67,13.58-5.01
			c2.76-3.34,4.15-9.24,4.15-17.72v-69.35h37.76v69.93C813.75,990.12,812.37,998.12,809.6,1004.86z"/>
		<path d="M923.72,941.96v89.39h-37.95v-89.39h-36.41v-31.02h110.78v31.02H923.72z"/>
		<path d="M1080.92,1031.35h-37.57l-7.51-22.54H995l-7.12,22.54H950.5l41.42-120.4h48.35L1080.92,1031.35z M1015.81,938.1
			l-13.48,42.19h26.2L1015.81,938.1z"/>
		<path d="M1175.89,910.95h35.25v121.55h-40.26l-43.34-69.35v68.2h-35.26v-120.4h40.84l42.77,68.38V910.95z"/>
		<path d="M1323.84,1031.25c-8.48,1.99-17.73,2.98-27.74,2.98c-10.01,0-19.17-1.38-27.45-4.15c-8.28-2.76-15.34-6.77-21.19-12.04
			c-5.84-5.26-10.37-11.78-13.58-19.55c-3.21-7.77-4.82-16.72-4.82-26.87c0-10.02,1.54-18.98,4.63-26.88
			c3.08-7.89,7.54-14.54,13.39-19.93c5.84-5.4,12.94-9.54,21.28-12.43c8.35-2.89,17.73-4.33,28.12-4.33c4.11,0,8.32,0.2,12.62,0.58
			c4.3,0.38,8.57,1.03,12.81,1.93c4.23,0.9,8.28,2,12.13,3.27c3.85,1.29,7.32,2.83,10.4,4.63l-11.75,31.2
			c-6.3-3.46-12.24-5.97-17.82-7.51c-5.59-1.54-11.21-2.31-16.86-2.31c-4.88,0-9.24,0.77-13.1,2.31c-3.85,1.54-7.12,3.66-9.83,6.36
			c-2.7,2.7-4.75,5.95-6.16,9.73c-1.41,3.79-2.12,7.99-2.12,12.62c0,10.66,2.41,18.81,7.22,24.46c4.82,5.66,12.55,8.48,23.22,8.48
			c2.57,0,5.33-0.19,8.28-0.58c2.95-0.39,5.39-0.97,7.33-1.74v-12.13h-27.55v-29.09h61.26v63
			C1339.89,1026.59,1332.31,1029.26,1323.84,1031.25z"/>
	</g>
	<g>
		<g>
			<g>
				<g>
					<path class="st1" d="M1267.64,689.64c-2.08-0.26-4.21-0.14-6.31-0.31c-2.87-0.24-2.91-2.19-3.11-4.24
						c-0.25-2.53,1.58-1.98,3.08-2.06c0.87-0.05,1.76-0.04,2.59-0.25c2.09-0.53,5.82,0.47,5.71-2.22c-0.09-2.26-3.76-2.04-6.01-2.09
						c-6.95-0.15-13.92-0.21-20.87-0.03c-2.74,0.07-3.27-0.8-3.2-3.08c0.07-2.06,0.05-3.26,3.04-3.19
						c7.32,0.18,14.66,0.07,21.98-0.19c1.77-0.06,4.84-0.03,4.79-2.23c-0.05-2.38-3.01-2.26-5.03-2.31
						c-7.33-0.19-14.66-0.35-21.98-0.27c-2.49,0.03-2.79-0.82-2.8-2.76c0-1.94,0.31-2.79,2.8-2.76c6.08,0.07,12.18,0.45,18.24-0.3
						c4.9-0.61,7.46-2.96,8.31-7.43c0.7-3.74,0.71-7.48,0.05-11.22c-0.89-5-3.92-7.93-9.41-7.99c-14.91-0.18-29.82-0.18-44.73,0
						c-5.49,0.07-8.58,3.02-9.49,7.94c-0.61,3.29-0.67,6.58-0.19,9.87c0.89,6.07,3.43,8.51,10.01,8.94
						c5.44,0.35,10.93,0.34,16.39,0.21c2.55-0.06,3.02,0.75,3.05,2.89c0.04,2.19-0.78,2.62-2.98,2.61
						c-6.96-0.04-13.91,0.1-20.87,0.27c-1.33,0.03-2.67,0.4-3.98,0.73c-0.89,0.22-1.48,0.81-1.41,1.77
						c0.07,0.84,0.82,1.17,1.48,1.37c2.13,0.64,4.32,0.98,6.58,0.97c6.21-0.03,12.43,0.15,18.64-0.07c2.94-0.11,2.47,1.43,2.44,2.98
						c-0.03,1.59,0.69,3.38-2.51,3.27c-6.45-0.21-12.92-0.02-19.38-0.05c-1.89-0.01-3.71,0.3-5.5,0.78
						c-0.7,0.19-1.45,0.51-1.58,1.28c-0.17,1.03,0.75,1.46,1.55,1.63c1.8,0.39,3.64,0.63,5.48,0.86c1.61,0.2,3.64-0.33,3.28,2.34
						c-0.3,2.18-0.53,4.14-3.7,4.1c-1.72-0.02-3.48-0.28-5.14,0.45c-0.97,0.43-1.69,0.95-1.58,2.05c0.1,0.92,0.76,1.31,1.61,1.67
						c6.06,2.56,12.45-0.48,13.43-6.42c0.15-0.9,0.37-1.8,0.41-2.71c0.05-1.12,0.5-1.64,1.79-1.62c3.15,0.05,6.31,0.01,10.16,0.01
						c-1.94,1.89-3.48,3.08-4.6,4.55c-1.18,1.55-4.02,3.3-2.09,5.14c1.7,1.62,3.82-0.6,5.43-1.7c5.58-3.81,5.55-3.85,10.58,0.25
						c0.37,0.3,0.77,0.58,1.17,0.85c1.25,0.85,2.69,1.61,4.04,0.55c1.57-1.23,0.8-2.79-0.22-3.97c-1.5-1.74-3.23-3.31-5.32-5.42
						c3.65,0,6.7,0.07,9.74-0.03c1.75-0.05,1.54,0.94,1.65,1.98c0.88,7.94,5.95,11.77,14.48,9.45c1.22-0.33,2.64-1.34,2.59-2.85
						C1270.22,690.14,1268.79,689.78,1267.64,689.64z M1211.81,640.75c0.76-0.32,1.62-0.63,2.44-0.64
						c6.06-0.12,12.13-0.13,18.2-0.25c2.52-0.05,1.9,1.55,1.93,2.81c0.03,1.32,0.42,2.82-2.02,2.75c-3.46-0.1-6.93-0.02-10.4-0.02
						c-2.97,0-5.95,0.05-8.92-0.03c-1.09-0.03-2.71,0.62-2.94-1.16C1209.92,642.79,1210.21,641.43,1211.81,640.75z M1232.54,656.93
						c-6.07-0.01-12.16,0.43-18.22-0.3c-1-0.12-1.94-0.3-2.76-0.89c-1.57-1.15-1.76-2.78-1.42-4.34c0.36-1.64,2.03-0.87,3.12-0.91
						c3.1-0.1,6.2-0.03,9.3-0.03c3.23,0,6.46,0.11,9.68-0.04c2.4-0.11,2.41,1.28,2.09,2.62
						C1234.02,654.42,1235.84,656.94,1232.54,656.93z M1242.62,639.82c5.58,0.21,11.17,0.16,16.76,0.21c1.4,0.01,2.72,0.28,3.82,1.1
						c1.21,0.9,1.32,2.2,1.01,3.44c-0.31,1.27-1.61,0.78-2.5,0.79c-3.23,0.05-6.46,0.02-9.69,0.02c-3.1,0-6.22-0.12-9.31,0.04
						c-2.35,0.12-3.25-0.43-3.21-2.79C1239.55,640.42,1240.17,639.72,1242.62,639.82z M1239.64,653.55
						c-0.07-1.45-0.74-3.31,2.29-3.14c3.34,0.19,6.7,0.04,10.06,0.04c2.98,0,5.97-0.1,8.94,0.05c1.14,0.06,2.98-0.94,3.31,1.04
						c0.29,1.74,0.03,3.42-1.94,4.43c-1.58,0.81-3.35,0.9-5.05,0.94c-5.09,0.11-10.19-0.06-15.28,0.11
						C1238.62,657.14,1239.71,655.02,1239.64,653.55z"/>
				</g>
			</g>
		</g>
		<g>
			<g>
				<g>
					<path class="st1" d="M1314.83,650.49c4.82,0.09,9.63,0.05,14.45,0.02c2.65-0.02,5.29-0.01,7.9-0.81
						c3.52-1.09,5.24-3.48,5.23-7.03c0-3.37-3.79-6.66-7.27-7.07c-6.63-0.77-8.73-0.17-15.39-0.22c-0.24,0-2.38,0.31-2.61,0.39
						c-0.87,0.29-1.67,1.3-1.65,2.37c0.02,1.06,1.07,1.43,1.94,1.67c0.96,0.26,3.66,0.39,4.65,0.44c4.43,0.23,6.87-0.1,11.29-0.1
						c1.56,0,3.74-0.48,3.9,2.1c0.18,2.86-2.4,2.38-3.85,2.44c-6.45,0.25-12.92,0.12-19.38,0.28c-1.87,0.05-2.04-1.05-2.2-2.34
						c-0.39-3.02-1.12-6.98-4.46-6.9c-9.38,0.22-17.78-0.16-27.66,0.06c-0.25,0-0.5,0.13-0.7,0.28c-1.44,1.04-1.51,2.58,0.09,3.32
						c1.01,0.46,2.25,0.34,3.37,0.36c5.02,0.06,10.38,0.4,15.57,0.48c2.15,0.04,4.33,0.07,6.44,0.4c1.43,0.23,2.61,1.27,2.43,2.92
						c-0.22,1.99-1.89,1.57-2.97,1.59c-3.4,0.07-6.46-0.21-9.76-0.21v0.11c-3.29,0-6.6-0.13-9.88,0.05
						c-2.3,0.12-5.95-0.18-6.01,2.47c-0.06,3.2,3.72,2.7,6.04,2.79c6.33,0.23,12.67,0.09,19.01,0.21c1.5,0.03,3.59-0.99,3.67,2.19
						c0.07,3.11-1.86,2.35-3.47,2.37c-4.94,0.04-9.89-0.06-14.83,0.05c-2.65,0.06-5.32,0.33-7.93,0.76
						c-1.13,0.19-2.74,0.53-2.7,2.18c0.04,1.58,1.51,1.9,2.73,2.16c2.85,0.63,5.76,0.89,8.68,0.78c1.27-0.05,2.42-0.24,2.47,1.8
						c0.06,2.19-1.1,2.14-2.6,2.07c-3.05-0.15-6.09,0.11-9.04,0.87c-1.03,0.27-2.31,0.7-2.27,2.18c0.04,1.28,1.18,1.57,2.1,1.9
						c0.82,0.29,1.72,0.36,2.59,0.49c7.07,1.01,14.18,0.3,21.26,0.52c1.42,0.04,3.02-0.54,3,2.08c-0.03,2.67-1.74,1.93-3.08,1.97
						c-7.34,0.22-14.71-0.49-22.02,0.62c-1.59,0.24-3.78,0.29-3.73,2.36c0.05,2,2.23,2.01,3.82,2.32c4.02,0.76,8.08,0.59,12.13,0.59
						c12.79,0.01,12.79,0,12.81,2.05c0.02,2.29,0.02,2.27-12.66,2.31c-3.93,0.01-7.86,0.12-11.77,0.37c-1.7,0.11-4.1,0.18-4.32,2.24
						c-0.25,2.43,2.28,2.23,3.9,2.51c1.86,0.33,3.77,0.49,5.65,0.51c5.58,0.06,11.16,0.11,16.73-0.02c2-0.05,2.57,0.55,2.56,2.54
						c-0.01,2.18-0.66,6.58,1.92,6.77c3.06,0.22,2.84-4.43,2.93-6.39c0.12-2.71,1.3-2.93,3.48-2.92c6.84,0.04,13.69,0.05,20.52-0.29
						c1.87-0.09,5.99,0.22,5.78-2.6c-0.17-2.4-4.02-2.38-6.11-2.43c-6.97-0.17-13.94-0.25-20.9-0.28c-1.66-0.01-2.51-0.27-2.55-2.26
						c-0.04-2.13,1.02-2.14,2.56-2.13c5.45,0.05,10.9,0.11,16.35-0.04c2.64-0.07,5.29-0.48,7.9-0.93c0.92-0.16,2.59-0.6,2.69-1.8
						c0.12-1.5-1.76-1.78-2.76-2.18c-0.8-0.32-1.73-0.3-2.61-0.42c-7.32-0.98-14.68-0.34-22.03-0.45c-1.75-0.03-2.07-0.68-2.08-2.24
						c-0.01-1.57,0.63-1.9,2.03-1.89c4.94,0.06,9.89,0.1,14.83-0.01c2.91-0.06,5.82-0.31,8.7-0.66c1.45-0.18,3.8-0.51,3.78-2.4
						c-0.02-1.61-2.16-1.86-3.54-2.18c-2.61-0.61-5.26-0.79-7.93-0.68c-1.54,0.07-2.61,0.04-2.56-2.11c0.05-2.09,1.27-1.8,2.5-1.76
						c2.67,0.07,5.31-0.16,7.93-0.7c1.39-0.28,3.54-0.52,3.59-2.11c0.07-1.92-2.35-2.06-3.75-2.47c-0.48-0.14-1.01-0.09-1.51-0.16
						c-7.07-0.94-14.18-0.32-21.27-0.47c-1.6-0.03-2.89,0.16-2.85-2.25C1312.1,650.7,1313.04,650.46,1314.83,650.49z M1319.6,661.04
						c1.28,0,2.42-0.18,2.47,1.83c0.06,2.23-1.21,2.05-2.64,2.05c-3.4-0.02-6.81-0.01-10.21-0.01c-3.28,0-6.56-0.02-9.83,0.01
						c-1.3,0.01-2.43,0.18-2.41-1.84c0.02-1.74,0.62-2.09,2.2-2.07C1305.98,661.09,1312.79,661.05,1319.6,661.04z"/>
				</g>
			</g>
		</g>
		<g>
			<g>
				<g>
					<path class="st1" d="M1337.67,732.39c0.21,1.46,0.46,3.45,2.09,3.33c1.44-0.11,1.78-2.06,1.91-3.54
						c0.86-9.42,1.05-18.86,0.14-28.27c-0.64-6.57-4.04-9.71-10.22-9.94c-4.37-0.17-8.75-0.15-13.12-0.04
						c-7.56,0.19-11.2,4.14-11.3,12.32c-0.09,7.28-0.07,14.57,0.04,21.86c0.03,1.99,0.54,3.98,0.95,5.94
						c0.17,0.79,0.74,1.45,1.63,1.36c0.69-0.07,1.09-0.61,1.26-1.31c0.25-1.03,0.55-2.06,0.69-3.11c1.06-7.92,0.3-15.9,0.58-23.85
						c0.06-1.73-0.08-3.48,0.58-5.18c0.61-1.58,1.74-1.85,3.03-1.71c1.62,0.18,0.97,1.64,0.97,2.55c0.05,11.06,0,22.13,0.06,33.19
						c0.01,1.7-0.11,2.55-2.1,2.74c-4.25,0.4-6.67,3.23-7.37,7.77c-0.51,3.35-0.67,6.71,0.07,10.03c1.1,4.9,2.66,6.6,7.26,7.29
						c4.98,0.74,10.76,0.25,15.74-0.09c8.49-0.57,11.46-3.58,11.16-12.77c-0.05-1.48,0.2-2.88,0.02-4.35
						c-0.52-4.42-2.85-7.28-6.87-7.83c-2.15-0.3-2.26-1.26-2.24-3.04c0.06-5.4,0.02-10.79,0.02-16.19c0-5.4-0.06-10.8,0.05-16.19
						c0.02-1.07-0.96-2.96,1.2-3.1c1.68-0.11,2.31,1.08,2.72,2.69c0.61,2.4,0.44,4.82,0.52,7.24
						C1337.38,717.59,1336.58,725.02,1337.67,732.39z M1321.04,758.75c-2.59,0.02-5.26,0.63-7.71-0.89
						c-1.06-0.66-1.37-1.95-0.96-2.8c1.12-2.31,3.3-0.54,5.01-1.29c1.45,1.15,4.95-1.98,4.66,2.81
						C1321.98,757.44,1322.41,758.74,1321.04,758.75z M1319.99,748.42c-0.98-0.09-1.97-0.02-3.25-0.02
						c-1.16-0.97-4.3,1.87-4.27-1.71c0.02-3.1,3.01-2.29,4.96-2.48c0.86-0.08,1.73,0.02,2.59-0.03c1.28-0.07,2.05,0.19,2.06,1.92
						C1322.09,747.82,1321.62,748.57,1319.99,748.42z M1322.14,718.9c-0.15-1.71-1.01-4.04,2.35-3.99c3.82,0.06,1.71,2.94,2.38,4.48
						c-0.53,1.62,1.19,4.27-2.31,4.31C1320.57,723.75,1322.3,720.72,1322.14,718.9z M1324.49,738.67c-3.76,0.03-2.22-2.69-2.35-4.41
						c-0.14-1.79-0.88-4,2.42-3.93c3.56,0.08,1.66,2.73,2.32,4.01C1326.4,736.14,1327.97,738.64,1324.49,738.67z M1324.43,708.94
						c-3.71-0.02-2.26-2.75-2.26-4.42c0-1.68-1.46-4.4,2.26-4.42c3.77-0.02,1.83,2.81,2.45,4.42
						C1326.26,706.13,1328.19,708.96,1324.43,708.94z M1333.59,758.69c-1.08,0.23-2.23,0.12-3.36,0.14
						c-1.45,0.02-2.88,0.46-2.89-2.24c-0.01-2.59,1.03-2.88,2.89-2.66c0.74,0.09,1.49,0.01,2.24,0.01c0.37,0,0.8-0.13,1.11,0.02
						c1.15,0.56,3.29-1.37,3.49,1.39C1337.27,757.88,1335.3,758.33,1333.59,758.69z M1333.64,744.34c1.59-0.21,3.27,0.44,3.48,2.75
						c0.11,1.15-0.61,1.29-1.41,1.3c-1.12,0.01-2.24,0-3.67,0c-1.29-1.01-5.45,2.1-4.43-2.75
						C1328.3,742.37,1331.57,744.61,1333.64,744.34z"/>
				</g>
			</g>
		</g>
		<g>
			<g>
				<g>
					<path class="st1" d="M1302.61,707.24c0.14-1.92-1.47-2.28-2.79-2.61c-3.94-0.97-7.95-0.76-11.95-0.74
						c-2.5,0.01-5.01-0.09-7.49,0.2c-1.54,0.18-3.34,0.6-3.27,3.07c0.06,2.21,1.7,2.49,3.12,2.82c1.25,0.29,2.53,0.34,3.8,0.18
						c2.49-0.32,3.35,0.56,3.27,3.47c-0.21,7.16-0.05,14.34-0.04,21.51v0.44c0,0.18,0,0.57,0,0.57c0,7.69,0.24,14.71,0.3,22.4
						c0.01,1.31,0.39,2.63,0.67,3.94c0.23,1.1,0.67,2.1,1.9,2.15c1.28,0.04,1.66-1.1,1.93-2.1c0.57-2.07,0.86-4.19,0.86-6.37
						c-0.02-12.28-0.01-24.56,0.03-36.84c0.01-2.95-0.5-6.23,0.57-8.69c0.52-1.19,4.13-0.77,6.32-1.17
						C1301.07,709.23,1302.49,708.81,1302.61,707.24z"/>
				</g>
			</g>
		</g>
		<g>
			<g>
				<g>
					<path class="st1" d="M1303.67,719.03c-0.28-1.58-0.34-3.71-2.13-3.65c-1.45,0.05-1.57,2.09-1.89,3.55
						c-0.84,3.87-0.63,7.8-0.55,11.69c0.22,9.97-0.7,19.97,0.56,29.91c0.2,1.58,0.32,3.72,2.13,3.66c1.42-0.05,1.63-2.05,1.89-3.55
						c1.2-6.97,0.27-14.01,0.67-21.01C1303.97,732.77,1304.87,725.86,1303.67,719.03z"/>
				</g>
			</g>
		</g>
		<g>
			<g>
				<g>
					<path class="st1" d="M1280.01,717.71c-0.2-1.27-0.46-3-2.04-2.95c-1.53,0.05-1.59,1.81-1.97,3.02c-0.19,0.62-0.16,1.33-0.2,2
						c-0.76,12.79-0.74,25.57-0.02,38.36c0.12,2.09,0.02,5.22,2.3,5.2c2.24-0.02,2.24-3.22,2.28-5.26c0.14-6.33,0.05-12.66,0.05-19
						C1280.33,731.96,1281.12,724.8,1280.01,717.71z"/>
				</g>
			</g>
		</g>
		<g>
			<g>
				<g>
					<path class="st1" d="M1272.93,694.76c-1.75,0.22-3.55,0.86-3.48,2.24c0.07,1.41,2.06,1.74,3.74,2.1
						c5.25,1.12,10.67,0.57,16.24,0.87c4.91-0.3,10.14,0.22,15.2-0.87c1.67-0.36,3.67-0.67,3.75-2.09c0.08-1.4-1.74-2.02-3.47-2.25
						C1294.25,693.4,1283.58,693.39,1272.93,694.76z"/>
				</g>
			</g>
		</g>
		<g>
			<g>
				<g>
					<path class="st1" d="M1272.93,704.28c-1.75,0.29-3.55,1.1-3.48,2.86c0.07,1.8,2.06,2.22,3.74,2.68
						c5.25,1.43,10.67,0.73,16.24,1.11c4.91-0.39,10.14,0.28,15.2-1.11c1.67-0.46,3.67-0.86,3.75-2.67
						c0.08-1.79-1.74-2.58-3.47-2.87C1294.25,702.55,1283.58,702.54,1272.93,704.28z"/>
				</g>
			</g>
		</g>
		<g>
			<g>
				<g>
					<path class="st1" d="M1267.6,703.37c-3.69-0.35-7.4-0.47-11.11-0.7c-0.78-0.05-1.92,0.36-1.94-1.07
						c-0.02-1.35,1.02-1.2,1.87-1.22c3.09-0.07,6.19-0.06,9.28-0.26c1.93-0.13,4.8-0.22,4.86-2.49c0.07-2.73-3.02-2.75-4.93-2.83
						c-6.55-0.27-13.12-0.22-19.67-0.22c-3.71,0-7.44-0.02-11.12,0.33c-1.39,0.13-3.55,0.43-3.3,2.84c0.2,1.91,1.89,2.17,3.37,2.42
						c3.81,0.66,7.65,0.42,11.49,0.51c0.83,0.02,2.29-0.6,2.2,1.12c-0.07,1.33-1.32,0.8-2.08,0.85c-3.58,0.24-7.17,0.32-10.74,0.66
						c-1.53,0.15-3.62,0.35-3.55,2.56c0.07,1.91,2.03,1.86,3.45,2.22c3.79,0.95,7.64,0.52,11.46,0.64c0.7,0.02,1.62-0.14,1.51,1.07
						c-0.08,0.86-0.78,0.85-1.4,0.87c-0.62,0.02-1.24,0.01-1.86,0.05c-9.02,0.54-12.1,3.83-12.2,13.38
						c-0.1,9.52-0.05,19.04,0.01,28.56c0.02,2.86,0.19,5.73,1.11,8.47c0.29,0.88,0.71,1.73,1.8,1.64c0.86-0.07,1.29-0.74,1.5-1.51
						c0.3-1.12,0.57-2.25,0.72-3.39c0.89-7.01,0.37-14.07,0.47-21.1c0.07-5.32,0.01-5.32,5.02-5.32c4.88,0,4.88,0,4.88,5.05
						c0,2.48,0.01,4.96-0.01,7.43c-0.01,0.75,0.1,1.58-1,1.67c-1.31,0.11-1.27-0.77-1.33-1.74c-0.19-2.72-0.39-5.45-0.72-8.16
						c-0.15-1.24-0.37-2.84-1.99-2.78c-1.35,0.05-1.58,1.43-1.77,2.61c-1.02,6.6-1.26,13.24,0.01,19.8c1,5.16,4.38,7.45,9.87,7.35
						c5.33-0.09,8.48-2.39,9.54-7.38c1.39-6.56,0.66-13.23,0.48-19.86c-0.03-1.08-0.82-2.13-1.26-3.19
						c-3.2-0.58-3.34,2.04-3.57,4.11c-0.28,2.56-0.11,5.17-0.12,7.75c-0.01,0.85-0.12,1.5-1.18,1.49c-1.04-0.01-1.17-0.67-1.17-1.51
						c0-3.75,0.03-7.5-0.01-11.25c-0.02-1.3,0.67-1.46,1.64-1.41c1.47,0.08,2.94,0.1,4.41,0.15c3.43-0.86,4.96,0.24,4.47,4.23
						c-0.33,2.69-0.12,5.47-0.05,8.21c0.12,5.07-0.45,10.18,0.45,15.21c0.25,1.38,0.09,3.65,2.18,3.45
						c1.51-0.15,1.75-2.04,1.85-3.45c0.95-13.01,1.01-26.05,0.09-39.06c-0.42-5.86-3.36-8.49-8.83-9.17
						c-1.35-0.17-2.72-0.19-4.07-0.34c-0.77-0.08-1.98,0.4-2.02-0.97c-0.04-1.49,1.23-0.93,1.95-0.95c3.7-0.11,7.43,0.23,11.09-0.72
						c1.44-0.37,3.29-0.55,3.15-2.54C1270.67,703.88,1268.9,703.49,1267.6,703.37z M1243.91,726.31c-1.64-1.27-4.8,1.44-4.82-1.7
						c-0.01-2.16,3.08-1.07,4.64-0.94c1.62,0.13,4.72-1.78,4.71,1.26C1248.43,727.21,1245.32,725.12,1243.91,726.31z
						 M1243.69,719.03c-1.58-0.88-4.58,1.11-4.58-1.4c0-2.36,3.12-1.83,4.9-1.69c1.56,0.13,4.51-1.45,4.51,1.19
						C1248.54,720.64,1245.2,717.82,1243.69,719.03z M1256.86,752.73c-0.06,2.06-0.13,4.09-2.54,4.47c-1.57,0.25-3.2,0.09-4.81,0.09
						c-2.72,0-3.04-1.87-3.17-4.2c-0.17-3.13,1.94-1.82,3.25-2.05c0.72-0.12,1.48-0.02,2.22-0.02c0.74,0,1.5-0.1,2.22,0.02
						C1255.13,751.24,1256.94,750.11,1256.86,752.73z M1264.93,724.7c0.08,1.46-0.89,1.28-1.73,1.29c-1.23,0.02-2.46,0.01-3.99,0.01
						c-1.26-0.93-4.41,1.7-4.46-1.35c-0.04-2.26,2.99-0.74,4.61-1.08c1.19-0.25,2.46-0.08,3.68-0.03
						C1263.83,723.57,1264.85,723.27,1264.93,724.7z M1259.15,715.84c0.11-0.04,0.25-0.02,0.37,0c1.95,0.25,5.25-0.42,5.17,1.95
						c-0.08,2.3-3.33,0.24-4.53,1.05c-0.61,0-0.75,0.04-0.86-0.01c-1.59-0.62-4.68,1.48-4.64-1.64
						C1254.69,714.4,1257.64,716.48,1259.15,715.84z"/>
				</g>
			</g>
		</g>
		<g>
			<g>
				<g>
					<path class="st1" d="M1229.94,718.25c-1.7-0.3-3.46-0.9-5.12-0.7c-3.31,0.41-3.81-1.1-3.7-4.16
						c0.19-5.07,0.07-10.17-0.24-15.24c-0.11-1.78-0.24-4.73-2.43-4.66c-2.33,0.08-2.42,2.95-2.5,4.98
						c-0.22,5.47-0.37,10.94-0.35,16.42c0.01,2.06-0.55,2.8-2.5,2.6c-2.24-0.24-4.44,0.23-6.59,0.86c-0.81,0.24-1.72,0.6-1.71,1.75
						c0.01,1.17,1,1.55,1.76,1.71c2.18,0.45,4.39,0.9,6.6,0.92c2,0.02,2.49,0.76,2.44,2.75c-0.12,4.95-0.04,9.91-0.04,14.87h0.09
						c0,4.17-0.1,8.35,0.04,12.52c0.08,2.45-0.03,4.96,0.96,7.31c0.37,0.89,0.82,1.72,1.77,1.75c0.98,0.03,1.54-0.91,1.8-1.73
						c0.61-1.98,0.97-4.02,0.97-6.14c-0.03-9.52,0.05-19.04-0.02-28.56c-0.01-1.92,0.31-2.8,2.38-2.75
						c2.08,0.04,4.19-0.36,6.25-0.76c0.93-0.18,2.17-0.68,2.19-1.79C1232.01,719.11,1230.99,718.43,1229.94,718.25z"/>
				</g>
			</g>
		</g>
		<g>
			<g>
				<g>
					<path class="st1" d="M1228.22,726.37c-1.27-0.02-1.65,1.6-1.94,2.94c-1.06,4.9-0.47,9.86-0.69,14.79
						c0.24,4.8-0.4,9.63,0.65,14.4c0.31,1.41,0.37,4.01,1.98,3.93c1.28-0.06,1.76-2.52,1.9-3.87c1.05-9.73,1.04-19.46-0.02-29.18
						C1229.96,728,1229.47,726.39,1228.22,726.37z"/>
				</g>
			</g>
		</g>
		<g>
			<g>
				<g>
					<path class="st1" d="M1210.82,742.76c0-4.67,0.14-9.35-0.08-14.01c-0.07-1.48-0.31-3.96-2.35-3.78
						c-1.48,0.13-1.77,2.26-1.92,3.83c-0.85,9.2-0.86,18.4,0,27.59c0.15,1.55,0.37,3.66,1.93,3.78c2.05,0.15,2.28-2.3,2.36-3.8
						c0.22-4.53,0.08-9.08,0.08-13.62H1210.82z"/>
				</g>
			</g>
		</g>
		<g>
			<g>
				<g>
					<path class="st1" d="M1226.45,712.32c0.2,0.84,0.52,1.82,1.55,1.95c1.31,0.17,1.72-1,1.92-1.93
						c1.24-5.64,1.23-11.31,0.01-16.96c-0.21-0.95-0.52-2.96-1.71-2.81c-0.9,0.11-1.57,1.91-1.78,2.79
						c-0.67,2.78-0.98,5.61-0.77,8.71C1225.42,706.72,1225.79,709.55,1226.45,712.32z"/>
				</g>
			</g>
		</g>
		<g>
			<g>
				<g>
					<path class="st1" d="M1208.39,713.69c1.22-0.05,1.5-1.1,1.85-2.11c0.92-2.65,0.45-5.41,0.73-8.11
						c-0.26-2.57-0.17-4.95-0.68-7.72c-0.22-1.17-1-3.62-2.34-3.49c-1.05,0.1-1.64,0.25-1.82,1.22c-0.97,5.28-0.68,12.86,0.43,18.13
						C1206.75,712.55,1207.09,713.75,1208.39,713.69z"/>
				</g>
			</g>
		</g>
		<g>
			<g>
				<g>
					<path class="st1" d="M1204.8,698.93h2.08c0-10.15,0-20.31,0-30.46c0-7.62,0-15.23,0-22.84c0.01-2.55,1.03-4.74,2.75-6.35
						c1.72-1.61,4.16-2.62,6.99-2.63c37.97,0,75.95,0,113.92,0c2.8,0,5.21,0.98,6.94,2.55c1.72,1.58,2.78,3.72,2.86,6.24v0l0,0.25
						c0,0.11,0,0.23,0,0.36c0,19.24,0,38.49,0,57.73c0,16.04,0,32.07,0,48.11c0,2.27-0.68,4.21-1.86,5.75
						c-1.19,1.53-2.89,2.68-5.12,3.26c-1.02,0.26-2.23,0.36-3.44,0.36c-4.02,0-8.04,0-12.06,0c-33.87,0-67.75-0.02-101.62-0.03
						c-2.54,0-4.91-1.01-6.62-2.62c-1.71-1.61-2.74-3.76-2.74-6.04c0-7.95,0-15.89,0-23.84c0-9.93,0-19.87,0-29.8H1204.8h-2.08
						c0,9.93,0,19.86,0,29.8c0,7.95,0,15.89,0,23.84c0,3.55,1.6,6.77,4.05,9.06c2.45,2.3,5.81,3.74,9.45,3.74
						c33.87,0.02,67.75,0.03,101.62,0.03c4.02,0,8.04,0,12.06,0c1.43,0,2.96-0.11,4.48-0.5c3.04-0.78,5.6-2.45,7.37-4.75
						c1.77-2.29,2.73-5.18,2.73-8.29c0-16.04,0-32.07,0-48.11c0-19.24,0-38.49,0-57.73c0-0.11,0-0.23,0-0.36c0-0.11,0-0.23,0-0.36
						v-0.01c-0.1-3.64-1.69-6.9-4.21-9.19c-2.52-2.29-5.95-3.64-9.73-3.64c-37.97,0-75.95,0-113.92,0c-3.84,0-7.31,1.39-9.83,3.75
						c-2.52,2.35-4.07,5.69-4.06,9.39c0,7.61,0,15.23,0,22.84c0,10.15,0,20.31,0,30.46H1204.8z"/>
				</g>
			</g>
		</g>
	</g>
	<g>
		<path class="st0" d="M1294.39,562.93c-0.03-0.14-0.12-0.27-0.26-0.34c-1.32-0.74-1.86-1.09-2.08-1.26
			c-0.09-0.07-0.21-0.11-0.32-0.11h-0.12l-1.15-0.82c-0.21-0.15-0.41,0.06-1.22-0.5c-0.47-0.32-1.82-0.53-2.09-0.64
			c-0.23-0.2-0.64-0.52-1.25-0.98c-0.17-0.12-0.32-0.25-0.45-0.37c0.02-0.03,0.04-0.07,0.06-0.11l0.07-0.2
			c0.06-0.16,0.04-0.34-0.06-0.48c-0.1-0.14-0.26-0.22-0.43-0.22h-0.29c-0.05,0-0.1,0.01-0.15,0.02c-0.08-0.1-0.19-0.18-0.32-0.2
			l-0.51-0.11v-0.1c0-0.29-0.23-0.52-0.52-0.52c-0.47,0-0.7-0.04-0.81-0.08c-0.17-0.05-0.32-0.13-0.47-0.23
			c-0.14-0.1-0.3-0.19-0.49-0.29v-0.07c0-0.21-0.13-0.4-0.33-0.48c-0.37-0.15-0.75-0.39-1.14-0.73c-0.46-0.4-0.82-0.66-1.09-0.81
			c-0.08-0.04-0.16-0.06-0.24-0.07c-0.43-0.26-1.05-0.53-1.88-0.81c-0.45-0.19-0.79-0.35-1.05-0.47c0.04-0.24-0.08-0.47-0.3-0.57
			c-0.43-0.19-0.84-0.47-1.26-0.86c-0.37-0.27-0.67-0.48-0.93-0.64c0-0.06-0.01-0.11-0.03-0.17l-0.14-0.39
			c-0.08-0.23-0.31-0.36-0.55-0.34l-0.2,0.02l-0.12-0.26c-0.01-0.01-0.01-0.02-0.02-0.03v-0.06c0-0.17-0.08-0.33-0.22-0.42
			l-0.17-0.12l0.31-0.05c0.22-0.03,0.39-0.2,0.43-0.41c0.04,0,0.07,0,0.11-0.01l0.1,0.09c0.14,0.13,0.34,0.17,0.52,0.11l1.36-0.46
			c0.11-0.04,0.2-0.11,0.27-0.2c0.01,0.03,0.02,0.06,0.04,0.09l0.07,0.13c0.13,0.24,0.42,0.34,0.67,0.22l0.72-0.33
			c0.13-0.06,0.23-0.17,0.28-0.31c0.02-0.06,0.03-0.11,0.03-0.17c0.04,0,0.08-0.01,0.12-0.02l1.14-0.33
			c0.18-0.05,0.32-0.2,0.36-0.38c0.02-0.08,0.02-0.16,0-0.23c0.31-0.21,0.87-0.53,1.86-1.03c0.16-0.11,0.6-0.35,1.3-0.72
			c0.71-0.37,1.15-0.72,1.37-1.08l1.54-0.7c0.19-0.09,0.31-0.28,0.3-0.5c-0.01-0.18-0.11-0.35-0.26-0.43l0.25-1.13
			c0.05-0.22-0.05-0.44-0.24-0.56c-0.03-0.02-0.21-0.14-0.92-0.79c-0.57-0.52-1.11-0.8-1.63-0.85c-0.54-0.32-1.52-1-2.92-2
			c-0.09-0.06-0.19-0.1-0.3-0.1h-0.64c-0.1,0-0.19,0.03-0.27,0.08l-0.64,0.39c-0.18,0.11-0.27,0.31-0.25,0.51l-0.42,0.24
			c0.04-0.06,0.07-0.12,0.09-0.19l0.29-1.24c0.04-0.18-0.02-0.38-0.16-0.5l-0.14-0.12l0.01-0.03c0.03-0.13,0.01-0.26-0.06-0.37h0.05
			c0.13,0,0.26-0.05,0.35-0.14l0.21-0.2c0.11-0.1,0.17-0.24,0.17-0.39v-0.2c0-0.19-0.11-0.36-0.26-0.45l0.58-0.24
			c0.07-0.03,0.13-0.07,0.18-0.13l0.43-0.46c0.09-0.1,0.14-0.29,0.14-0.42c0-0.53,0.2-1.25,0.6-2.14c0.4-0.89,0.79-1.51,1.16-1.85
			c0.09-0.08,0.14-0.18,0.16-0.29c0.5-0.13,0.86-0.34,1.08-0.64c0.41-0.3,0.73-0.59,0.97-0.87l1.53-0.29
			c0.13-0.02,0.25-0.1,0.32-0.2c0.02-0.03,0.12-0.15,0.53-0.44c0.37-0.27,0.64-0.5,0.81-0.72c0.1-0.12,0.14-0.29,0.11-0.44
			l-0.01-0.06c0.03-0.1,0.03-0.2,0-0.3l-0.29-0.98c-0.02-0.07-0.05-0.13-0.1-0.18c-0.76-0.93-1.45-1.42-2.1-1.49
			c-0.14-0.09-0.33-0.22-0.58-0.4c-0.34-0.24-0.67-0.44-0.96-0.58c-0.66-0.5-1.25-0.76-1.81-0.79c-1.88-0.73-2.41-1.14-2.57-1.32
			c-0.11-0.13-0.27-0.19-0.44-0.18c-0.31-0.22-0.69-0.41-1.15-0.56c-0.07-0.02-0.15-0.03-0.23-0.02l-0.66,0.08
			c-0.02,0.01-0.11,0.03-0.33-0.01c-0.25-0.04-0.45-0.07-0.61-0.07c-0.07-0.08-0.15-0.14-0.25-0.17l0.18-0.21
			c0.1-0.13,0.14-0.29,0.1-0.45l-0.11-0.44c0.03-0.1,0.07-0.22,0.1-0.34c0.06-0.22,0.09-0.46,0.09-0.73c0-0.36-0.15-0.96-1.33-2.39
			c-0.69-0.84-1.27-1.42-1.75-1.77c-0.02-0.1-0.08-0.2-0.16-0.27l-1.43-1.31c-0.14-0.13-0.34-0.17-0.51-0.11l-1.02-0.38
			c-0.06-0.02-0.12-0.03-0.18-0.03h-0.21c-0.08,0-0.17,0.02-0.24,0.06l-0.43,0.23l-0.93,0.18c-0.12,0.02-0.22,0.08-0.3,0.17
			c-0.29,0.34-1.07,0.82-3.07,1.16l-0.05-0.03c-0.2-0.12-0.45-0.1-0.62,0.06c-0.01,0-0.15,0.1-0.74,0.2
			c-0.48,0.08-0.96,0.12-1.41,0.12c-0.35,0-0.44-0.02-0.43-0.02c-0.1-0.04-0.21-0.06-0.31-0.04c-0.02-0.01-0.05-0.03-0.08-0.04
			l-0.5-0.2c-0.08-0.03-0.17-0.04-0.26-0.03c-0.02-0.01-0.04-0.03-0.08-0.06c-0.12-0.11-0.28-0.15-0.45-0.13
			c-0.79,0.14-1.3,0.28-1.6,0.44c-0.33,0.17-0.74,0.54-1.27,1.17c-0.12,0.14-0.16,0.34-0.09,0.51c0.07,0.2,0.11,0.39,0.11,0.54
			c0,0.29-0.04,0.53-0.11,0.74c-0.03,0.09-0.04,0.19-0.02,0.29l0.05,0.21l-0.05,0.21c-0.04,0.18,0.02,0.36,0.14,0.48l0.93,0.91
			c0.06,0.06,0.13,0.1,0.21,0.13l0.96,0.29c0.29,0.26,0.58,0.46,0.88,0.61l-0.3,0.22c-0.74,0.59-1.29,0.99-1.65,1.19
			c-0.16,0.09-0.26,0.27-0.26,0.45v0.13c0,0.18,0.09,0.34,0.24,0.44c0.15,0.1,0.34,0.11,0.5,0.04l0.82-0.38l0.03,0.01
			c0.12,0.04,0.25,0.03,0.37-0.03c0.4-0.19,0.96-0.28,1.64-0.28c0.04,0,0.08,0,0.11-0.01c0.06,0.11,0.16,0.2,0.28,0.24l0.36,0.13
			c0.13,0.05,0.28,0.04,0.4-0.02c0.83-0.4,1.65-0.6,2.42-0.6c0.44,0,0.8,0.02,1.07,0.06c0.15,0.02,0.24,0.01,0.35-0.1
			c0.07,0.01,0.22,0.04,0.38,0l0.47,0.15c0.07,0.02,0.15,0.03,0.23,0.02l0.73-0.11l0.45,0.15c0.1,0.03,0.2,0.04,0.3,0.01l1.03-0.28
			l0.18,0.09c-0.11,0.06-0.19,0.11-0.25,0.15c-0.08,0.01-0.15,0.03-0.22,0.08c-0.82,0.51-1.54,0.77-2.15,0.77
			c-0.06,0-0.13,0.01-0.19,0.03c-1.15,0.44-2.73,1.01-4.7,1.69c-2.63,0.92-3.31,1.02-3.47,1.02c-0.06,0-0.12,0.01-0.17,0.03
			l-2.51,0.86l-0.14-0.03c-0.17-0.04-0.34,0.01-0.47,0.12l-0.12,0.11c-0.51,0.14-0.91,0.26-1.19,0.37c-0.01,0-0.02,0-0.03,0
			c-0.23-0.38-0.93-0.39-1.13,0.12l-0.76,0.28l-0.05-0.01c-0.05-0.02-0.1-0.02-0.15-0.02h-0.15c-0.04-0.03-0.08-0.06-0.13-0.08
			l-0.86-0.39c-0.07-0.03-0.14-0.05-0.22-0.05h-0.5c-0.14,0-0.28,0.06-0.37,0.16c-0.48,0.5-0.72,0.96-0.72,1.41
			c0,0.21,0.01,0.4,0.04,0.57l-0.12,0.22c-0.02,0.04-0.04,0.09-0.05,0.14c-0.01,0.02-0.03,0.03-0.04,0.05l-0.72,0.91
			c-0.18,0-0.36,0.09-0.46,0.25l-0.36,0.59c-0.11,0.19-0.1,0.42,0.04,0.6l0.46,0.58c0.01,0.07,0.03,0.14,0.06,0.2
			c0.12,0.21,0.21,0.48,0.27,0.8c0.06,0.33,0.12,0.58,0.17,0.74c0.01,0.47,0.09,0.89,0.24,1.25c-0.03,0.09-0.04,0.19-0.02,0.28
			l0.05,0.21l-0.03,0.15c-0.11,0.07-0.19,0.18-0.22,0.3l-0.21,0.78l-0.17,0.19c-0.1,0.11-0.15,0.27-0.13,0.42l0.14,1.04
			c0.01,0.08,0.04,0.15,0.08,0.21c-0.03,0.16,0.01,0.32,0.11,0.45c0.4,0.47,0.73,1.11,0.98,1.9c-0.03,0.08-0.04,0.17-0.03,0.26
			l0.2,1.32l-0.11,0.34c-0.03,0.09-0.03,0.19-0.01,0.29c-0.02,0.07-0.02,0.13-0.01,0.2c0.09,0.67,0.14,1.17,0.14,1.5
			c0,0.47-0.07,0.95-0.2,1.43c-0.04,0.13-0.02,0.26,0.04,0.38c-0.09,1.15-0.13,2.05-0.13,2.69c0,0.06,0.01,0.12,0.03,0.18l0.01,0.03
			l-0.09,0.29c-0.02,0.07-0.03,0.14-0.02,0.21l0.06,0.53c-0.16,0.44-0.43,1.34-0.83,2.74c-0.03,0.12-0.02,0.24,0.02,0.35l0.03,0.07
			c-0.21,0.35-0.43,0.79-0.67,1.34c-0.04,0.09-0.05,0.2-0.04,0.3c-0.29,0.52-0.56,1.16-0.82,1.97c-0.52,0.78-1.19,1.85-2.04,3.26
			c-0.81,1.34-1.42,2.37-1.84,3.13c-0.06,0.04-0.11,0.09-0.15,0.15l-0.43,0.65c-0.09,0.14-0.11,0.3-0.06,0.45
			c-0.01,0.09,0,0.18,0.03,0.28l-0.05,0.25c-0.03,0.14,0.01,0.29,0.09,0.4l0.08,0.11l-0.1,0.16c-0.14,0.22-0.09,0.5,0.1,0.67
			l1.43,1.25c1.29,1.09,2.24,1.86,2.92,2.36l0.23,0.52c0.05,0.12,0.14,0.21,0.26,0.27c0.32,0.14,0.81,0.3,1.51,0.49
			c0.11,0.03,0.23,0.02,0.33-0.02c0.07,0.03,0.15,0.04,0.23,0.04c0.19,0,0.36-0.1,0.45-0.26h0.26c0.29,0,0.52-0.23,0.52-0.52v-0.25
			l0.5-0.17c0.17-0.06,0.3-0.19,0.34-0.37c0.18-0.72,0.46-0.72,0.57-0.72c0.27,0,0.49-0.2,0.52-0.46l1.59-1.25
			c0.81-0.64,1.44-1.04,1.86-1.19c0.19-0.07,0.33-0.25,0.34-0.45c0.21-0.07,0.36-0.27,0.36-0.5v-0.24c0.21-0.32,0.52-0.66,0.9-1.01
			c0.47-0.43,0.96-0.83,1.48-1.23c0.89-0.74,1.49-1.25,1.81-1.53l0.02,0.01c0.25,0.06,0.5-0.07,0.6-0.31l0.24-0.56
			c0.56-0.1,0.97-0.43,1.19-0.96c0.24-0.1,0.48-0.31,0.66-0.71c0.58-0.02,1.13-0.36,1.69-1.04l0.38,0.28l0.05,0.38l-0.03,0.07
			c-0.08,0.23,0,0.48,0.2,0.61l0.55,0.37v0.63c0,0.29,0.23,0.52,0.52,0.52h0.23c0.05,0.12,0.14,0.22,0.27,0.28l0.27,0.12v0.19
			c0,0.17,0.08,0.32,0.21,0.42c0.08,0.06,0.18,0.1,0.29,0.1c0.03,0.06,0.08,0.11,0.13,0.15l0.23,0.18c0,0.05,0.01,0.11,0.03,0.16
			c0.21,0.62,0.57,1.26,1.03,1.84c0.05,0.09,0.21,0.35,0.49,0.77c0.22,0.34,0.38,0.69,0.46,1.06c0.02,0.09,0.07,0.18,0.13,0.25
			c0.73,0.76,0.95,1.09,1.01,1.21c0.09,0.62,0.84,1.06,1.5,1.38c0.17,0.08,0.37,0.07,0.52-0.04l0.1-0.07l0.89,0.59
			c0.09,0.06,0.19,0.09,0.29,0.09h0.21c0.16,0,0.31-0.07,0.41-0.2l0.16-0.2l0.29,0.19c0.14,0.09,0.33,0.11,0.49,0.04l0.93-0.39
			c0.15-0.07,0.27-0.2,0.31-0.36l0.19-0.84c0.53,0,0.96-0.02,1.3-0.04c0.13,0.06,0.29,0.06,0.43,0c0.02-0.01,0.13-0.05,0.44,0.03
			c0.73,0.19,1.13,0.19,1.7,0.03c0.2-0.05,0.38-0.08,0.5-0.09l0.43,0.07c0.05,0.01,0.1,0.01,0.15,0c0.42,0.05,0.98,0.03,1.64,0.07
			c0.63,0.04,2.15,0.05,2.59,0.01l0.33,0.1c0.09,0.03,0.17,0.03,0.26,0.01l0.14,0.08c0.08,0.04,0.16,0.06,0.25,0.06
			c0.23,0,0.82,0.03,1.75,0.1c1.19,0.08,1.6,0.17,1.74,0.21c0.09,0.03,0.18,0.03,0.26,0.01c0.11-0.02,0.31-0.05,0.67-0.05
			c0.39,0,0.53,0.03,0.57,0.04c0.11,0.03,0.24,0.03,0.35-0.02c0.75,0.17,0.8,0.17,0.87,0.17c0.04,0,0.08,0,0.12-0.01l1.14-0.12
			c0.15-0.01,0.29-0.09,0.38-0.21c0.01-0.01,0.01-0.02,0.02-0.03l0.19,0.03c0.15,0.03,0.31-0.02,0.42-0.12
			c0.02-0.02,0.04-0.04,0.06-0.06l0.2,0.08c0.13,0.05,0.28,0.05,0.41-0.01l0.14-0.07c0.07-0.03,0.14-0.08,0.19-0.15l0.29,0.05
			c0.15,0.03,0.31-0.01,0.43-0.11c0.12-0.1,0.19-0.25,0.19-0.4v-0.07c0-0.18-0.09-0.35-0.25-0.45
			C1295.59,563.54,1294.95,563.2,1294.39,562.93z M1260.98,552.46c-0.06,0.03-0.11,0.07-0.16,0.12l-0.03,0l-0.01,0
			c-0.18-0.08-0.38-0.06-0.54,0.06c-0.58,0.46-1.11,0.7-1.58,0.74c-0.15,0.01-0.28,0.08-0.37,0.2c-0.05,0.07-0.09,0.15-0.1,0.24
			c-0.05,0.03-0.1,0.06-0.14,0.1c-0.44,0.44-0.99,0.82-1.65,1.14c-0.54,0.26-0.97,0.47-1.29,0.64c-0.12-0.05-0.25-0.05-0.37-0.01
			l-0.16,0.06c-0.22-0.07-0.46,0.01-0.6,0.21c-0.11,0.17-0.28,0.35-0.51,0.54c-0.11,0.09-0.21,0.18-0.29,0.25
			c-0.06-0.03-0.13-0.04-0.2-0.04c-0.14,0-0.41,0.05-0.6,0.4c-0.02,0.04-0.04,0.08-0.05,0.12c-0.18,0.08-0.43,0.19-0.79,0.33
			c-0.05,0.02-0.1,0.04-0.15,0.06c-0.07-0.06-0.15-0.1-0.24-0.12l-0.07-0.13c0-0.01-0.01-0.02-0.01-0.02
			c0.2-0.03,0.35-0.18,0.41-0.36c0.08-0.04,0.15-0.09,0.21-0.17l0.14-0.2c0.06-0.08,0.09-0.18,0.1-0.27
			c0.23,0.27,0.72,0.29,0.92-0.01l0.21-0.33c0.06-0.1,0.09-0.21,0.08-0.32c0.04-0.03,0.08-0.07,0.11-0.11l0.14-0.2
			c0.07-0.09,0.1-0.2,0.1-0.31v-0.17c0,0,0,0,0.01-0.01c0.18-0.14,0.26-0.38,0.18-0.6l-0.14-0.39c-0.02-0.06-0.06-0.12-0.1-0.17
			l0.05-0.27c0.04-0.2-0.04-0.41-0.21-0.53c0.15-0.1,0.23-0.28,0.22-0.46c-0.01-0.19-0.13-0.36-0.31-0.44
			c-0.01-0.01-0.03-0.01-0.04-0.02l0.06-0.07c0.05-0.05,0.09-0.11,0.11-0.18c0.12-0.03,0.23-0.1,0.3-0.21l0.36-0.52
			c0.1-0.15,0.12-0.34,0.05-0.5l-0.04-0.09c0.05-0.16,0.04-0.35-0.02-0.53c-0.11-0.3-0.3-0.45-0.44-0.53l0.01-0.01
			c0.07-0.04,0.14-0.11,0.18-0.18c0.09-0.16,0.1-0.35,0.01-0.52l-0.01-0.02c-0.02-0.1-0.06-0.19-0.13-0.27l-0.09-0.09
			c0.12-0.19,0.1-0.43-0.04-0.6c0.01-0.06,0.01-0.12,0.01-0.17c0-0.03-0.01-0.07-0.02-0.11l0.21-0.38c0.04-0.08,0.06-0.16,0.06-0.25
			l3.94,2.67c0.66,0.36,1.4,0.85,2.2,1.45c0.14,0.26,0.37,0.49,0.69,0.71c0.19,0.13,0.34,0.24,0.44,0.31l0.18,0.42L1260.98,552.46z
			 M1255.79,536.2c0.41-0.34,1.61-1.01,4.98-2.31c0.07-0.03,0.14-0.07,0.19-0.13l0.33-0.35c0.16-0.04,0.39-0.1,0.71-0.18
			c0.4-0.1,0.72-0.27,0.94-0.49l0.05,0.01c0.08,0.01,0.18,0.01,0.26-0.02l0.44-0.15c0.04,0.02,0.07,0.04,0.11,0.06
			c0.13,0.06,0.21,0.07,0.35,0.08c-0.59,0.48-1.22,0.92-1.9,1.31c-1.37,0.79-3.18,1.72-5.39,2.75l-1.01,0.48c0-0.04,0-0.08,0-0.1
			c-0.01-0.1-0.04-0.19-0.1-0.27c0.04-0.18,0.06-0.36,0.06-0.55L1255.79,536.2z M1266.09,534.1l-0.21,0.51
			c-0.13,0.06-0.35,0.15-0.75,0.25c-0.58,0.15-0.96,0.3-1.2,0.47c-0.08,0.06-0.15,0.14-0.19,0.23c-0.1,0.25-0.45,0.42-0.73,0.52
			c-0.47,0.17-1.04,0.33-1.71,0.48c-0.05-0.01-0.1-0.02-0.15-0.02c-0.04,0-0.08,0.01-0.13,0.02c0.4-0.21,0.85-0.44,1.36-0.69
			C1263.87,535.13,1265.11,534.53,1266.09,534.1z M1264.86,532.09l0.02-0.04l0.01,0.01
			C1264.88,532.07,1264.87,532.08,1264.86,532.09z M1269.73,543.63l-1.42,1.07l-0.95,0.43c-0.1,0.04-0.18,0.12-0.23,0.21l-0.47,0.24
			l-1.48-1.11c-0.82-0.62-1.69-1.22-2.57-1.79c-0.58-0.37-1.16-0.71-1.71-1.02c0.27-0.1,0.62-0.21,1.06-0.33
			c0.71-0.19,1.3-0.31,1.75-0.35l-0.01,0.04c-0.01,0.08,0,0.17,0.03,0.25l0.22,0.6l-0.01,0.02c-0.06,0.16-0.03,0.35,0.07,0.49
			l0.13,0.17c-0.02,0.12-0.01,0.24,0.05,0.35l0.57,1.11c0.1,0.19,0.3,0.31,0.52,0.28c0.45-0.05,0.91-0.22,1.38-0.52
			c0.07,0.01,0.14,0,0.21-0.02c0.48-0.13,0.96-0.24,1.44-0.32l0.04,0.07c0.09,0.17,0.27,0.27,0.46,0.27h0.5
			c0.15,0,0.29-0.06,0.39-0.18c0.15-0.17,0.23-0.15,0.27-0.15C1269.89,543.52,1269.81,543.57,1269.73,543.63z M1270.08,523.49
			c-0.11,0.38-0.16,0.69-0.16,0.96c0,0.21,0.04,0.41,0.13,0.61l-0.35,0.64c-0.05,0.09-0.07,0.2-0.06,0.3l-0.33,0.33l-1.48-0.06
			c-0.61-0.02-2.01,0.12-6.84,1.76c-2.9,0.99-4.71,1.6-5.41,1.83l-0.79-0.5c-0.05-0.03-0.11-0.06-0.17-0.07
			c-0.21-0.04-0.45-0.14-0.72-0.3c0.72-0.39,2.1-0.98,4.74-1.84c0.33-0.13,1.01-0.36,2.05-0.71c0.95-0.32,1.69-0.61,2.26-0.89
			c0,0,0.04,0,0.06,0c0.87-0.09,2.06-0.45,3.64-1.08c0.98-0.38,1.78-0.66,2.38-0.83c0.35-0.1,0.72-0.17,1.09-0.21
			C1270.09,523.46,1270.09,523.48,1270.08,523.49z M1285.09,557.43l-0.07-0.03v-0.3c0.13,0,0.31,0.16,0.31,0.33H1285.09z"/>
		
			<rect x="1245.23" y="482.78" transform="matrix(0.9246 0.381 -0.381 0.9246 280.1146 -437.973)" class="st0" width="2.02" height="11.43"/>
		<path class="st0" d="M1300.07,448.37l-0.49-0.25c-0.07-0.04-0.15-0.06-0.23-0.07c-0.06-0.22-0.21-0.42-0.42-0.53
			c-0.05-0.2-0.17-0.38-0.35-0.51c-0.07-0.05-0.15-0.09-0.23-0.12c-0.24-0.36-0.51-0.68-0.83-0.97c-0.41-0.37-1.04-0.85-1.9-1.47
			c-0.64-0.45-1.15-0.83-1.5-1.13c-0.32-0.27-0.58-0.57-0.77-0.9c-0.12-0.21-0.33-0.36-0.57-0.41c-0.3-0.07-0.41-0.14-0.42-0.13
			c0-0.36-0.23-0.69-0.56-0.82c-0.04-0.02-0.2-0.1-0.55-0.4c-0.34-0.3-0.61-0.54-0.83-0.71c-0.1-0.08-0.21-0.14-0.33-0.17
			c-0.17-0.28-0.38-0.53-0.63-0.74c-0.2-0.17-0.39-0.21-0.65-0.21l-0.12-0.18c-0.06-0.09-0.13-0.16-0.2-0.22
			c-0.01-0.06-0.01-0.15-0.01-0.27c0-0.43-0.3-0.8-0.71-0.88l-0.26-0.05c-0.08-0.16-0.22-0.29-0.38-0.37l-0.61-0.31
			c-0.01,0-0.01-0.01-0.02-0.01l-0.02-0.03c-0.01-0.05-0.03-0.1-0.05-0.15c0.05-0.36-0.11-0.73-0.42-0.9l-0.06-0.04l-0.01-0.08
			c-0.02-0.25-0.15-0.48-0.35-0.63c-0.16-0.12-0.38-0.19-0.57-0.18c0-0.01-0.01-0.01-0.01-0.02c-0.14-0.22-0.37-0.37-0.62-0.41
			l-0.09-0.16c-0.12-0.22-0.33-0.38-0.63-0.46c-0.01-0.37-0.23-0.68-0.55-0.81l-0.03-0.07c-0.12-0.26-0.37-0.45-0.67-0.49
			c-0.07-0.09-0.15-0.18-0.23-0.29c-0.05-0.06-0.09-0.12-0.13-0.17c0.17,0,0.34-0.05,0.49-0.14l0.06-0.04l0.2,0.04
			c0.14,0.09,0.31,0.14,0.49,0.14h0.95c0.42,0,0.82-0.02,1.2-0.07c0.32-0.05,0.62-0.15,0.88-0.31c0.27-0.01,0.51-0.12,0.67-0.33
			l0.37-0.46c0.4-0.14,0.78-0.4,1.12-0.79c0.37-0.42,0.49-0.52,0.49-0.52c0.24-0.17,0.38-0.44,0.38-0.74l0.02-0.05
			c0.37-0.24,0.51-0.7,0.34-1.11l0,0l0.06-0.1c0.04-0.07,0.08-0.15,0.1-0.22c0.14-0.09,0.25-0.22,0.32-0.38l0.11-0.24
			c0.24-0.05,0.45-0.2,0.59-0.42c0.22-0.37,0.6-1.21,0.75-1.55c0.31-0.68,0.67-1.27,1.08-1.76c0.06-0.08,0.11-0.17,0.15-0.27
			l0.24-0.12c0.3-0.15,0.49-0.47,0.49-0.81l0.39-0.46c0.14-0.16,0.21-0.35,0.22-0.55c0.05-0.93-0.41-1.9-1.37-2.86
			c-0.15-0.15-0.36-0.25-0.57-0.26l-0.23-0.3c-0.1-0.12-0.22-0.21-0.33-0.25c-1.21-0.53-2.11-1.04-2.6-1.47
			c-0.01-0.01-0.02-0.02-0.03-0.02c0.02,0,0.03-0.01,0.05-0.01l0.31-0.11c0.2,0.06,0.42,0.05,0.63-0.04l0.55-0.25l0.09,0.02
			c0.33,0.07,0.67-0.07,0.86-0.33c1.06-1.37,1.75-2.34,2.1-2.97c0.12-0.22,0.15-0.48,0.07-0.73l-0.06-0.19
			c-0.05-0.14-0.12-0.27-0.21-0.35c-0.18-0.19-0.35-0.37-0.5-0.56l-0.09-0.12c0.02-0.06,0.03-0.12,0.03-0.18
			c0.06-0.73-0.3-1.58-1.44-1.84c-0.24-0.21-0.55-0.39-0.92-0.53c-0.42-0.16-0.84-0.28-1.24-0.33c-0.01,0-0.15,0-0.16,0l-1.34-0.13
			c-0.23,0-0.42,0.06-0.57,0.18c-0.42,0.07-0.86,0.18-1.32,0.34c-0.57,0.2-0.97,0.33-1.15,0.41c-0.77,0.26-1.4,0.47-1.88,0.6
			c-0.05-0.31-0.08-0.77-0.08-1.43c0-0.27-0.11-0.52-0.31-0.68c0-0.08-0.02-0.15-0.04-0.22l-0.12-0.37
			c-0.03-0.1-0.08-0.19-0.16-0.29c-0.22-0.27-0.5-0.52-0.87-0.76l-0.21-0.63c-0.08-0.24-0.26-0.44-0.47-0.53l-0.79-0.37
			c-0.09-0.05-0.2-0.08-0.3-0.09c-0.51-0.05-1.06,0.04-1.59,0.25c0,0,0,0-0.01,0c-0.15-0.27-0.44-0.44-0.77-0.44h-0.25
			c-0.27,0-0.54,0.13-0.7,0.34l-0.44,0.57c-0.07,0.1-0.12,0.2-0.14,0.29c-0.11,0.38-0.22,0.45-0.23,0.46
			c-0.34,0.11-0.56,0.41-0.6,0.74l-0.45,0.49c-0.15,0.16-0.23,0.38-0.23,0.61v0.31c-0.11,0.11-0.19,0.26-0.23,0.42
			c-0.03,0.12-0.03,0.25,0,0.38c-0.1,0.22-0.11,0.47-0.02,0.71l0.06,0.15v0.33c0,0.24,0.09,0.47,0.3,0.67
			c0.01,0.01,0.06,0.06,0.07,0.07l0.32,0.28c0.15,0.26,0.24,0.52,0.27,0.81c-0.61,0.39-1.46,0.74-2.53,1.04
			c-1.01,0.28-1.91,0.45-2.67,0.51c-0.18-0.1-0.39-0.13-0.57-0.1l-0.09,0.01l0,0c-0.1-0.05-0.2-0.08-0.3-0.08l-0.45-0.04
			c-0.09-0.07-0.19-0.12-0.29-0.15c0.14-0.14,0.26-0.28,0.35-0.43c0.07-0.12,0.11-0.24,0.13-0.36c0.06-0.51-0.03-1.03-0.29-1.6
			c-0.27-0.62-0.65-0.91-0.97-1.04c-0.09-0.12-0.2-0.25-0.32-0.37l0.17-0.21c0.18-0.23,0.18-0.55,0.18-0.61c0-0.05,0-0.1-0.01-0.15
			c0.06-0.32-0.06-0.66-0.32-0.87c-1.35-1.08-2.57-1.63-3.76-1.68h-0.86c-0.2,0-0.38,0.06-0.53,0.17c-0.04,0.01-0.12,0.03-0.26,0.06
			c-0.2,0.04-0.37,0.06-0.51,0.07c-0.2-0.08-0.42-0.08-0.63,0l-0.09,0.03l-0.13-0.02c-0.35-0.06-0.72,0.11-0.91,0.42
			c-0.18,0.31-0.45,0.6-0.8,0.85c-0.25,0.18-0.45,0.34-0.61,0.46c-0.2-0.03-0.41,0.02-0.62,0.16l-0.06,0.04
			c-0.08,0.02-0.16,0.05-0.24,0.1c-0.31,0.18-1.13,0.58-3.32,1.43c-1.21,0.47-1.91,0.71-2.31,0.82c-0.15-0.26-0.44-0.44-0.76-0.44
			c-1.48,0-2.4,0.18-2.97,0.59c-0.24,0.17-0.38,0.44-0.38,0.74v0.79c-0.49,0.41-0.94,0.97-1.32,1.68c-0.46,0.86-0.63,1.65-0.5,2.35
			c-0.06,0.25-0.02,0.51,0.12,0.72l0.04,0.06c0.01,0.1,0.03,0.2,0.07,0.29c-0.04,0.36-0.05,0.72-0.01,1.07
			c-0.12,0.04-0.24,0.1-0.33,0.18c-0.22,0.19-0.34,0.47-0.34,0.77c0,0.46,0.1,1.03,0.28,1.68c0.03,0.12,0.09,0.22,0.17,0.33
			c0.53,0.64,0.69,0.92,0.72,1.01c0.06,0.15,0.16,0.47,0.25,1.1l0.1,0.63c-0.1,0.08-0.18,0.17-0.24,0.28
			c-0.16,0.29-0.15,0.63,0.02,0.91l0.19,0.31c0.04,0.06,0.08,0.12,0.13,0.17l0.31,1.91c-0.02,0.06-0.03,0.12-0.05,0.19
			c-0.03,0.16-0.02,0.32,0.01,0.46l-0.08,0.31c-0.04,0.17-0.04,0.34,0.01,0.49c0,0,0.02,0.1,0.02,0.36c0,0.3-0.04,0.57-0.12,0.79
			c-0.08,0.21-0.09,0.43-0.01,0.63l-0.14,0.54c-0.02,0.09-0.03,0.18-0.03,0.27c-0.1,0.16-0.14,0.35-0.12,0.53c0,0.02,0,0.04,0,0.05
			c0,0.34-0.04,0.82-0.12,1.45c-0.08,0.7-0.12,1.24-0.12,1.67c0,0.27,0.01,0.49,0.02,0.68c-0.13,0.2-0.18,0.45-0.13,0.7l0.09,0.39
			l-0.04,0.21c-0.01,0.04-0.01,0.08-0.01,0.11c-0.07,0.16-0.08,0.34-0.05,0.52l-0.19,0.46c-0.09,0.22-0.09,0.46-0.01,0.68
			c0,0.01,0,0.03,0,0.04c0,0.04,0,0.08,0.01,0.12c-0.13,0.39-0.19,0.76-0.19,1.12v0.11c-0.05,0.18-0.13,0.48-0.22,0.88
			c-0.13,0.54-0.17,1-0.12,1.4l-0.05,0.18c-0.13,0.18-0.19,0.4-0.17,0.62l0.02,0.17c-0.12,0.12-0.22,0.26-0.32,0.43
			c-0.19,0.3-0.3,0.5-0.36,0.61c-0.05,0.11-0.08,0.22-0.08,0.33c-0.37,0.5-0.56,0.91-0.61,1.28c-0.04,0.26,0.04,0.54,0.21,0.74
			c0.15,0.17,0.35,0.29,0.62,0.37c0.13,0.05,0.26,0.08,0.36,0.09c0.17,0.27,0.4,0.58,0.71,0.93c0.3,0.34,0.5,0.61,0.6,0.82
			c0,0.01,0.08,0.18,0.28,0.94c0.18,0.74,0.37,1.3,0.6,1.73c0.32,0.62,0.87,1,1.6,1.07c0.21,0,0.42-0.09,0.62-0.27l0.37-0.21
			c0.1-0.05,0.19-0.13,0.26-0.21c0.06-0.01,0.12-0.02,0.17-0.04c0.23-0.08,0.42-0.26,0.52-0.49l0.05-0.13
			c0.49-0.3,0.87-0.84,1.14-1.61c0.03-0.03,0.06-0.06,0.08-0.09c0.06,0,0.12-0.01,0.17-0.03c0.26-0.07,0.48-0.26,0.59-0.51
			l0.19-0.43c0.08-0.19,0.09-0.41,0.04-0.61l0.09-0.15c0.04-0.06,0.06-0.12,0.09-0.18c0.21-0.23,0.29-0.56,0.2-0.86l-0.08-0.29
			c0.02-0.53-0.06-1.08-0.23-1.66c-0.07-0.24-0.16-0.52-0.22-0.74l0.04-0.07c0.09-0.18,0.12-0.39,0.08-0.59
			c-0.1-0.5-0.11-0.69-0.11-0.75c0-0.01,0-0.13,0.09-0.51c0.03-0.09,0.04-0.19,0.03-0.29c0.01-0.07,0-0.14-0.01-0.19l-0.03-0.22
			c0.02-0.08,0.03-0.16,0.04-0.26c0.07-0.17,0.08-0.34,0.05-0.51l-0.01-0.05l0.15-0.38c0.11-0.28,0.07-0.59-0.09-0.83l0.03-0.06
			c0.15-0.26,0.15-0.59,0.02-0.86c0.02-0.19,0.03-0.38,0.03-0.59l0.19-0.27c0.12-0.16,0.18-0.34,0.18-0.54v-0.25
			c0-0.22-0.08-0.43-0.23-0.6c0.12-0.48,0.17-0.9,0.17-1.27c0-0.18-0.02-0.33-0.05-0.47c0.05-0.14,0.11-0.32,0.19-0.53
			c0.19-0.52,0.31-1.03,0.36-1.53c0.02-0.18-0.02-0.36-0.11-0.52l0.02-0.04c0.1-0.21,0.12-0.45,0.05-0.67
			c0.15-0.29,0.14-0.65-0.06-0.93l0.02-0.15c0.03-0.18,0.01-0.37-0.07-0.54l0.02-0.09c0.02-0.11,0.01-0.21-0.01-0.32
			c0.01-0.07,0.02-0.14,0.02-0.2c0-0.16-0.04-0.31-0.11-0.44l0.02-0.09c0.01-0.06,0.02-0.11,0.03-0.17
			c0.06,0.15,0.16,0.29,0.31,0.42l0.49,0.38c0.13,0.1,0.29,0.16,0.46,0.17l0.11,0.14c0.13,0.18,0.32,0.3,0.51,0.35l0.31,0.31
			c0.12,0.12,0.23,0.23,0.35,0.34c-0.01,0.18,0.04,0.39,0.13,0.54l0.18,0.35c0,0.13-0.04,0.38-0.1,0.75
			c-0.07,0.32,0.04,0.65,0.28,0.86l0.5,0.44c0.2,0.17,0.46,0.24,0.78,0.19l0.04,0.04c0.14,0.32,0.46,0.54,0.81,0.54
			c0.33,0,0.61-0.04,0.84-0.11c0.28-0.1,0.55-0.29,0.76-0.54c0.04-0.05,0.08-0.1,0.12-0.14l0.18-0.06c0.19,0.08,0.43,0.1,0.64,0.06
			l0.08,0.02c0.18,0.05,0.37,0.03,0.57-0.05l0.04-0.02c0.17,0.04,0.36,0.04,0.53-0.03l1.17-0.44c0.2-0.07,0.36-0.21,0.46-0.39
			c0.13-0.22,0.27-0.46,0.42-0.74c0.13-0.24,0.27-0.48,0.42-0.71c0.07-0.11,0.12-0.24,0.14-0.36l0.12-0.79
			c0.01-0.07,0.02-0.14,0.01-0.21c0.07-0.15,0.19-0.38,0.37-0.72c0.27-0.45,0.46-0.83,0.58-1.16l0.18,0.41
			c0.08,0.2,0.25,0.6,0.51,1.2l0.06,0.14c0.23,0.53,0.43,1.11,0.54,1.62c0,0.15,0.01,0.45,0.03,0.88c0.02,0.63,0.2,1.09,0.52,1.37
			c0.23,0.5,0.56,0.95,0.98,1.34c0.05,0.21,0.12,0.42,0.23,0.64c0.1,0.19,0.16,0.33,0.2,0.43c0.14,0.39,0.5,0.62,0.83,0.61
			c-0.57,0.65-1.18,1.26-1.81,1.81c-1.08,0.94-2.47,2.07-4.13,3.34c-0.46,0.34-1.1,0.83-1.91,1.49c-0.84,0.67-1.51,1.25-2.04,1.75
			c-0.31,0.28-0.85,0.61-1.61,0.99c-0.88,0.47-1.59,0.92-2.15,1.39l-0.74,0.33c-0.39,0.17-0.6,0.59-0.52,0.99
			c0.08,0.41,0.43,0.72,0.85,0.73c0.24,0.14,0.54,0.16,0.83,0.04l0.48-0.22c0.24,0.1,0.51,0.08,0.75-0.05
			c0.41-0.23,0.91-0.47,1.51-0.74c0.61-0.28,1.04-0.48,1.29-0.6c0.91-0.44,1.67-0.77,2.34-1l0.12,0.02
			c0.27,0.06,0.53-0.01,0.73-0.19c0.01,0,0.15-0.09,0.68-0.23c0.37-0.1,0.64-0.18,0.84-0.27c0.02,0,0.03,0,0.05,0
			c-0.03,0.1-0.05,0.2-0.05,0.3v0.19c0,0.21,0.07,0.41,0.19,0.55c0.23,0.29,0.6,0.6,1.21,1.01c0.79,0.5,0.93,0.73,0.93,0.75
			c0.14,0.24,0.38,0.4,0.65,0.44c0.25,0.3,0.58,0.66,1.02,1.09c0.51,0.45,0.95,0.99,1.31,1.6c0,0.03,0,0.06,0,0.1
			c0,0.14,0.02,0.34,0.16,0.79c0.08,0.28,0.09,0.38,0.09,0.41c-0.08,0.64,0.03,1.14,0.32,1.52c0.19,0.24,0.45,0.41,0.76,0.49
			l0.21,0.15c0.04,0.87,0.31,1.36,0.65,1.64l-0.02,0.02l-0.03-0.02c-0.08-0.04-0.16-0.07-0.25-0.07h-0.38
			c-0.1,0-0.21,0.03-0.29,0.09c-0.3,0.22-0.52,0.41-0.66,0.59c-0.04,0.01-0.09,0.01-0.15,0.02c-0.28,0.03-0.58,0.2-0.69,0.58
			c-0.35,0.21-0.77,0.56-1.28,1.06c-0.12,0.12-0.18,0.29-0.14,0.46c0.04,0.17,0.05,0.38,0.05,0.63c0,0.18,0.01,0.35,0.02,0.5
			c-0.05,0.06-0.08,0.14-0.1,0.22c-0.02,0.06-0.03,0.12-0.03,0.18l-0.11,0.13c-0.15-0.01-0.29,0.04-0.39,0.14l-0.13,0.12
			c-0.16,0.15-0.2,0.39-0.1,0.59l0.06,0.12c0.09,0.17,0.26,0.27,0.44,0.27c0.32,0,0.53-0.08,0.67-0.18l0.24,0.13
			c0.09,0.04,0.18,0.06,0.28,0.05l0.37,0.26l0.04,0.45c0.01,0.1,0.05,0.2,0.11,0.27l0.01,0.01l-0.04,0.05
			c-0.07,0.11-0.1,0.24-0.08,0.37l0.02,0.11c-0.09,0.09-0.2,0.2-0.33,0.34c-0.11,0.11-0.26,0.24-0.4,0.24
			c-0.08,0-0.15,0.02-0.22,0.05c-0.15,0.07-0.25,0.17-0.31,0.27c-0.03,0.02-0.05,0.04-0.08,0.06l-0.39,0.37
			c-0.13,0.01-0.26,0.06-0.38,0.18c-0.04,0.04-0.07,0.08-0.1,0.13l-0.06,0.12c-0.07,0.13-0.07,0.29-0.02,0.42l0,0
			c-0.2-0.07-0.42-0.01-0.56,0.15l-0.58,0.61c-0.07,0-0.14,0.02-0.2,0.05c-0.94,0.45-1.46,0.88-1.62,1.34l-0.16,0.08
			c-0.17-0.04-0.36,0.02-0.48,0.16l-0.32,0.37c-0.06,0.08-0.1,0.17-0.12,0.26l-0.21,0.12c-0.04,0.03-0.08,0.06-0.12,0.1l-0.19,0.02
			c-0.15,0.02-0.29,0.1-0.37,0.23c-0.06,0.09-0.08,0.19-0.08,0.3l-0.1,0.1c-0.06,0.05-0.1,0.12-0.12,0.19
			c-0.13,0.09-0.22,0.24-0.22,0.42v0.16c-0.03,0.02-0.05,0.05-0.08,0.08l-1.17,1.43c-0.14,0.02-0.28,0.08-0.37,0.17
			c-0.1,0.09-0.15,0.22-0.15,0.36v0.45c-0.29,0.44-0.48,0.93-0.56,1.48c-0.01,0.05-0.01,0.1,0,0.14l0.13,0.98
			c0,0.02,0,0.03,0.01,0.05c-0.01,0.02,0,0.04-0.01,0.07c-0.45,0.48-0.65,0.96-0.51,1.36c-0.01,0.02-0.02,0.03-0.02,0.05l-0.88,0.67
			c-0.09-0.02-0.78,0.77-0.85,0.81c0,0-0.28,1.44-0.28,1.44c-0.02-0.03-0.05-0.06-0.08-0.08c-0.12-0.1-0.28-0.13-0.43-0.09
			c-0.58,0.14-0.64,0.51-0.64,0.67c0,0.02,0,0.04,0.01,0.05c-0.1-0.02-0.2,0-0.29,0.04c-0.09,0.05-0.23,0.14-0.32,0.32
			c-0.01,0-0.02,0-0.04,0h-0.06c-0.26,0-0.48,0.2-0.5,0.46c0,0-0.01,0-0.01,0.01c-0.15,0.06-0.26,0.19-0.29,0.35l-0.08,0.05
			c-0.18,0.1-0.27,0.3-0.24,0.5l-0.65,0.77c-0.03,0.04-0.06,0.08-0.08,0.13c-0.03,0-0.05,0-0.08,0.01c-0.21,0.04-0.37,0.22-0.4,0.43
			c-0.06,0.04-0.12,0.1-0.16,0.17l-0.36,0.29c-0.06,0.05-0.1,0.11-0.13,0.17c-0.07,0.03-0.13,0.07-0.18,0.13l-0.32,0.37
			c-0.08,0.09-0.12,0.21-0.12,0.33l-0.08,0.34c-0.05,0.03-0.1,0.06-0.14,0.1c-0.18,0.17-0.41,0.42-0.67,0.74
			c-0.25,0.3-0.48,0.57-0.66,0.79c-0.06,0.06-0.11,0.13-0.14,0.2c-0.01,0-0.01,0.01-0.02,0.01c-0.54,0.44-1.01,0.94-1.42,1.47
			c-0.12,0.01-0.24,0.06-0.33,0.14l-1.36,1.35l0.64-1.27c0.03,0.01,0.89-1.32,0.92-1.32c0.18,0.04,0.41-0.04,0.52-0.18l0.44-0.55
			c0.07-0.08,0.11-0.18,0.11-0.29c0.03-0.02,0.06-0.05,0.09-0.08c0.13-0.17,0.28-0.38,0.44-0.61c0.15-0.23,0.24-0.3,0.27-0.31
			c0.06-0.04,0.11-0.09,0.15-0.15l0.09-0.13h0c0.29,0,0.59-0.17,0.67-0.54c0.04-0.02,0.09-0.05,0.12-0.09
			c0.1-0.1,0.19-1.2,0.21-1.33c0.13-0.08,0.2-0.22,0.22-0.37c0.19-0.12,0.4-0.27,0.64-0.43c0.34-0.23,0.66-0.43,1.02-0.64
			c0.29-0.24,0.69-0.53,1.2-0.89c0.52-0.36,0.95-0.75,1.3-1.19c0.46-0.2,0.75-0.91,1.03-2.43c0.03-0.14-0.01-0.29-0.1-0.4
			l-0.83-1.04c-0.11-0.13-0.27-0.21-0.44-0.19c-0.09-0.08-0.21-0.12-0.33-0.12c-0.21,0-0.38-0.05-0.53-0.14
			c-0.17-0.11-0.29-0.18-0.32-0.2c-0.09-0.09-0.22-0.15-0.36-0.15h-0.1l-0.04-0.07c-0.09-0.15-0.25-0.23-0.42-0.23h-0.13
			c-0.22,0-0.44,0.07-0.64,0.21l-0.09-0.02c-0.09-0.02-0.19-0.01-0.28,0.03c-0.57,0.23-1.17,0.62-1.8,1.16
			c-0.27-0.07-0.6-0.09-0.96-0.07c0.4-0.41,0.79-0.74,1.15-1l0.36,0.08c0.06,0.01,0.11,0.01,0.17,0.01c0.36-0.05,0.76-0.2,1.2-0.46
			c0.29-0.17,0.55-0.31,0.76-0.42l0.23,0.11c0.11,0.05,0.23,0.06,0.35,0.03l0.45-0.12c0.08-0.02,0.15-0.06,0.21-0.12
			c0.28-0.27,0.68-0.5,1.18-0.68c0.58-0.2,0.97-0.35,1.19-0.43c0.06-0.02,0.12-0.06,0.17-0.11c0.62-0.6,1.18-0.99,1.67-1.17
			c0.26-0.09,0.39-0.38,0.3-0.63l-0.02-0.05c0.03-0.05,0.09-0.15,0.23-0.31c0.34-0.38,0.51-0.73,0.51-1.07c0-0.02,0-0.1,0-0.12
			l-0.06-0.49c-0.01-0.11-0.07-0.22-0.15-0.3c-0.23-0.23-0.46-0.49-0.67-0.79c-0.08-0.11-0.13-0.2-0.16-0.27
			c0.05-0.07,0.08-0.16,0.09-0.25l0.07-0.83c0-0.67-0.2-1.2-0.6-1.58c-0.06-0.06-0.13-0.1-0.21-0.12l-2.6-0.73
			c-0.08-0.02-0.18-0.02-0.26,0c-0.91,0.24-1.6,0.51-2.11,0.83c-0.37,0.01-0.83,0.16-1.19,0.69c-0.43,0.14-0.85,0.35-1.24,0.64
			c-0.53,0.16-1,0.32-1.41,0.47c-0.32,0.13-0.62,0.24-0.9,0.34c-0.05-0.01-0.11-0.01-0.16,0l-0.39,0.08
			c-0.08-0.05-0.18-0.08-0.28-0.08h-0.76c-0.02,0-0.04,0-0.06,0c-0.08-0.01-0.15,0-0.23,0.02l-0.7,0.24
			c-0.17-0.05-0.36-0.01-0.5,0.12l-0.25,0.24c-0.04,0.04-0.08,0.09-0.1,0.14l-0.44,0.91c-0.06,0.13-0.07,0.28-0.01,0.41l-0.07,0.34
			l-0.64,0.89c-0.06,0.08-0.09,0.19-0.09,0.29l0.01,0.66l-0.06,0.43c-0.01,0.05-0.01,0.1,0,0.14l0.06,0.43
			c0.02,0.11,0.07,0.21,0.15,0.29c0.15,0.14,0.24,0.28,0.28,0.4c0.08,0.27,0.22,0.52,0.41,0.75c0.19,0.24,0.55,0.5,1.13,0.82
			c0.06,0.04,0.14,0.06,0.21,0.06c0.46,0.03,1.33-0.15,4.05-1.84c0.94-0.59,1.59-0.99,2.04-1.27c-0.07,0.18-0.18,0.35-0.33,0.5
			c-0.36,0.39-0.96,0.9-1.77,1.52c-1.24,0.91-1.58,1.24-1.73,1.42c-0.08,0.09-0.12,0.21-0.12,0.33l-0.16,0.27c-0.01,0-0.02,0-0.02,0
			c-0.12,0.01-0.27,0.1-0.37,0.2c-0.07,0.04-0.14,0.09-0.19,0.16l-0.25,0.37c-0.06,0.08-0.09,0.18-0.09,0.29v0.06l-0.08,0.03
			c-0.12,0.05-0.19,0.15-0.24,0.26c-0.44,0.27-0.79,0.57-1.05,0.87c-0.09,0.02-0.17,0.05-0.24,0.11c-0.54,0.48-0.98,0.96-1.29,1.44
			c-0.05,0.08-0.08,0.18-0.08,0.28v0.21c-0.62,0.59-0.86,0.76-0.96,0.82c-0.15,0.09-0.25,0.32-0.25,0.49c0,0.12,0.04,0.23,0.12,0.32
			l0.03,0.04l-0.14,0.25c-0.07,0.12-0.08,0.26-0.04,0.4c0,0,0,0,0,0c-0.04,0.14-0.03,0.29,0.05,0.41c0.07,0.11,0.17,0.19,0.29,0.22
			c0.02,0.05,0.06,0.15,0.09,0.34c0.09,0.54,0.22,0.98,0.39,1.34c0.19,0.43,0.53,0.77,1.01,1.03c0.13,0.07,0.29,0.08,0.42,0.02
			l1.67-0.69c0.24,0,0.51-0.08,0.82-0.25c0.01,0.07,0.03,0.13,0.05,0.18c-0.02,0.04-0.04,0.08-0.05,0.12
			c-0.1,0.02-0.2,0.08-0.27,0.16l-0.32,0.37c-0.11,0.12-0.15,0.29-0.11,0.45c-0.02,0.09-2.62,4.6-2.6,4.69l-0.15,0.06
			c-0.11,0.04-0.2,0.13-0.25,0.23l-0.06,0.12c-0.04,0.08-0.06,0.17-0.05,0.26c-0.04,0.03-0.07,0.07-0.1,0.11l-0.13,0.18
			c-0.05,0.07-0.07,0.17-0.07,0.26c-0.01,0.05-0.02,0.09-0.02,0.14v0.12c0,0.03,0,0.07,0.01,0.1l-0.24,0.34
			c-0.01,0.02-0.03,0.04-0.04,0.06l-0.18,0.14c-0.12,0.09-0.19,0.3-0.19,0.46c0,0.01,0,0.01,0,0.02c-0.1-0.05-0.22-0.07-0.33-0.04
			l-0.56,0.15l-0.05-0.02c-0.17-0.06-0.37-0.01-0.5,0.12c-0.12,0.12-0.32,0.3-0.59,0.54c-0.3,0.26-0.57,0.56-0.8,0.87
			c-0.26,0.35-0.35,0.75-0.27,1.15l-0.28,0.49c-0.09,0.16-0.09,0.36,0.02,0.52l0.21,0.33l-0.04,0.24c-0.01,0.06-0.01,0.12,0.01,0.19
			l0.11,0.47c-0.03,0.45,0.09,0.9,0.38,1.31c0.26,0.39,0.58,0.69,0.96,0.89c0.24,0.27,0.51,0.54,0.79,0.81
			c0.29,0.28,0.55,0.55,0.8,0.83c0.07,0.08,0.16,0.13,0.25,0.15l0.25,0.06c0.04,0.01,0.08,0.01,0.12,0.01
			c0.14,0,0.28-0.06,0.38-0.17l0.05-0.06c0.02,0.01,0.04,0.02,0.06,0.02l0.19,0.06c0.12,0.04,0.25,0.03,0.37-0.03l0.25-0.12
			c0.33,0.16,0.56-0.01,0.58-0.04l0.32-0.22h0.35c0.12,0,0.23-0.04,0.32-0.12c0.68-0.57,1.44-1.5,2.32-2.86
			c0.12-0.18,0.11-0.41-0.02-0.58l-0.05-0.06c0.22-0.18,0.38-0.45,0.48-0.67c0.16-0.34,0.27-0.54,0.33-0.66
			c0.06-0.14,0.28-0.52,0.97-1.43c0.5-0.48,0.88-0.96,1.11-1.41c0.05-0.09,0.06-0.19,0.05-0.29l0.68-1
			c0.06-0.08,0.09-0.18,0.09-0.28c0-0.38,0.06-0.86,0.34-1.04c0.07-0.04,0.12-0.1,0.16-0.17c0.16-0.27,0.33-0.53,0.51-0.79
			c0.19-0.27,0.37-0.52,0.54-0.77c0.12-0.17,0.12-0.38,0.01-0.55c0.11-0.11,0.15-0.27,0.12-0.42l0.3-0.29
			c0.08-0.07,0.13-0.17,0.15-0.28l0.05-0.28l0.14-0.23l0.17,0.41c-0.04,0.38,0.08,0.88,0.72,1.37c0.07,0.06,0.16,0.09,0.25,0.1
			c0.35,0.04,1.77-0.16,2.28-0.02c0.42,0.11,0.81,0.21,1.16,0.28l0.04,0.14c0.06,0.2,0.23,0.33,0.44,0.34
			c0.09,0.01,0.18-0.01,0.25-0.04c0.07,0.04,0.15,0.06,0.23,0.06h0.32c0.16,0,0.32-0.08,0.41-0.22c0.16-0.23,0.42-0.53,0.77-0.88
			c-0.03,0.07-0.04,0.15-0.03,0.23c-0.32,0.37-1.14,1.35-3.35,4.01c-2.89,3.48-3.59,4.04-3.74,4.11c-0.09,0.03-0.17,0.08-0.23,0.15
			c-0.37,0.43-0.95,1.04-1.79,1.84l-0.68,0.65c-0.3,0.28-0.6,0.62-0.9,0.99c-0.05,0.07-0.09,0.14-0.1,0.23
			c-0.14,0.1-0.27,0.26-0.4,0.47l-0.06,0.12c-0.01,0.01-0.01,0.03-0.02,0.04l-0.07,0.07c-0.15,0.14-0.16,0.36-0.09,0.55
			c0.12,0.31,0.6,0.41,0.84,0.17l0.13-0.12c0.02-0.02,0.04-0.04,0.05-0.06c0,0,0.01,0,0.01-0.01l0.44-0.31
			c0.07-0.05,0.13-0.12,0.17-0.2c0.02-0.01,0.04-0.02,0.05-0.03l0.59-0.38c0.26-0.16,0.83-0.58,1.89-1.37
			c0.68-0.55,1.19-0.95,1.53-1.19c0.73-0.13,1.78-0.67,3.19-1.64c0.05,0.04,0.11,0.07,0.17,0.09c0.09,0.02,0.17,0.02,0.25,0
			c0.03,0.04,0.07,0.07,0.1,0.1c-0.1,0.09-0.16,0.23-0.16,0.36c0,0.3,0.2,0.54,0.59,0.7c0.31,0.13,0.58,0.21,0.8,0.15
			c0.53,0.51,1.06,1.01,1.59,1.5c0.96,0.89,1.95,1.72,2.92,2.46l0.14,0.46c0.03,0.1,0.1,0.19,0.19,0.26
			c0.28,0.2,0.57,0.57,0.87,1.09c0.36,0.62,0.62,1.03,0.81,1.26c0.03,0.04,0.07,0.07,0.11,0.1c0.04,0.02,0.23,0.17,0.42,0.88
			c0.18,0.61,0.49,1.42,1.18,1.51c0.11,0.02,0.22-0.01,0.32-0.06c0.06,0.04,0.14,0.06,0.21,0.07c0.05,0,0.1,0.01,0.15,0.01
			c0.48,0,0.99-0.2,1.54-0.59c0.27,0.07,0.6,0,0.71-0.25l0.47-0.22l0.31,0.11c0.12,0.04,0.26,0.04,0.38-0.02l0.69-0.33l0.12,0.04
			c0.16,0.06,0.34,0.04,0.48-0.07l0.31-0.23c0.17,0.06,0.37,0.01,0.5-0.12l0.38-0.37c0.05-0.05,0.09-0.11,0.12-0.18l0.19-0.09
			c0.11-0.06,0.2-0.15,0.25-0.27l0.14-0.36l0.21-0.17l1-0.34c0.2-0.07,0.34-0.26,0.34-0.47c0-0.12,0.02-0.25,0.08-0.42
			c0.17-0.02,0.32-0.13,0.39-0.3l0.44-1.04c0.04-0.08,0.05-0.17,0.04-0.26l-0.03-0.2l0.41-0.31c0.12-0.09,0.19-0.22,0.19-0.37
			c0.01-0.15-0.05-0.29-0.15-0.39l-0.02-0.02l0.02-0.06c0.06-0.17,0.02-0.36-0.09-0.49c0.03-0.14,0.02-0.29-0.04-0.41l-0.52-1.27
			c0.05-0.07,0.09-0.15,0.1-0.24l0.06-0.43c0.02-0.15-0.03-0.34-0.13-0.46c0.04-0.18-0.03-0.38-0.18-0.5l-0.04-0.03l0.33-1
			c0.05-0.15,0.03-0.31-0.06-0.44l-0.58-0.83c0.04-0.11,0.04-0.22,0-0.33l-0.08-0.22l0.21-0.76c0.02-0.09,0.02-0.18,0-0.27
			l-0.15-0.51l0.39-1.07c0.07-0.19,0.02-0.4-0.12-0.53l-0.39-0.37c0.1-0.09,0.16-0.22,0.16-0.37v-0.37c0-0.16-0.08-0.31-0.21-0.4
			c-0.04-0.03-0.08-0.05-0.13-0.07l-0.02-0.05c0.16-0.07,0.27-0.23,0.29-0.41l0.06-0.71c0.06,0.09,0.13,0.19,0.2,0.3
			c0.31,0.49,0.39,0.72,0.4,0.82c0.02,0.11,0.07,0.2,0.15,0.28l0.33,0.32c0.04,0.11,0.12,0.2,0.23,0.25
			c0.31,0.17,0.6,0.45,0.87,0.85c0.26,0.38,0.47,0.69,0.63,0.93l-0.05,0.74c-0.01,0.13,0.03,0.26,0.12,0.36
			c0.33,0.39,0.55,0.78,0.66,1.16c0.01,0.03,0.02,0.06,0.04,0.1c0.07,0.13,0.19,0.28,0.38,0.46c0.03,0.03,0.05,0.06,0.06,0.07
			l-0.04,0.14c-0.04,0.15-0.01,0.3,0.08,0.42c0.09,0.12,0.18,0.25,0.26,0.4c-0.1,0.04-0.19,0.12-0.24,0.23l-0.06,0.12
			c-0.06,0.11-0.07,0.23-0.04,0.35c0.04,0.16,0.13,0.51,0.25,1.03c0.14,0.56,0.34,1.12,0.61,1.66c0.31,0.61,0.79,1.07,1.45,1.36
			c0.1,0.04,0.21,0.05,0.32,0.03l0.03-0.01c0.15,0.1,0.33,0.21,0.54,0.34c0.26,0.16,0.49,0.34,0.68,0.52
			c0.12,0.12,0.3,0.16,0.46,0.12l0.06-0.01l0.14,0.08c0.05,0.03,0.1,0.05,0.16,0.06l0.17,0.03l0.15,0.14
			c0.09,0.09,0.22,0.14,0.35,0.14h0.25c0.12,0,0.23-0.04,0.32-0.12l0.1,0.03c0.11,0.03,0.22,0.03,0.32-0.01l0.09-0.03
			c0.1,0.06,0.22,0.08,0.34,0.05l0.28-0.05c0.03,0.03,0.07,0.05,0.11,0.07c0.12,0.06,0.26,0.07,0.38,0.02l0.39-0.14l0.32,0.04
			c0.11,0.01,0.23-0.01,0.32-0.07l0.35-0.21l0.51,0.09c0.07,0.01,0.13,0.01,0.2,0l0.96-0.22l0.58,0.15c0.05,0.01,0.1,0.01,0.15,0
			l0.24,0.13c0.13,0.07,0.28,0.08,0.41,0.03l0.41-0.15c0.12,0.06,0.25,0.08,0.38,0.04l0.49-0.14l0.04,0.01
			c0.07,0.02,0.15,0.03,0.22,0.02l0.26-0.04l0.03,0.02c0.13,0.09,0.3,0.1,0.45,0.05l0.66-0.25l0.02,0.02
			c0.09,0.09,0.22,0.14,0.35,0.14h0.38c0.28,0.07,0.53,0.16,0.73,0.26c0.22,0.11,0.49,0.03,0.63-0.17l0.13-0.18
			c0.06-0.08,0.09-0.18,0.09-0.29v-0.43c0-0.12-0.05-0.23-0.13-0.31l-0.28-0.96l0.01-0.03c0.04-0.12,0.04-0.26-0.02-0.37
			c-0.38-0.82-0.78-1.38-1.23-1.72c-0.06-0.05-0.14-0.08-0.22-0.09c-0.08-0.01-0.12-0.03-0.16-0.13c-0.13-0.31-0.26-0.51-0.4-0.65
			c-0.09-0.08-0.2-0.13-0.32-0.14l0.01-0.07c0.03-0.13,0-0.27-0.08-0.39c-0.17-0.24-0.45-0.67-0.85-1.29
			c-0.51-0.8-0.58-1.06-0.59-1.12c-0.02-0.12-0.09-0.23-0.18-0.31l-0.7-0.55c-0.05-0.04-0.1-0.06-0.15-0.08
			c-0.12-0.18-0.3-0.43-0.6-0.77c0.08-0.17,0.06-0.37-0.06-0.52l-0.19-0.24c-0.12-0.16-0.33-0.23-0.53-0.17l-0.02,0.01
			c-0.09-0.09-0.22-0.15-0.35-0.15h-0.05c-0.15-0.28-0.35-0.44-0.54-0.54c-0.01-0.02-0.01-0.05-0.02-0.07
			c-0.11-0.26-0.28-0.52-0.53-0.81c-0.2-0.23-0.33-0.39-0.41-0.51c-0.09-0.13-0.23-0.21-0.39-0.21l-0.13-0.08
			c-0.25-0.5-0.66-0.81-1.2-0.92l-0.11-0.45c-0.04-0.17-0.17-0.31-0.34-0.36l-0.19-0.06c-0.11-0.04-0.24-0.03-0.34,0.02l-0.18-0.22
			c-0.11-0.13-0.27-0.2-0.44-0.18c-0.01-0.02-0.03-0.03-0.04-0.05l-0.44-0.43c-0.07-0.07-0.17-0.12-0.26-0.13l-0.31-0.29
			c-0.12-0.12-0.3-0.16-0.46-0.13l-0.06,0.01l-0.76-0.45l-0.09-0.62c-0.01-0.09-0.05-0.18-0.12-0.25l-0.32-0.37
			c-0.11-0.12-0.26-0.19-0.43-0.17l-0.29,0.03c-0.73-0.56-1.58-1.07-2.53-1.53c0.19-0.07,0.4-0.15,0.66-0.25
			c0.59-0.22,0.98-0.39,1.22-0.55c0.07,0.01,0.14,0,0.21-0.03l0.33-0.12c0.1,0.06,0.21,0.09,0.32,0.09h0.13
			c0.25,0,0.46-0.18,0.49-0.42l0.28-0.08c0.04-0.01,0.07-0.03,0.11-0.04c0.19,0.02,0.37-0.05,0.48-0.21
			c0.06-0.09,0.15-0.17,0.26-0.27c0.09-0.07,0.17-0.12,0.27-0.14c0.06-0.02,0.12-0.04,0.18-0.08c0.34-0.24,0.81-0.58,1.42-1
			c0.53-0.37,0.96-0.66,1.28-0.85h0.24c0.13,0,0.25-0.05,0.35-0.14l0.45-0.43l0.06,0.01c0.16,0.03,0.32-0.02,0.44-0.13
			c0.22-0.21,0.45-0.46,0.7-0.73c0.29-0.33,0.47-0.67,0.53-1.01c0.01-0.05,0.01-0.11,0-0.16l-0.06-0.43
			c-0.01-0.06-0.03-0.11-0.05-0.16c-0.07-0.13-0.12-0.25-0.15-0.38c-0.06-0.22-0.17-0.45-0.33-0.68c-0.11-0.16-0.25-0.31-0.42-0.44
			c0-0.08-0.03-0.16-0.06-0.22l-0.84-1.49c-0.52-0.78-0.79-1.27-0.92-1.57c0.02-0.05,0.04-0.1,0.05-0.15
			c0.07-0.45-0.07-0.85-0.39-1.13c-0.39-0.33-0.95-0.41-1.36-0.33l-0.35-0.13c-0.14-0.05-0.29-0.03-0.41,0.03
			c-0.12-0.01-0.23,0.03-0.32,0.11l-0.85,0.66l-0.61-0.09c-0.14-0.01-0.28,0.02-0.38,0.1l-0.14,0.11l-0.1-0.05
			c-0.22-0.11-0.48-0.04-0.62,0.15l-0.15,0.21l-0.89,0.21c-0.1,0.03-0.2,0.08-0.27,0.17l-0.76,0.91c-0.31,0.37-0.59,0.65-0.85,0.82
			c-0.18,0.12-0.28,0.36-0.22,0.57c0.06,0.21,0.23,0.36,0.45,0.36c0.04,0.29,0.07,0.66,0.09,1.08c0.02,0.36,0.09,0.6,0.19,0.78
			c-0.85,1.42-1.79,2.64-2.81,3.64c0-0.01-0.01-0.02-0.01-0.03c-0.02-0.04-0.03-0.09-0.03-0.14c0-0.17,0.03-0.41,0.1-0.75l0.15-0.74
			c0.03-0.12,0.01-0.25-0.06-0.35l-0.2-0.34l0.06-0.15c0.25-0.07,0.46-0.29,0.46-0.66c0-0.1-0.03-0.19-0.09-0.26
			c0.06-0.08,0.09-0.18,0.09-0.29v-0.25c0.13-0.52,0.47-1.28,1.03-2.27c0.53-1.05,0.85-1.8,0.99-2.28c0.04-0.14,0.02-0.29-0.06-0.41
			l-0.32-0.49c-0.08-0.12-0.19-0.2-0.33-0.22l-0.45-0.73l0.03-0.04c0.14-0.22,0.08-0.52-0.13-0.67l-0.25-0.18
			c-0.04-0.03-0.08-0.05-0.12-0.06l-0.13-0.51c-0.05-0.18-0.19-0.32-0.37-0.36c-0.36-0.09-0.68-0.2-0.94-0.32
			c0.12-0.13,0.28-0.26,0.47-0.39c0.41-0.28,0.75-0.58,1.01-0.88c0.27-0.31,0.47-0.75,0.62-1.34l0.48-0.51
			c0.13-0.14,0.17-0.35,0.1-0.52c0.02-0.13,0.03-0.27,0.03-0.43c0-0.56-0.21-1.11-0.61-1.64c-0.06-0.08-0.13-0.13-0.22-0.17
			c-0.17-0.06-0.37-0.18-0.61-0.36c-0.29-0.21-0.5-0.36-0.63-0.44c-0.07-0.04-0.14-0.07-0.22-0.08c-0.14-0.01-0.35-0.08-0.57-0.46
			c-0.15-0.26-0.35-0.54-0.59-0.72c-0.02-0.08-0.07-0.15-0.13-0.21c-0.39-0.37-0.92-0.68-1.58-0.9c-0.08-0.03-0.16-0.03-0.24-0.02
			l-0.1-0.06c-0.1-0.09-0.22-0.14-0.35-0.15c0.09-0.02,0.18-0.05,0.27-0.1c0.2,0.02,0.4-0.03,0.58-0.14c0.71-0.48,1.26-0.82,1.63-1
			c0.2-0.1,0.35-0.27,0.42-0.45c0.06-0.14,0.19-0.38,0.49-0.72c0.28-0.32,0.45-0.52,0.54-0.6c0.17-0.17,0.27-0.4,0.27-0.64l0.13-0.1
			c0.08-0.06,0.15-0.13,0.22-0.24c0.09-0.14,0.19-0.31,0.3-0.52c0.12-0.22,0.23-0.48,0.35-0.82c0.03-0.11,0.05-0.23,0.04-0.34
			l-0.03-0.45l0.07-0.09c0.17-0.2,0.24-0.47,0.2-0.7c-0.02-0.14-0.07-0.27-0.15-0.38l0.03-0.49c0.02-0.24-0.06-0.47-0.21-0.65
			l-0.05-0.05l0.02-0.04c0.1-0.19,0.14-0.41,0.1-0.62c-0.04-0.19-0.08-0.41-0.11-0.68c-0.04-0.24-0.06-0.51-0.06-0.83
			c0-0.31-0.16-0.59-0.41-0.76l-0.05-0.11c0.19-0.29,0.21-0.67,0.02-0.98l-0.15-0.24l0.03-0.31c0.01-0.12,0-0.24-0.03-0.35
			c0.02-0.06,0.03-0.12,0.03-0.18l0.04-0.49c0.04-0.09,0.07-0.18,0.08-0.28c0.2,0.53,0.41,0.94,0.65,1.27
			c0.01,0.02,0.03,0.04,0.05,0.06c0,0.06,0.01,0.13,0.04,0.2c0.17,0.54,0.48,1.08,0.93,1.58c0.04,0.05,0.1,0.09,0.16,0.12
			c-0.07-0.03-0.1-0.06-0.09-0.04c0.35,0.4,0.57,0.63,0.65,0.71c0.06,0.06,0.12,0.11,0.2,0.14l0.04,0.15
			c0.02,0.17,0.11,0.35,0.22,0.47c0,0,0.09,0.12,0.33,0.59c0.17,0.32,0.34,0.58,0.53,0.77c-0.03,0.41,0.1,0.79,0.38,1.11l0,0
			c0.01,0.23,0.1,0.45,0.26,0.61l0.08,0.08c0.07,0.15,0.19,0.27,0.32,0.35c0.11,0.07,0.24,0.12,0.37,0.13
			c0.04,0.14,0.12,0.27,0.22,0.37l0.25,0.25c0.21,0.21,0.48,0.24,0.62,0.25c0.04,0,0.09,0,0.13,0c0.25-0.04,0.47-0.18,0.61-0.4
			c0.29-0.09,0.52-0.32,0.6-0.6l0.1-0.34c0.11-0.14,0.17-0.31,0.18-0.48l0.27,0.02c0.15-0.01,0.35-0.04,0.54-0.17
			c0.3,0.02,0.41,0.06,0.41,0.05c0.21,0.17,0.48,0.23,0.75,0.16l0.21-0.05l0.13,0.06c0.11,0.06,0.24,0.09,0.36,0.09
			c0.04,0.02,0.08,0.04,0.13,0.06l0.8,0.31c0.11,0.04,0.18,0.08,0.32,0.06l0.25,0.17c0.2,0.13,0.41,0.17,0.65,0.13l0.37,0.13
			c0.05,0.02,0.11,0.04,0.16,0.05c0.13,0.06,0.28,0.09,0.44,0.07l0.32,0.19c0.23,0.15,0.52,0.18,0.72,0.09
			c0.09-0.03,0.17-0.07,0.25-0.12l0.14,0.03c0.16,0.02,0.32,0.01,0.46-0.04c0.03,0.01,0.06,0.02,0.1,0.03l0.26,0.06
			c0.08,0.02,0.16,0.03,0.24,0.02l0.14,0.11c0.21,0.17,0.49,0.24,0.73,0.19l0.32-0.07c0.1-0.02,0.19-0.06,0.27-0.11c0,0,0,0,0,0
			c0.14,0.08,0.29,0.13,0.46,0.13h0.12c0.02,0,0.04,0,0.06,0l0.11,0.07c0.14,0.08,0.29,0.12,0.45,0.12h0.19
			c0.35,0,0.65-0.21,0.8-0.52l0.26-0.07c0.38-0.12,0.64-0.46,0.64-0.86v-0.19C1300.57,448.84,1300.37,448.52,1300.07,448.37z
			 M1256.21,423.83c-0.24-0.19-0.65-0.21-0.8-0.15c-0.12,0.03-0.38,0.02-0.76-0.04c-0.08,0-0.39-0.04-0.94-0.09
			c-0.04-0.22-0.1-0.46-0.16-0.71c0,0,0,0,0-0.01l-0.06-0.2l0.1-0.16c0.23-0.36,0.18-0.83-0.12-1.13l-0.13-0.13l-0.02-0.09
			l1.65,0.07l0.55,0.06c0.03,0,0.11,0,0.14,0c0.01,0,0.02,0,0.03,0c0.16,0.08,0.34,0.1,0.5,0.06l0.01,0
			c0.78,0.57,1.1,0.96,1.24,1.19c0.12,0.21,0.28,0.61,0.41,1.4L1256.21,423.83z M1279.2,474.78h0.15c0,0.03-0.02,0.11-0.09,0.18
			l-0.09-0.09L1279.2,474.78z M1272.16,423.61c0.03-0.05,0.39-0.42,0.83-0.88c0.75-0.46,1.28-1.01,1.46-1.51
			c0.35-0.36,0.6-0.61,0.6-0.61l0.95,2.48c0,0-3.24,1.33-3.52,1.34C1272.19,424.44,1272.06,423.75,1272.16,423.61z M1270.25,420.6
			c-0.15-0.11-0.33-0.17-0.52-0.17h-0.12c-0.25,0-0.47,0.1-0.65,0.29l-1.61,1.79c-0.03,0.03-0.06,0.07-0.08,0.1
			c-0.27,0.13-0.52,0.33-0.74,0.61c-0.02,0.02-0.03,0.05-0.05,0.08l-0.19-0.47c-0.03-0.07-0.07-0.14-0.12-0.21l0-0.05
			c0.02-0.29-0.09-0.58-0.31-0.77l-0.25-0.21c-0.06-0.23-0.13-0.47-0.23-0.69c-0.11-0.24-0.25-0.47-0.43-0.68
			c-0.17-0.65-0.74-1.3-1.79-2.02c-0.95-0.66-1.92-1.26-2.88-1.79c-0.13-0.07-0.28-0.11-0.43-0.11l-0.08,0
			c-0.2-0.02-0.67-0.14-1.41-0.36c0.15-0.09,0.3-0.2,0.45-0.31c0.09-0.02,0.2-0.06,0.3-0.13c0.15-0.04,0.35-0.11,0.51-0.3
			c0.12-0.15,0.26-0.27,0.42-0.36c0.28,0.11,0.6,0.09,0.86-0.07c0.23-0.16,0.41-0.25,0.53-0.29c0.29,0.18,0.68,0.2,0.98,0.04
			l0.74-0.37l0.15,0.02c0.11,0.02,0.27,0.02,0.4-0.04c0.51-0.17,1.05-0.48,1.64-0.95c0.48,0.02,0.88-0.13,1.22-0.41
			c0.02,0.12,0.05,0.24,0.11,0.34l0.02,0.03c-0.02,0.07-0.06,0.16-0.1,0.27c-0.09,0.22-0.17,0.42-0.23,0.59l-0.09,0.06
			c-0.03,0.02-0.06,0.04-0.08,0.07c-0.41,0.41-0.78,1.01-1.11,1.76c-0.08,0.18-0.1,0.4-0.05,0.6l0.08,0.32
			c-0.07,0.25-0.12,0.51-0.16,0.8c-0.05,0.38-0.07,0.64-0.05,0.95c0.33,1.69,1.04,2.58,2.1,2.65c0.03,0,0.1,0,0.13-0.01
			c0.1-0.01,0.28-0.04,0.45-0.16l1.13-0.83c0.82-0.64,1.5-1.05,2.06-1.24c0.26-0.1,0.52-0.21,0.78-0.31
			c-0.54,0.51-0.82,1.09-0.82,1.72C1270.57,420.44,1270.41,420.52,1270.25,420.6z M1273.27,440.01c-0.04,0.07-0.07,0.14-0.09,0.23
			l-0.13,0.5c-0.05,0.2-0.03,0.41,0.06,0.61c-0.03,0.1-0.04,0.2-0.03,0.31c-0.15,0.2-0.22,0.45-0.18,0.7l0.08,0.48l-0.13,0.3
			c-0.07,0.15-0.1,0.31-0.08,0.48c0.02,0.14,0.02,0.31,0.01,0.49c-0.19,0-0.37,0.07-0.51,0.16c-0.29-0.08-0.59,0-0.8,0.19
			c-0.23-0.06-0.48-0.02-0.68,0.11c-0.03-0.01-0.07-0.01-0.1-0.01c-0.02-0.07-0.05-0.13-0.08-0.19c-0.16-0.27-0.43-0.43-0.74-0.43
			c-0.01-0.08-0.03-0.17-0.06-0.25c-0.1-0.25-0.3-0.43-0.54-0.51c0.07-0.12,0.11-0.26,0.12-0.41l0.05-0.05
			c0.31-0.11,0.78-0.39,1.68-1.24c0.72-0.69,1.19-1.14,1.43-1.38c0.24-0.26,0.46-0.5,0.67-0.71l0.08,0.6c0,0.01,0,0.02,0,0.02
			L1273.27,440.01z M1261.41,481.24c-0.09-0.08-0.21-0.13-0.34-0.13h-0.13c-0.13,0-0.25,0.05-0.35,0.14
			c-0.12,0.12-0.28,0.21-0.47,0.29c-0.27,0.11-0.45,0.19-0.52,0.22c-0.05,0.02-0.1,0.04-0.15,0.07l3.8-4.18l1.32,0.3
			c0.06,0.01,0.13,0.02,0.19,0.01l0.61-0.1l0.11,0.05c0.1,0.05,0.2,0.06,0.31,0.04c0.01,0,0.02,0,0.03-0.01
			c-0.23,0.34-0.44,0.63-0.65,0.86c-0.25,0.27-0.6,0.57-1.04,0.87l-0.11-0.02c-0.16-0.03-0.32,0.02-0.44,0.13l-0.25,0.24
			c-0.04,0.04-0.08,0.1-0.11,0.15C1263.2,480.21,1263,480.54,1261.41,481.24z M1270.81,487.82l-0.08,0.03
			c-0.18,0.07-0.3,0.24-0.32,0.43c-0.01,0.13,0.03,0.26,0.12,0.36c-0.07,0.14-0.07,0.31,0,0.46l0.04,0.08
			c-0.1,0.13-0.13,0.3-0.07,0.46l0.03,0.09c-0.05,0.06-0.09,0.13-0.11,0.22c-0.03,0.12,0.02,0.26,0.1,0.38
			c0,0.01-0.01,0.02-0.01,0.03c-0.09,0.04-0.17,0.11-0.22,0.2c-0.09,0.15-0.1,0.33-0.02,0.49l0.04,0.08l-0.09,0.52
			c-0.02,0.13,0.01,0.26,0.08,0.37l0.09,0.5l-0.15,0.22c-0.09,0.13-0.11,0.29-0.07,0.43c0.03,0.09,0.08,0.17,0.15,0.23l-0.26,0.65
			c-0.02,0.06-0.04,0.18-0.04,0.25c0,0.09,0.03,0.17,0.08,0.24c-0.04,0.14-0.01,0.3,0.09,0.43c0.02,0.03,0.05,0.05,0.07,0.08
			c-0.05,0.5-0.15,1.18-0.3,2.04c-0.02,0.12,0,0.25,0.07,0.35c-0.07,0.05-0.12,0.11-0.16,0.19l-0.32,0.67
			c-0.03,0.07-0.05,0.14-0.05,0.21v0.24c0,0.05,0,0.1,0,0.13c-0.11-0.02-0.24-0.04-0.38-0.01l-0.28,0.07l-0.07-0.05
			c-0.09-0.06-0.19-0.09-0.29-0.09c-0.07,0-0.14,0.02-0.21,0.05c-0.3-0.05-0.66-0.15-1.06-0.32c-0.52-0.21-0.97-0.36-1.34-0.45
			c-0.08-0.02-0.16-0.02-0.23,0l-0.03,0.01c-0.4-0.28-0.96-0.62-1.71-1.06c-0.82-0.45-1.45-0.88-1.89-1.27l0.42-0.54
			c0.17-0.21,0.34-0.39,0.51-0.52c0.12-0.09,0.19-0.24,0.2-0.39c0.11,0.02,0.22,0,0.32-0.06c0.14-0.08,0.24-0.23,0.25-0.4
			c0.03-0.41,0.32-0.82,0.87-1.22c0.97-0.7,1.13-0.83,1.2-0.9c0.08-0.08,0.14-0.19,0.15-0.31l2.43-2.11
			c0.04-0.04,0.07-0.08,0.1-0.12c0.06-0.1,0.3-0.41,1.26-1.07c0.45-0.32,0.79-0.59,1.03-0.82l0.15,0.23
			C1270.88,487.63,1270.84,487.73,1270.81,487.82z M1272.09,477.7l-3.9-0.97l0.25-0.28c-0.03-0.01-0.05-0.02-0.08-0.03
			c0.12-0.08,0.22-0.16,0.32-0.24l3.45-3.83L1272.09,477.7z M1273.46,465.26v0.22c-0.03,0.02-0.05,0.05-0.08,0.08
			c-0.2,0-0.38,0.12-0.46,0.31l-0.03,0.06c-0.11-0.02-0.22,0.03-0.32,0.1c-0.04,0.03-0.07,0.06-0.09,0.09
			c-0.19,0.07-0.36,0.19-0.48,0.38c-0.15-0.04-0.31,0.01-0.44,0.11c-0.07,0.05-0.12,0.12-0.15,0.19l-0.33,0.42
			c-0.05,0.07-0.08,0.14-0.1,0.22l-0.07,0.05l-0.17-0.03c-0.16-0.03-0.33,0.02-0.45,0.14c-0.11,0.11-0.16,0.26-0.14,0.41l-0.03,0.02
			c-0.17-0.17-0.45-0.2-0.65-0.06c-0.28,0.2-0.62,0.33-1,0.4c-0.13,0.02-0.25,0.1-0.32,0.21c-0.26,0.37-0.78,0.7-1.57,0.98
			l-0.03-0.01c-0.05-0.02-0.1-0.02-0.15-0.02c-0.05,0-0.1,0.01-0.15,0.02l-0.33-0.16c-0.06-0.03-0.12-0.04-0.18-0.05l-0.34-0.37
			c0.22-0.18,0.51-0.36,0.88-0.55c0.44-0.22,0.83-0.41,1.17-0.58c0.05-0.02,0.09-0.05,0.13-0.09l0.84-0.35h0.22
			c0.16,0,0.32-0.08,0.41-0.21l0.17-0.24c0.11-0.04,0.29-0.1,0.53-0.17c0.28-0.09,0.56-0.23,0.83-0.43c0,0,0.01,0,0.01,0
			c0.24,0.07,0.5-0.04,0.6-0.28l0.08-0.18c0.36-0.07,0.78-0.2,1.26-0.4c0.22-0.04,0.45-0.11,0.69-0.19
			c0.08-0.03,0.17-0.06,0.26-0.08C1273.46,465.24,1273.46,465.25,1273.46,465.26z M1274.9,456.05l-0.3-0.06l0.2-0.05l0.06,0.01
			c0.07,0.02,0.14,0.01,0.21,0.02C1275.01,455.99,1274.95,456.02,1274.9,456.05z M1273.57,428.67l-0.3,0.08l-0.02-0.09
			c-0.2,0-0.34-0.01-0.37-0.02c-0.18-0.06-0.62-0.86-0.41-1.07c0.21-0.21,3.52-1.34,3.52-1.34l0.41,2.4
			C1276.41,428.62,1274.6,428.67,1273.57,428.67z M1279.59,418.33c0,0,3.88,0.62,4.04,0.67c0.16,0.05,0.43,0.63,0.18,0.77
			c-0.17,0.1-1.82,0.47-2.85,0.69c-0.07,0.03-0.15,0.05-0.21,0.07c0-0.01,0.01-0.02,0.01-0.03c-0.36,0.08-0.61,0.13-0.61,0.13
			L1279.59,418.33z M1279.78,427.05v-2.38c0,0,3.5-0.08,3.77,0c0.27,0.08,0.14,0.71,0,0.79S1279.78,427.05,1279.78,427.05z"/>
	</g>
</g>
</svg>
